<svg width="104" height="139" viewBox="0 0 104 139" fill="none" xmlns="http://www.w3.org/2000/svg">
<path d="M51.9897 0L0.402344 29.7619L51.9897 59.7719L103.577 29.7619L51.9897 0Z" fill="url(#paint0_radial_542_1662)"/>
<path d="M51.9883 119.296V59.7717L103.576 29.7617V89.5336L51.9883 119.296Z" fill="url(#paint1_linear_542_1662)"/>
<path d="M51.9883 119.296V59.7717L0.400921 29.7617V89.5336L51.9883 119.296Z" fill="url(#paint2_linear_542_1662)"/>
<path fill-rule="evenodd" clip-rule="evenodd" d="M52.0547 13.8213L51.5689 13.541L51.0783 13.8128L11.5817 35.6889L11.0664 35.9744L11.0703 36.5634L11.3804 82.8917L11.3841 83.455L11.8699 83.7404L31.7112 95.3972L32.7162 93.6864L13.3607 82.3151L13.0584 37.1392L51.549 15.8202L57.0174 18.975L57.2633 86.3609L57.2695 88.0606L58.7464 87.2193L78.3397 76.0586L78.8407 75.7732V75.1965V60.5639H78.8411V60.5333V60.5025V60.4716V60.4406V60.4095V60.3782V60.3469V60.3154V60.2838V60.2521V60.2203V60.1884V60.1563V60.1242V60.0919V60.0596V60.0271V59.9945V59.9618V59.929V59.8961V59.8631V59.83V59.7968V59.7634V59.73V59.6965V59.6628V59.6291V59.5953V59.5614V59.5273V59.4932V59.459V59.4247V59.3903V59.3558V59.3212V59.2865V59.2517V59.2168V59.1818V59.1468V59.1116V59.0764V59.041V59.0056V58.9701V58.9345V58.8988V58.8631V58.8272V58.7913V58.7553V58.7192V58.683V58.6468V58.6104V58.574V58.5375V58.5009V58.4643V58.4276V58.3908V58.3539V58.3169V58.2799V58.2428V58.2056V58.1684V58.1311V58.0937V58.0562V58.0187V57.9811V57.9434V57.9057V57.8679V57.83V57.7921V57.7541V57.7161V57.678V57.6398V57.6015V57.5632V57.5249V57.4865V57.448V57.4095V57.3709V57.3322V57.2935V57.2548V57.2159V57.1771V57.1382V57.0992V57.0602V57.0211V56.982V56.9428V56.9036V56.8643V56.825V56.7856V56.7462V56.7067V56.6672V56.6277V56.5881V56.5485V56.5088V56.4691V56.4293V56.3895V56.3497V56.3098V56.2699V56.23V56.19V56.15V56.1099V56.0698V56.0297V55.9896V55.9494V55.9092V55.8689V55.8287V55.7884V55.748V55.7077V55.6673V55.6269V55.5864V55.546V55.5055V55.465V55.4244V55.3839V55.3433V55.3027V55.2621V55.2214V55.1808V55.1401V55.0994V55.0587V55.0179V54.9772V54.9364V54.8957V54.8549V54.8141V54.7733V54.7325V54.6916V54.6508V54.61V54.5691V54.5282V54.4874V54.4465V54.4056V54.3647V54.3238V54.2829V54.242V54.2011V54.1602V54.1193V54.0784V54.0375V53.9966V53.9557V53.9149V53.874V53.8331V53.7922V53.7513V53.7105V53.6696V53.6287V53.5879V53.5471V53.5062V53.4654V53.4246V53.3838V53.3431V53.3023V53.2615V53.2208V53.1801V53.1394V53.0987V53.058V53.0174V52.9767V52.9361V52.8955V52.855V52.8144V52.7739V52.7334V52.6929V52.6524V52.612V52.5716V52.5312V52.4909V52.4506V52.4103V52.37V52.3298V52.2896V52.2494V52.2093V52.1691V52.1291V52.089V52.049V52.0091V51.9691V51.9292V51.8894V51.8496V51.8098V51.77V51.7303V51.6907V51.6511V51.6115V51.572V51.5325V51.4931V51.4537V51.4143V51.375V51.3358V51.2966V51.2574V51.2183V51.1792V51.1402V51.1013V51.0624V51.0235V50.9847V50.946V50.9073V50.8687V50.8301V50.7916V50.7532V50.7148V50.6764V50.6381V50.5999V50.5618V50.5237V50.4857V50.4477V50.4098V50.372V50.3342V50.2965V50.2588V50.2213V50.1838V50.1463V50.109V50.0717V50.0345V49.9973V49.9603V49.9233V49.8863V49.8495V49.8127V49.776V49.7394V49.7028V49.6664V49.63V49.5937V49.5575V49.5213V49.4852V49.4493V49.4134V49.3775V49.3418V49.3062V49.2706V49.2351V49.1998V49.1645V49.1293V49.0941V49.0591V49.0242V48.9893V48.9546V48.9199V48.8854V48.8509V48.8165V48.7822V48.748V48.714V48.68V48.6461V48.6123V48.5786V48.545V48.5115V48.4781V48.4448V48.4117V48.3786V48.3456V48.3127V48.28V48.2473V48.2148V48.1824V48.15V48.1178V48.0857V48.0537V48.0218V47.9901V47.9584V47.9268V47.8954V47.8641V47.8329V47.8018V47.7709V47.74V47.7093V47.6787V47.6482V47.6178V47.5876V47.5575V47.5275V47.4976V47.4678V47.4382V47.4087V47.3793V47.3501V47.321V47.292V47.2631V47.2344V47.2058V47.1773V47.149V47.1208V47.0927V47.0648V47.037V47.0093V46.9818V46.9544V46.9271V46.9V46.873V46.8462V46.8195V46.7929V46.7665V46.7403V46.7141V46.6882V46.6623V46.6366V46.6111V46.5857V46.5604V46.5353V46.5104V46.4856V46.4609V46.4364V46.412V46.3878V46.3638V46.3399V46.3162V46.2926V46.2691V46.2459V46.2228V46.1998V46.177V46.1544V46.1319V46.1096V46.0874V46.0654V46.0436V46.0219V46.0004V45.9791V45.9579V45.9369V45.9161V45.8954V45.8749V45.8545V45.8344V45.8144V45.7946V45.7749V45.7554V45.7361V45.717V45.698V45.6793V45.6607V45.6422V45.624V45.6059V45.588V45.5703V45.5528V45.5354V45.5182V45.5013V45.4845V45.4678V45.4514V45.4351V45.4191V45.4032V45.3875V45.372V45.3567V45.3416V45.3266V45.3119V45.2973V45.283V45.2688V45.2548V45.241V45.2275V45.2141V45.2009V45.1879V45.1751V45.1625V45.1501V45.1379V45.1259V45.1141V45.1025V45.0911V45.0799V45.0689V45.0581V45.0475V45.0372V45.027V45.0171V45.0073V44.9978V44.9884V44.9793V44.9704V44.9617V44.9532V44.945V44.9369V44.9291V44.9214V44.914V44.9068V44.8998V44.8931V44.8865V44.8802V44.8741V44.8682V44.8626V44.8571V44.8519V44.8469V44.8422V44.8376V44.8333V44.8292V44.8254V44.8217V44.8183V44.8151V44.8122V44.8095V44.807V44.8048V44.8027V44.8009V44.7994V44.7981V44.797V44.7961V44.7955C78.8411 44.4663 78.6761 44.2448 78.6536 44.2147L78.6518 44.2122C78.6043 44.1466 78.5591 44.1014 78.5401 44.0828C78.4982 44.0419 78.4611 44.0128 78.4478 44.0025C78.4151 43.9771 78.3839 43.9557 78.3661 43.9438C78.3258 43.9165 78.276 43.8848 78.224 43.8522C78.1169 43.7853 77.9644 43.6925 77.7748 43.5787C77.3939 43.3502 76.8452 43.0257 76.1696 42.6289C74.8174 41.8349 72.9477 40.7461 70.8751 39.5443C66.9575 37.2727 62.3095 34.5944 59.0518 32.7354L58.9994 18.3972L58.9973 17.8267L58.5031 17.5415L52.0547 13.8213ZM59.0601 35.0254L59.1479 59.0641L76.8569 58.8399V58.8272V58.7913V58.7553V58.7192V58.683V58.6468V58.6104V58.574V58.5375V58.5009V58.4643V58.4276V58.3908V58.3539V58.3169V58.2799V58.2428V58.2056V58.1684V58.1311V58.0937V58.0562V58.0187V57.9811V57.9434V57.9057V57.8679V57.83V57.7921V57.7541V57.7161V57.678V57.6398V57.6015V57.5632V57.5249V57.4865V57.448V57.4095V57.3709V57.3322V57.2935V57.2548V57.2159V57.1771V57.1382V57.0992V57.0602V57.0211V56.982V56.9428V56.9036V56.8643V56.825V56.7856V56.7462V56.7067V56.6672V56.6277V56.5881V56.5485V56.5088V56.4691V56.4293V56.3895V56.3497V56.3098V56.2699V56.23V56.19V56.15V56.1099V56.0698V56.0297V55.9896V55.9494V55.9092V55.8689V55.8287V55.7884V55.748V55.7077V55.6673V55.6269V55.5864V55.546V55.5055V55.465V55.4244V55.3839V55.3433V55.3027V55.2621V55.2214V55.1808V55.1401V55.0994V55.0587V55.0179V54.9772V54.9364V54.8957V54.8549V54.8141V54.7733V54.7325V54.6916V54.6508V54.61V54.5691V54.5282V54.4874V54.4465V54.4056V54.3647V54.3238V54.2829V54.242V54.2011V54.1602V54.1193V54.0784V54.0375V53.9966V53.9557V53.9149V53.874V53.8331V53.7922V53.7513V53.7105V53.6696V53.6287V53.5879V53.5471V53.5062V53.4654V53.4246V53.3838V53.3431V53.3023V53.2615V53.2208V53.1801V53.1394V53.0987V53.058V53.0174V52.9767V52.9361V52.8955V52.855V52.8144V52.7739V52.7334V52.6929V52.6524V52.612V52.5716V52.5312V52.4909V52.4506V52.4103V52.37V52.3298V52.2896V52.2494V52.2093V52.1691V52.1291V52.089V52.049V52.0091V51.9691V51.9292V51.8894V51.8496V51.8098V51.77V51.7303V51.6907V51.6511V51.6115V51.572V51.5325V51.4931V51.4537V51.4143V51.375V51.3358V51.2966V51.2574V51.2183V51.1792V51.1402V51.1013V51.0624V51.0235V50.9847V50.946V50.9073V50.8687V50.8301V50.7916V50.7532V50.7148V50.6764V50.6381V50.5999V50.5618V50.5237V50.4857V50.4477V50.4098V50.372V50.3342V50.2965V50.2588V50.2213V50.1838V50.1463V50.109V50.0717V50.0345V49.9973V49.9603V49.9233V49.8863V49.8495V49.8127V49.776V49.7394V49.7028V49.6664V49.63V49.5937V49.5575V49.5213V49.4852V49.4493V49.4134V49.3775V49.3418V49.3062V49.2706V49.2351V49.1998V49.1645V49.1293V49.0941V49.0591V49.0242V48.9893V48.9546V48.9199V48.8854V48.8509V48.8165V48.7822V48.748V48.714V48.68V48.6461V48.6123V48.5786V48.545V48.5115V48.4781V48.4448V48.4117V48.3786V48.3456V48.3127V48.28V48.2473V48.2148V48.1824V48.15V48.1178V48.0857V48.0537V48.0218V47.9901V47.9584V47.9268V47.8954V47.8641V47.8329V47.8018V47.7709V47.74V47.7093V47.6787V47.6482V47.6178V47.5876V47.5575V47.5275V47.4976V47.4678V47.4382V47.4087V47.3793V47.3501V47.321V47.292V47.2631V47.2344V47.2058V47.1773V47.149V47.1208V47.0927V47.0648V47.037V47.0093V46.9818V46.9544V46.9271V46.9V46.873V46.8462V46.8195V46.7929V46.7665V46.7403V46.7141V46.6882V46.6623V46.6366V46.6111V46.5857V46.5604V46.5353V46.5104V46.4856V46.4609V46.4364V46.412V46.3878V46.3638V46.3399V46.3162V46.2926V46.2691V46.2459V46.2228V46.1998V46.177V46.1544V46.1319V46.1096V46.0874V46.0654V46.0436V46.0219V46.0004V45.9791V45.9579V45.9369V45.9161V45.8954V45.8749V45.8545V45.8344V45.8144V45.7946V45.7749V45.7554V45.7361V45.717V45.698V45.6793V45.6607V45.6422V45.624V45.6059V45.588V45.5703V45.5528V45.5354V45.5182V45.5013V45.4845V45.4678V45.4514V45.4351V45.4191V45.4032V45.3875V45.372V45.3567V45.342L76.7538 45.28C76.3813 45.0564 75.8391 44.7358 75.1649 44.3399C73.8173 43.5486 71.9512 42.4618 69.8799 41.2608C66.3472 39.2123 62.2216 36.8338 59.0601 35.0254ZM59.2412 84.654L59.1551 61.0483L76.8566 60.8242V74.6199L59.2412 84.654ZM89.7567 37.8262L70.4098 26.7018L71.3989 24.9817L91.2402 36.3904L91.7346 36.6747L91.7377 37.245L91.9857 82.384L91.9889 82.9566L91.4945 83.2458L52.06 106.311L51.5461 106.612L51.0392 106.3L44.5907 102.332L44.1186 102.041V101.487V87.1829C40.7864 85.287 36.1046 82.591 32.1818 80.3197C30.1195 79.1256 28.2658 78.0482 26.9272 77.2655C26.2581 76.8744 25.7162 76.5559 25.3408 76.333C25.1537 76.2219 25.0048 76.1327 24.9013 76.0695C24.8507 76.0385 24.805 76.0102 24.7693 75.9871C24.7534 75.9769 24.7282 75.9604 24.7024 75.942C24.6924 75.9349 24.6628 75.9137 24.6287 75.8847C24.6146 75.8726 24.5737 75.8375 24.5284 75.7865C24.5044 75.7585 24.4484 75.6837 24.4179 75.6357C24.3729 75.5516 24.2922 75.2977 24.2773 75.1265L24.2773 74.8276L24.2754 63.4583C24.2744 57.0091 24.2735 49.3017 24.2735 44.2407V43.6553L24.786 43.3723L44.6311 32.4138L46.1027 31.6011V33.2822V100.932L51.5721 104.298L89.9985 81.8222L89.7567 37.8262ZM44.1186 84.8992V34.9633L26.2576 44.8262C26.2577 49.8828 26.2586 57.2528 26.2595 63.458L26.2614 74.572L26.3538 74.6269C26.7234 74.8464 27.2607 75.1622 27.9286 75.5527C29.2639 76.3334 31.115 77.4093 33.176 78.6026C36.7252 80.6576 40.8936 83.059 44.1186 84.8992Z" fill="url(#paint3_linear_542_1662)"/>
<circle cx="70.1599" cy="25.3434" r="2.48016" fill="#F5F8FF"/>
<circle cx="32.4645" cy="94.7907" r="2.48016" fill="#BACDFE"/>
<path d="M27.3374 130.661C27.3374 130.105 27.2652 129.614 27.1209 129.189C26.9766 128.765 26.7766 128.41 26.521 128.126C26.2695 127.841 25.9705 127.627 25.6242 127.482C25.2819 127.334 24.9129 127.26 24.517 127.26C24.1212 127.26 23.7501 127.334 23.4037 127.482C23.0615 127.627 22.7625 127.841 22.5069 128.126C22.2554 128.41 22.0574 128.765 21.9131 129.189C21.7688 129.614 21.6967 130.105 21.6967 130.661C21.6967 131.218 21.7688 131.709 21.9131 132.133C22.0616 132.554 22.2616 132.907 22.5131 133.191C22.7687 133.476 23.0677 133.69 23.4099 133.834C23.7563 133.979 24.1294 134.051 24.5294 134.051C24.9252 134.051 25.2922 133.979 25.6303 133.834C25.9726 133.69 26.2695 133.476 26.521 133.191C26.7766 132.907 26.9766 132.554 27.1209 132.133C27.2652 131.709 27.3374 131.218 27.3374 130.661ZM28.4012 130.661C28.4012 131.288 28.3105 131.863 28.1291 132.387C27.9477 132.911 27.6879 133.362 27.3498 133.742C27.0117 134.121 26.6035 134.418 26.1251 134.632C25.651 134.842 25.119 134.948 24.5294 134.948C23.9191 134.948 23.3728 134.842 22.8904 134.632C22.4079 134.418 21.9997 134.121 21.6657 133.742C21.3317 133.362 21.0761 132.911 20.8988 132.387C20.7215 131.863 20.6328 131.288 20.6328 130.661C20.6328 130.03 20.7235 129.453 20.905 128.93C21.0905 128.402 21.3503 127.948 21.6843 127.569C22.0224 127.189 22.4306 126.895 22.9089 126.684C23.3872 126.47 23.9233 126.363 24.517 126.363C25.1232 126.363 25.6654 126.47 26.1437 126.684C26.6261 126.895 27.0343 127.189 27.3683 127.569C27.7023 127.948 27.958 128.402 28.1353 128.93C28.3126 129.453 28.4012 130.03 28.4012 130.661ZM31.2031 131.366V134.793H30.1949V126.517H32.3411C32.704 126.517 33.0111 126.532 33.2627 126.561C33.5183 126.585 33.7513 126.627 33.9616 126.684C34.5389 126.841 34.9801 127.109 35.2852 127.488C35.5903 127.864 35.7429 128.334 35.7429 128.899C35.7429 129.233 35.6893 129.532 35.5821 129.795C35.4749 130.059 35.3244 130.288 35.1306 130.482C34.9368 130.676 34.7038 130.835 34.4316 130.958C34.1636 131.082 33.8647 131.173 33.5348 131.23V131.255L36.2377 134.793H34.9697L32.4215 131.366H31.2031ZM31.2031 127.427V130.457H32.1988C32.5081 130.457 32.772 130.447 32.9905 130.426C33.2091 130.406 33.4049 130.369 33.5781 130.315C33.9286 130.208 34.1987 130.037 34.3883 129.802C34.578 129.567 34.6729 129.259 34.6729 128.88C34.6687 128.525 34.578 128.241 34.4007 128.027C34.2234 127.808 33.9781 127.651 33.6647 127.556C33.5163 127.511 33.339 127.478 33.1328 127.458C32.9266 127.437 32.6648 127.427 32.3473 127.427H31.2031ZM41.7733 130.513C42.0289 130.55 42.2578 130.618 42.4598 130.717C42.666 130.816 42.8412 130.944 42.9855 131.101C43.134 131.253 43.2474 131.437 43.3257 131.651C43.4041 131.861 43.4432 132.102 43.4432 132.375C43.4432 132.568 43.4144 132.773 43.3567 132.987C43.2989 133.197 43.202 133.403 43.066 133.605C42.934 133.803 42.7588 133.987 42.5402 134.156C42.3258 134.325 42.0578 134.463 41.7362 134.57C41.4888 134.653 41.2146 134.711 40.9136 134.743C40.6126 134.776 40.2518 134.793 39.8312 134.793H37.6912V126.517H39.757C39.9466 126.517 40.1178 126.522 40.2703 126.53C40.427 126.534 40.5693 126.542 40.6971 126.555C40.829 126.567 40.9507 126.583 41.062 126.604C41.1733 126.62 41.2785 126.641 41.3774 126.666C41.6372 126.736 41.8722 126.833 42.0825 126.957C42.2969 127.076 42.4784 127.22 42.6268 127.389C42.7753 127.559 42.8886 127.75 42.967 127.965C43.0495 128.179 43.0907 128.412 43.0907 128.664C43.0907 128.866 43.066 129.059 43.0165 129.245C42.9711 129.431 42.8948 129.602 42.7876 129.758C42.6845 129.915 42.5485 130.055 42.3794 130.179C42.2145 130.303 42.0124 130.406 41.7733 130.488V130.513ZM40.2332 130.099C40.4311 130.099 40.6022 130.09 40.7466 130.074C40.8909 130.053 41.0208 130.024 41.1362 129.987C41.4455 129.884 41.6702 129.723 41.8104 129.505C41.9547 129.286 42.0269 129.029 42.0269 128.732C42.0269 128.427 41.9526 128.177 41.8042 127.983C41.6558 127.789 41.4228 127.645 41.1053 127.55C40.9486 127.505 40.7672 127.474 40.561 127.458C40.3548 127.437 40.1116 127.427 39.8312 127.427H38.6993V130.099H40.2332ZM38.6993 131.008V133.884H39.9178C40.2064 133.884 40.4744 133.871 40.7218 133.847C40.9692 133.818 41.1795 133.774 41.3527 133.717C41.5424 133.655 41.7032 133.577 41.8351 133.482C41.9671 133.383 42.0722 133.276 42.1506 133.16C42.233 133.041 42.2908 132.915 42.3237 132.783C42.3609 132.651 42.3794 132.517 42.3794 132.381C42.3794 132.224 42.3609 132.078 42.3237 131.942C42.2866 131.801 42.2248 131.678 42.1382 131.571C42.0557 131.459 41.9444 131.362 41.8042 131.28C41.6681 131.197 41.497 131.133 41.2908 131.088C41.1671 131.059 41.0249 131.039 40.8641 131.026C40.7074 131.014 40.5115 131.008 40.2765 131.008H38.6993ZM46.2203 133.884H50.4633V134.793H45.2122V126.517H50.2344V127.427H46.2203V130.099H49.7891V131.008H46.2203V133.884ZM53.2094 133.884H57.4523V134.793H52.2013V126.517H57.2235V127.427H53.2094V130.099H56.7782V131.008H53.2094V133.884ZM63.5755 134.793H63.1117L61.0273 129.851C60.7387 129.171 60.45 128.431 60.1614 127.631H60.1119C60.1696 128.781 60.1985 129.835 60.1985 130.791V134.793H59.1903V126.517H60.6438L62.5921 131.199C62.8148 131.735 63.0601 132.381 63.3281 133.135H63.3591C63.6559 132.298 63.9013 131.653 64.0951 131.199L66.0434 126.517H67.4968V134.793H66.4887V130.791C66.4887 129.855 66.5175 128.802 66.5753 127.631H66.5258C66.2207 128.476 65.932 129.216 65.6599 129.851L63.5755 134.793ZM69.6369 134.793V133.587H70.8182V134.793H69.6369ZM72.9582 134.793V126.517H73.9664V134.793H72.9582ZM82.4708 130.661C82.4708 130.105 82.3987 129.614 82.2543 129.189C82.11 128.765 81.91 128.41 81.6544 128.126C81.4029 127.841 81.1039 127.627 80.7576 127.482C80.4153 127.334 80.0463 127.26 79.6504 127.26C79.2546 127.26 78.8835 127.334 78.5371 127.482C78.1949 127.627 77.896 127.841 77.6403 128.126C77.3888 128.41 77.1909 128.765 77.0465 129.189C76.9022 129.614 76.8301 130.105 76.8301 130.661C76.8301 131.218 76.9022 131.709 77.0465 132.133C77.195 132.554 77.395 132.907 77.6465 133.191C77.9021 133.476 78.2011 133.69 78.5433 133.834C78.8897 133.979 79.2628 134.051 79.6628 134.051C80.0587 134.051 80.4256 133.979 80.7637 133.834C81.106 133.69 81.4029 133.476 81.6544 133.191C81.91 132.907 82.11 132.554 82.2543 132.133C82.3987 131.709 82.4708 131.218 82.4708 130.661ZM83.5346 130.661C83.5346 131.288 83.4439 131.863 83.2625 132.387C83.0811 132.911 82.8213 133.362 82.4832 133.742C82.1451 134.121 81.7369 134.418 81.2585 134.632C80.7844 134.842 80.2524 134.948 79.6628 134.948C79.0526 134.948 78.5062 134.842 78.0238 134.632C77.5413 134.418 77.1331 134.121 76.7991 133.742C76.4651 133.362 76.2095 132.911 76.0322 132.387C75.8549 131.863 75.7662 131.288 75.7662 130.661C75.7662 130.03 75.857 129.453 76.0384 128.93C76.2239 128.402 76.4837 127.948 76.8177 127.569C77.1558 127.189 77.564 126.895 78.0423 126.684C78.5206 126.47 79.0567 126.363 79.6504 126.363C80.2566 126.363 80.7988 126.47 81.2771 126.684C81.7595 126.895 82.1677 127.189 82.5017 127.569C82.8357 127.948 83.0914 128.402 83.2687 128.93C83.446 129.453 83.5346 130.03 83.5346 130.661Z" fill="white"/>
<defs>
<radialGradient id="paint0_radial_542_1662" cx="0" cy="0" r="1" gradientUnits="userSpaceOnUse" gradientTransform="translate(68.8314 3.85517) rotate(160.346) scale(92.3345 159.382)">
<stop stop-color="#A15AEC"/>
<stop offset="1" stop-color="#3055FB"/>
</radialGradient>
<linearGradient id="paint1_linear_542_1662" x1="89.3912" y1="21.4172" x2="74.6131" y2="119.295" gradientUnits="userSpaceOnUse">
<stop stop-color="#1253FF"/>
<stop offset="1" stop-color="#BB5BE9"/>
</linearGradient>
<linearGradient id="paint2_linear_542_1662" x1="-20.1596" y1="91.881" x2="26.1023" y2="40.8001" gradientUnits="userSpaceOnUse">
<stop offset="0.25647" stop-color="#A05AEC"/>
<stop offset="1" stop-color="#3455FA"/>
</linearGradient>
<linearGradient id="paint3_linear_542_1662" x1="51.5276" y1="13.541" x2="51.7414" y2="114.336" gradientUnits="userSpaceOnUse">
<stop stop-color="#FDFEFF"/>
<stop offset="1" stop-color="#A7BFFE"/>
</linearGradient>
</defs>
</svg>
