<svg width="104" height="139" viewBox="0 0 104 139" fill="none" xmlns="http://www.w3.org/2000/svg">
<path d="M51.7099 0L0.0429688 29.8079L51.7099 59.8641L103.377 29.8079L51.7099 0Z" fill="url(#paint0_linear_542_1661)"/>
<path d="M51.7109 119.481V59.8649L103.378 29.8086V89.6727L51.7109 119.481Z" fill="url(#paint1_linear_542_1661)"/>
<path d="M51.7109 119.481V59.8649L0.0439606 29.8086V89.6727L51.7109 119.481Z" fill="url(#paint2_linear_542_1661)"/>
<mask id="mask0_542_1661" style="mask-type:alpha" maskUnits="userSpaceOnUse" x="0" y="0" width="104" height="60">
<path d="M51.7099 0L0.0429688 29.8079L51.7099 59.8641L103.377 29.8079L51.7099 0Z" fill="url(#paint3_linear_542_1661)"/>
</mask>
<g mask="url(#mask0_542_1661)">
<g opacity="0.8">
<g filter="url(#filter0_i_542_1661)">
<path fill-rule="evenodd" clip-rule="evenodd" d="M52.2508 13.5795L51.7642 13.2988L51.2728 13.571L11.7153 35.4809L11.1992 35.7668L11.2032 36.3568L11.5137 82.7565L11.5174 83.3207L12.0039 83.6066L30.1764 94.2829C30.1564 94.4101 30.146 94.5404 30.146 94.6732C30.146 96.0451 31.2581 97.1572 32.6299 97.1572C34.0018 97.1572 35.1139 96.0451 35.1139 94.6732C35.1139 93.3013 34.0018 92.1892 32.6299 92.1892C32.1188 92.1892 31.6438 92.3436 31.2489 92.6082L13.497 82.179L13.1943 36.9334L51.7443 15.5815L57.2211 18.7412L57.4674 86.2311L57.4737 87.9334L58.9528 87.0908L78.5763 75.9129L79.0781 75.627V75.0495V60.3939H79.0818V60.3632V60.3324V60.3015V60.2704V60.2392V60.208V60.1765V60.145V60.1134V60.0816V60.0498V60.0178V59.9857V59.9535V59.9212V59.8888V59.8563V59.8236V59.7909V59.758V59.7251V59.692V59.6588V59.6256V59.5922V59.5587V59.5251V59.4915V59.4577V59.4238V59.3898V59.3557V59.3216V59.2873V59.2529V59.2184V59.1839V59.1492V59.1145V59.0796V59.0447V59.0097V58.9746V58.9394V58.9041V58.8687V58.8332V58.7976V58.762V58.7263V58.6904V58.6545V58.6186V58.5825V58.5463V58.5101V58.4738V58.4374V58.4009V58.3644V58.3277V58.291V58.2542V58.2174V58.1805V58.1434V58.1064V58.0692V58.032V57.9947V57.9573V57.9198V57.8823V57.8447V57.8071V57.7694V57.7316V57.6937V57.6558V57.6178V57.5798V57.5417V57.5035V57.4653V57.427V57.3886V57.3502V57.3117V57.2732V57.2346V57.1959V57.1572V57.1185V57.0796V57.0408V57.0018V56.9629V56.9238V56.8847V56.8456V56.8064V56.7672V56.7279V56.6886V56.6492V56.6098V56.5703V56.5308V56.4912V56.4516V56.412V56.3723V56.3325V56.2928V56.2529V56.2131V56.1732V56.1333V56.0933V56.0533V56.0132V55.9732V55.9331V55.8929V55.8527V55.8125V55.7723V55.732V55.6917V55.6513V55.611V55.5706V55.5302V55.4897V55.4492V55.4087V55.3682V55.3277V55.2871V55.2465V55.2059V55.1652V55.1245V55.0839V55.0432V55.0024V54.9617V54.9209V54.8802V54.8394V54.7986V54.7578V54.7169V54.6761V54.6352V54.5943V54.5535V54.5126V54.4717V54.4308V54.3898V54.3489V54.308V54.267V54.2261V54.1852V54.1442V54.1032V54.0623V54.0213V53.9804V53.9394V53.8984V53.8575V53.8165V53.7755V53.7346V53.6936V53.6527V53.6117V53.5708V53.5299V53.489V53.448V53.4071V53.3662V53.3253V53.2845V53.2436V53.2027V53.1619V53.1211V53.0803V53.0395V52.9987V52.9579V52.9172V52.8764V52.8357V52.795V52.7543V52.7137V52.6731V52.6324V52.5919V52.5513V52.5107V52.4702V52.4297V52.3893V52.3488V52.3084V52.268V52.2277V52.1873V52.147V52.1068V52.0666V52.0264V51.9862V51.946V51.9059V51.8659V51.8259V51.7859V51.7459V51.706V51.6661V51.6263V51.5865V51.5467V51.507V51.4673V51.4277V51.3881V51.3485V51.3091V51.2696V51.2302V51.1908V51.1515V51.1122V51.073V51.0339V50.9948V50.9557V50.9167V50.8777V50.8388V50.8V50.7612V50.7224V50.6837V50.6451V50.6065V50.568V50.5296V50.4912V50.4528V50.4146V50.3763V50.3382V50.3001V50.2621V50.2241V50.1862V50.1484V50.1106V50.0729V50.0353V49.9978V49.9603V49.9228V49.8855V49.8482V49.811V49.7739V49.7368V49.6999V49.6629V49.6261V49.5894V49.5527V49.5161V49.4796V49.4431V49.4067V49.3705V49.3343V49.2981V49.2621V49.2262V49.1903V49.1545V49.1188V49.0832V49.0477V49.0122V48.9769V48.9416V48.9064V48.8714V48.8364V48.8015V48.7667V48.7319V48.6973V48.6628V48.6284V48.594V48.5598V48.5257V48.4916V48.4577V48.4238V48.3901V48.3564V48.3229V48.2895V48.2561V48.2229V48.1898V48.1568V48.1238V48.091V48.0583V48.0257V47.9932V47.9609V47.9286V47.8964V47.8644V47.8325V47.8006V47.7689V47.7373V47.7059V47.6745V47.6432V47.6121V47.5811V47.5502V47.5194V47.4888V47.4583V47.4278V47.3975V47.3674V47.3373V47.3074V47.2776V47.2479V47.2184V47.189V47.1597V47.1305V47.1015V47.0726V47.0438V47.0152V46.9867V46.9583V46.93V46.9019V46.8739V46.8461V46.8184V46.7908V46.7634V46.7361V46.7089V46.6819V46.655V46.6283V46.6017V46.5752V46.5489V46.5228V46.4967V46.4709V46.4451V46.4195V46.3941V46.3688V46.3437V46.3187V46.2938V46.2691V46.2446V46.2202V46.196V46.1719V46.1479V46.1242V46.1005V46.0771V46.0538V46.0306V46.0076V45.9848V45.9621V45.9396V45.9173V45.8951V45.873V45.8512V45.8295V45.8079V45.7866V45.7654V45.7443V45.7234V45.7027V45.6822V45.6618V45.6416V45.6216V45.6018V45.5821V45.5626V45.5432V45.5241V45.5051V45.4863V45.4677V45.4492V45.4309V45.4128V45.3949V45.3772V45.3596V45.3422V45.325V45.308V45.2912V45.2745V45.2581V45.2418V45.2257V45.2098V45.1941V45.1786V45.1632V45.1481V45.1331V45.1183V45.1038V45.0894V45.0752V45.0612V45.0474V45.0338V45.0204V45.0072V44.9941V44.9813V44.9687V44.9563V44.9441V44.932V44.9202V44.9086V44.8972V44.886V44.875V44.8642V44.8536V44.8432V44.833V44.8231V44.8133V44.8037V44.7944V44.7853V44.7763V44.7676V44.7591V44.7508V44.7428V44.7349V44.7273V44.7199V44.7127V44.7057V44.6989V44.6923V44.686V44.6799V44.674V44.6683V44.6629V44.6577V44.6527V44.6479V44.6434V44.639V44.6349V44.6311V44.6274V44.624V44.6208V44.6179V44.6152V44.6127V44.6104V44.6084V44.6066V44.6051V44.6037V44.6027V44.6018V44.6012C79.0818 44.2715 78.9166 44.0496 78.8941 44.0195L78.8922 44.0169C78.8447 43.9513 78.7994 43.906 78.7804 43.8874C78.7384 43.8464 78.7012 43.8173 78.6879 43.8069C78.6551 43.7815 78.6239 43.7601 78.6061 43.7481C78.5657 43.7208 78.5159 43.689 78.4638 43.6564C78.3565 43.5894 78.2038 43.4965 78.0139 43.3825C77.6324 43.1536 77.0829 42.8286 76.4062 42.4313C75.0519 41.636 73.1794 40.5455 71.1036 39.3419C67.1785 37.066 62.5216 34.3825 59.2586 32.5206L59.2062 18.1625L59.2041 17.5911L58.7092 17.3055L52.2508 13.5795ZM59.267 34.814L59.3549 58.8922L77.0946 58.6676V58.6545V58.6186V58.5825V58.5463V58.5101V58.4738V58.4374V58.4009V58.3644V58.3277V58.291V58.2542V58.2174V58.1805V58.1434V58.1064V58.0692V58.032V57.9947V57.9573V57.9198V57.8823V57.8447V57.8071V57.7694V57.7316V57.6937V57.6558V57.6178V57.5798V57.5417V57.5035V57.4653V57.427V57.3886V57.3502V57.3117V57.2732V57.2346V57.1959V57.1572V57.1185V57.0796V57.0408V57.0018V56.9629V56.9238V56.8847V56.8456V56.8064V56.7672V56.7279V56.6886V56.6492V56.6098V56.5703V56.5308V56.4912V56.4516V56.412V56.3723V56.3325V56.2928V56.2529V56.2131V56.1732V56.1333V56.0933V56.0533V56.0132V55.9732V55.9331V55.8929V55.8527V55.8125V55.7723V55.732V55.6917V55.6513V55.611V55.5706V55.5302V55.4897V55.4492V55.4087V55.3682V55.3277V55.2871V55.2465V55.2059V55.1652V55.1245V55.0839V55.0432V55.0024V54.9617V54.9209V54.8802V54.8394V54.7986V54.7578V54.7169V54.6761V54.6352V54.5943V54.5535V54.5126V54.4717V54.4308V54.3898V54.3489V54.308V54.267V54.2261V54.1852V54.1442V54.1032V54.0623V54.0213V53.9804V53.9394V53.8984V53.8575V53.8165V53.7755V53.7346V53.6936V53.6527V53.6117V53.5708V53.5299V53.489V53.448V53.4071V53.3662V53.3253V53.2845V53.2436V53.2027V53.1619V53.1211V53.0803V53.0395V52.9987V52.9579V52.9172V52.8764V52.8357V52.795V52.7543V52.7137V52.6731V52.6324V52.5919V52.5513V52.5107V52.4702V52.4297V52.3893V52.3488V52.3084V52.268V52.2277V52.1873V52.147V52.1068V52.0666V52.0264V51.9862V51.946V51.9059V51.8659V51.8259V51.7859V51.7459V51.706V51.6661V51.6263V51.5865V51.5467V51.507V51.4673V51.4277V51.3881V51.3485V51.3091V51.2696V51.2302V51.1908V51.1515V51.1122V51.073V51.0339V50.9948V50.9557V50.9167V50.8777V50.8388V50.8V50.7612V50.7224V50.6837V50.6451V50.6065V50.568V50.5296V50.4912V50.4528V50.4146V50.3763V50.3382V50.3001V50.2621V50.2241V50.1862V50.1484V50.1106V50.0729V50.0353V49.9978V49.9603V49.9228V49.8855V49.8482V49.811V49.7739V49.7368V49.6999V49.6629V49.6261V49.5894V49.5527V49.5161V49.4796V49.4431V49.4067V49.3705V49.3343V49.2981V49.2621V49.2262V49.1903V49.1545V49.1188V49.0832V49.0477V49.0122V48.9769V48.9416V48.9064V48.8714V48.8364V48.8015V48.7667V48.7319V48.6973V48.6628V48.6284V48.594V48.5598V48.5257V48.4916V48.4577V48.4238V48.3901V48.3564V48.3229V48.2895V48.2561V48.2229V48.1898V48.1568V48.1238V48.091V48.0583V48.0257V47.9932V47.9609V47.9286V47.8964V47.8644V47.8325V47.8006V47.7689V47.7373V47.7059V47.6745V47.6432V47.6121V47.5811V47.5502V47.5194V47.4888V47.4583V47.4278V47.3975V47.3674V47.3373V47.3074V47.2776V47.2479V47.2184V47.189V47.1597V47.1305V47.1015V47.0726V47.0438V47.0152V46.9867V46.9583V46.93V46.9019V46.8739V46.8461V46.8184V46.7908V46.7634V46.7361V46.7089V46.6819V46.655V46.6283V46.6017V46.5752V46.5489V46.5228V46.4967V46.4709V46.4451V46.4195V46.3941V46.3688V46.3437V46.3187V46.2938V46.2691V46.2446V46.2202V46.196V46.1719V46.1479V46.1242V46.1005V46.0771V46.0538V46.0306V46.0076V45.9848V45.9621V45.9396V45.9173V45.8951V45.873V45.8512V45.8295V45.8079V45.7866V45.7654V45.7443V45.7234V45.7027V45.6822V45.6618V45.6416V45.6216V45.6018V45.5821V45.5626V45.5432V45.5241V45.5051V45.4863V45.4677V45.4492V45.4309V45.4128V45.3949V45.3772V45.3596V45.3422V45.325V45.308V45.2912V45.2745V45.2581V45.2418V45.2257V45.2098V45.1941V45.1786V45.1632V45.1485L76.9913 45.0864C76.6182 44.8625 76.0752 44.5414 75.3999 44.1449C74.0503 43.3523 72.1813 42.2639 70.1068 41.061C66.5674 39.0087 62.4338 36.6255 59.267 34.814ZM59.4484 84.5215L59.3621 60.8794L77.0909 60.655V74.472L59.4484 84.5215ZM90.014 37.6209L71.8115 27.1544C71.4076 27.4386 70.9152 27.6054 70.3839 27.6054C69.012 27.6054 67.8999 26.4933 67.8999 25.1214C67.8999 23.7496 69.012 22.6374 70.3839 22.6374C71.7557 22.6374 72.8678 23.7496 72.8678 25.1214C72.8678 25.2351 72.8602 25.347 72.8454 25.4566L91.4998 36.1829L91.9949 36.4676L91.9981 37.0388L92.2465 82.2474L92.2496 82.8209L91.7545 83.1105L52.2591 106.212L51.7445 106.513L51.2367 106.2L44.7784 102.226L44.3055 101.935V101.38V87.0537C40.9681 85.1549 36.2791 82.4547 32.3502 80.1799C30.2848 78.984 28.4282 77.905 27.0875 77.1211C26.4175 76.7293 25.8747 76.4104 25.4987 76.1871C25.3113 76.0758 25.1622 75.9865 25.0586 75.9232C25.0078 75.8922 24.962 75.8638 24.9263 75.8407C24.9104 75.8304 24.8851 75.8139 24.8594 75.7955C24.8493 75.7883 24.8197 75.7671 24.7856 75.7381C24.7713 75.726 24.7305 75.6909 24.685 75.6397C24.661 75.6117 24.6049 75.5368 24.5744 75.4888C24.5293 75.4045 24.4485 75.1502 24.4336 74.9788L24.4335 74.6794L24.4316 63.2925C24.4307 56.8334 24.4297 49.1141 24.4297 44.0453V43.4589L24.943 43.1755L44.8188 32.2001L46.2927 31.3862V33.0699V100.824L51.7704 104.195L90.2562 81.6848L90.014 37.6209ZM44.3055 84.7666V34.7536L26.4169 44.6317C26.417 49.6961 26.4179 57.0774 26.4188 63.2922L26.4207 74.4234L26.5132 74.4784C26.8834 74.6982 27.4216 75.0145 28.0905 75.4056C29.4279 76.1875 31.2818 77.265 33.346 78.4602C36.9007 80.5184 41.0755 82.9235 44.3055 84.7666Z" fill="url(#paint4_linear_542_1661)"/>
</g>
</g>
</g>
<mask id="mask1_542_1661" style="mask-type:alpha" maskUnits="userSpaceOnUse" x="51" y="29" width="53" height="91">
<path d="M51.7383 119.488V59.8727L103.405 29.8164V89.6805L51.7383 119.488Z" fill="url(#paint5_linear_542_1661)"/>
</mask>
<g mask="url(#mask1_542_1661)">
<g opacity="0.8" filter="url(#filter1_i_542_1661)">
<path fill-rule="evenodd" clip-rule="evenodd" d="M52.2781 13.5913L51.7916 13.3105L51.3002 13.5827L11.7427 35.4927L11.2266 35.7785L11.2305 36.3685L11.541 82.7682L11.5448 83.3325L12.0313 83.6183L30.2036 94.2945C30.1837 94.4214 30.1733 94.5515 30.1733 94.6839C30.1733 96.0558 31.2854 97.1679 32.6573 97.1679C34.0292 97.1679 35.1413 96.0558 35.1413 94.6839C35.1413 93.3121 34.0292 92.1999 32.6573 92.1999C32.1459 92.1999 31.6705 92.3545 31.2754 92.6195L13.5244 82.1907L13.2216 36.9452L51.7716 15.5932L57.2485 18.7529L57.4948 86.2428L57.501 87.9451L58.9802 87.1025L78.6037 75.9246L79.1055 75.6387V75.0612V60.4057H79.1091V60.375V60.3441V60.3132V60.2821V60.251V60.2197V60.1883V60.1567V60.1251V60.0934V60.0615V60.0295V59.9974V59.9652V59.9329V59.9005V59.868V59.8353V59.8026V59.7697V59.7368V59.7037V59.6706V59.6373V59.6039V59.5704V59.5368V59.5032V59.4694V59.4355V59.4015V59.3674V59.3333V59.299V59.2646V59.2302V59.1956V59.1609V59.1262V59.0914V59.0564V59.0214V58.9863V58.9511V58.9158V58.8804V58.8449V58.8094V58.7737V58.738V58.7022V58.6663V58.6303V58.5942V58.5581V58.5218V58.4855V58.4491V58.4126V58.3761V58.3395V58.3028V58.266V58.2291V58.1922V58.1552V58.1181V58.0809V58.0437V58.0064V57.969V57.9316V57.8941V57.8565V57.8188V57.7811V57.7433V57.7055V57.6675V57.6296V57.5915V57.5534V57.5152V57.477V57.4387V57.4003V57.3619V57.3234V57.2849V57.2463V57.2076V57.1689V57.1302V57.0914V57.0525V57.0136V56.9746V56.9355V56.8965V56.8573V56.8181V56.7789V56.7396V56.7003V56.6609V56.6215V56.582V56.5425V56.5029V56.4633V56.4237V56.384V56.3443V56.3045V56.2647V56.2248V56.1849V56.145V56.105V56.065V56.025V55.9849V55.9448V55.9046V55.8644V55.8242V55.784V55.7437V55.7034V55.6631V55.6227V55.5823V55.5419V55.5014V55.461V55.4204V55.3799V55.3394V55.2988V55.2582V55.2176V55.1769V55.1363V55.0956V55.0549V55.0142V54.9734V54.9327V54.8919V54.8511V54.8103V54.7695V54.7286V54.6878V54.6469V54.6061V54.5652V54.5243V54.4834V54.4425V54.4016V54.3606V54.3197V54.2788V54.2378V54.1969V54.1559V54.115V54.074V54.033V53.9921V53.9511V53.9101V53.8692V53.8282V53.7873V53.7463V53.7054V53.6644V53.6235V53.5825V53.5416V53.5007V53.4598V53.4188V53.378V53.3371V53.2962V53.2553V53.2145V53.1736V53.1328V53.092V53.0512V53.0104V52.9696V52.9289V52.8881V52.8474V52.8067V52.7661V52.7254V52.6848V52.6442V52.6036V52.563V52.5225V52.4819V52.4415V52.401V52.3605V52.3201V52.2797V52.2394V52.1991V52.1588V52.1185V52.0783V52.0381V51.9979V51.9578V51.9177V51.8776V51.8376V51.7976V51.7576V51.7177V51.6778V51.638V51.5982V51.5584V51.5187V51.479V51.4394V51.3998V51.3603V51.3208V51.2813V51.2419V51.2025V51.1632V51.124V51.0848V51.0456V51.0065V50.9674V50.9284V50.8894V50.8505V50.8117V50.7729V50.7341V50.6954V50.6568V50.6182V50.5797V50.5413V50.5029V50.4645V50.4263V50.3881V50.3499V50.3118V50.2738V50.2358V50.1979V50.1601V50.1224V50.0847V50.047V50.0095V49.972V49.9346V49.8972V49.8599V49.8227V49.7856V49.7486V49.7116V49.6747V49.6378V49.6011V49.5644V49.5278V49.4913V49.4548V49.4185V49.3822V49.346V49.3099V49.2738V49.2379V49.202V49.1662V49.1305V49.0949V49.0594V49.0239V48.9886V48.9533V48.9182V48.8831V48.8481V48.8132V48.7784V48.7437V48.709V48.6745V48.6401V48.6058V48.5715V48.5374V48.5033V48.4694V48.4356V48.4018V48.3682V48.3346V48.3012V48.2679V48.2346V48.2015V48.1685V48.1356V48.1027V48.07V48.0374V48.005V47.9726V47.9403V47.9082V47.8761V47.8442V47.8124V47.7807V47.7491V47.7176V47.6862V47.655V47.6238V47.5928V47.5619V47.5312V47.5005V47.47V47.4396V47.4093V47.3791V47.3491V47.3191V47.2893V47.2597V47.2301V47.2007V47.1714V47.1422V47.1132V47.0843V47.0555V47.0269V46.9984V46.97V46.9417V46.9136V46.8857V46.8578V46.8301V46.8025V46.7751V46.7478V46.7206V46.6936V46.6667V46.64V46.6134V46.587V46.5606V46.5345V46.5085V46.4826V46.4568V46.4313V46.4058V46.3805V46.3554V46.3304V46.3055V46.2808V46.2563V46.2319V46.2077V46.1836V46.1597V46.1359V46.1123V46.0888V46.0655V46.0423V46.0193V45.9965V45.9738V45.9513V45.929V45.9068V45.8848V45.8629V45.8412V45.8197V45.7983V45.7771V45.756V45.7352V45.7145V45.6939V45.6736V45.6534V45.6333V45.6135V45.5938V45.5743V45.555V45.5358V45.5168V45.498V45.4794V45.4609V45.4426V45.4245V45.4066V45.3889V45.3713V45.3539V45.3367V45.3197V45.3029V45.2862V45.2698V45.2535V45.2374V45.2215V45.2058V45.1903V45.1749V45.1598V45.1448V45.1301V45.1155V45.1011V45.0869V45.0729V45.0591V45.0455V45.0321V45.0189V45.0059V44.993V44.9804V44.968V44.9558V44.9438V44.9319V44.9203V44.9089V44.8977V44.8867V44.8759V44.8653V44.8549V44.8447V44.8348V44.825V44.8155V44.8061V44.797V44.7881V44.7793V44.7708V44.7626V44.7545V44.7466V44.739V44.7316V44.7244V44.7174V44.7106V44.7041V44.6977V44.6916V44.6857V44.6801V44.6746V44.6694V44.6644V44.6596V44.6551V44.6508V44.6467V44.6428V44.6392V44.6357V44.6326V44.6296V44.6269V44.6244V44.6221V44.6201V44.6183V44.6168V44.6155V44.6144V44.6135V44.6129C79.1091 44.2832 78.9439 44.0614 78.9214 44.0312L78.9195 44.0286C78.872 43.963 78.8267 43.9177 78.8077 43.8991C78.7658 43.8581 78.7285 43.829 78.7152 43.8187C78.6825 43.7932 78.6512 43.7718 78.6335 43.7598C78.5931 43.7325 78.5432 43.7007 78.4911 43.6681C78.3839 43.6011 78.2311 43.5082 78.0412 43.3942C77.6598 43.1653 77.1102 42.8403 76.4335 42.443C75.0793 41.6477 73.2067 40.5572 71.1309 39.3536C67.2059 37.0777 62.5489 34.3942 59.286 32.5323L59.2336 18.1742L59.2315 17.6028L58.7365 17.3172L52.2781 13.5913ZM59.2943 34.8258L59.3822 58.9039L77.1219 58.6793V58.6663V58.6303V58.5942V58.5581V58.5218V58.4855V58.4491V58.4126V58.3761V58.3395V58.3028V58.266V58.2291V58.1922V58.1552V58.1181V58.0809V58.0437V58.0064V57.969V57.9316V57.8941V57.8565V57.8188V57.7811V57.7433V57.7055V57.6675V57.6296V57.5915V57.5534V57.5152V57.477V57.4387V57.4003V57.3619V57.3234V57.2849V57.2463V57.2076V57.1689V57.1302V57.0914V57.0525V57.0136V56.9746V56.9355V56.8965V56.8573V56.8181V56.7789V56.7396V56.7003V56.6609V56.6215V56.582V56.5425V56.5029V56.4633V56.4237V56.384V56.3443V56.3045V56.2647V56.2248V56.1849V56.145V56.105V56.065V56.025V55.9849V55.9448V55.9046V55.8644V55.8242V55.784V55.7437V55.7034V55.6631V55.6227V55.5823V55.5419V55.5014V55.461V55.4204V55.3799V55.3394V55.2988V55.2582V55.2176V55.1769V55.1363V55.0956V55.0549V55.0142V54.9734V54.9327V54.8919V54.8511V54.8103V54.7695V54.7286V54.6878V54.6469V54.6061V54.5652V54.5243V54.4834V54.4425V54.4016V54.3606V54.3197V54.2788V54.2378V54.1969V54.1559V54.115V54.074V54.033V53.9921V53.9511V53.9101V53.8692V53.8282V53.7873V53.7463V53.7054V53.6644V53.6235V53.5825V53.5416V53.5007V53.4598V53.4188V53.378V53.3371V53.2962V53.2553V53.2145V53.1736V53.1328V53.092V53.0512V53.0104V52.9696V52.9289V52.8881V52.8474V52.8067V52.7661V52.7254V52.6848V52.6442V52.6036V52.563V52.5225V52.4819V52.4415V52.401V52.3605V52.3201V52.2797V52.2394V52.1991V52.1588V52.1185V52.0783V52.0381V51.9979V51.9578V51.9177V51.8776V51.8376V51.7976V51.7576V51.7177V51.6778V51.638V51.5982V51.5584V51.5187V51.479V51.4394V51.3998V51.3603V51.3208V51.2813V51.2419V51.2025V51.1632V51.124V51.0848V51.0456V51.0065V50.9674V50.9284V50.8894V50.8505V50.8117V50.7729V50.7341V50.6954V50.6568V50.6182V50.5797V50.5413V50.5029V50.4645V50.4263V50.3881V50.3499V50.3118V50.2738V50.2358V50.1979V50.1601V50.1224V50.0847V50.047V50.0095V49.972V49.9346V49.8972V49.8599V49.8227V49.7856V49.7486V49.7116V49.6747V49.6378V49.6011V49.5644V49.5278V49.4913V49.4548V49.4185V49.3822V49.346V49.3099V49.2738V49.2379V49.202V49.1662V49.1305V49.0949V49.0594V49.0239V48.9886V48.9533V48.9182V48.8831V48.8481V48.8132V48.7784V48.7437V48.709V48.6745V48.6401V48.6058V48.5715V48.5374V48.5033V48.4694V48.4356V48.4018V48.3682V48.3346V48.3012V48.2679V48.2346V48.2015V48.1685V48.1356V48.1027V48.07V48.0374V48.005V47.9726V47.9403V47.9082V47.8761V47.8442V47.8124V47.7807V47.7491V47.7176V47.6862V47.655V47.6238V47.5928V47.5619V47.5312V47.5005V47.47V47.4396V47.4093V47.3791V47.3491V47.3191V47.2893V47.2597V47.2301V47.2007V47.1714V47.1422V47.1132V47.0843V47.0555V47.0269V46.9984V46.97V46.9417V46.9136V46.8857V46.8578V46.8301V46.8025V46.7751V46.7478V46.7206V46.6936V46.6667V46.64V46.6134V46.587V46.5606V46.5345V46.5085V46.4826V46.4568V46.4313V46.4058V46.3805V46.3554V46.3304V46.3055V46.2808V46.2563V46.2319V46.2077V46.1836V46.1597V46.1359V46.1123V46.0888V46.0655V46.0423V46.0193V45.9965V45.9738V45.9513V45.929V45.9068V45.8848V45.8629V45.8412V45.8197V45.7983V45.7771V45.756V45.7352V45.7145V45.6939V45.6736V45.6534V45.6333V45.6135V45.5938V45.5743V45.555V45.5358V45.5168V45.498V45.4794V45.4609V45.4426V45.4245V45.4066V45.3889V45.3713V45.3539V45.3367V45.3197V45.3029V45.2862V45.2698V45.2535V45.2374V45.2215V45.2058V45.1903V45.1749V45.1603L77.0187 45.0981C76.6455 44.8742 76.1026 44.5531 75.4273 44.1566C74.0776 43.364 72.2086 42.2756 70.1341 41.0727C66.5947 39.0204 62.4611 36.6373 59.2943 34.8258ZM59.4757 84.5333L59.3895 60.8912L77.1183 60.6667V74.4837L59.4757 84.5333ZM90.0414 37.6326L71.8381 27.1657C71.4343 27.4495 70.9422 27.6162 70.4112 27.6162C69.0393 27.6162 67.9272 26.504 67.9272 25.1322C67.9272 23.7603 69.0393 22.6482 70.4112 22.6482C71.7831 22.6482 72.8952 23.7603 72.8952 25.1322C72.8952 25.2462 72.8875 25.3584 72.8726 25.4683L91.5271 36.1946L92.0223 36.4793L92.0254 37.0505L92.2738 82.2591L92.277 82.8327L91.7819 83.1222L52.2865 106.223L51.7718 106.524L51.2641 106.212L44.8057 102.237L44.3328 101.947V101.391V87.0655C40.9955 85.1666 36.3064 82.4665 32.3776 80.1917C30.3121 78.9958 28.4556 77.9167 27.1149 77.1328C26.4448 76.741 25.9021 76.4221 25.5261 76.1988C25.3386 76.0875 25.1895 75.9982 25.0859 75.9349C25.0352 75.9039 24.9894 75.8755 24.9537 75.8524C24.9377 75.8421 24.9125 75.8257 24.8867 75.8072C24.8766 75.8001 24.847 75.7788 24.8129 75.7498C24.7987 75.7377 24.7578 75.7026 24.7124 75.6515C24.6883 75.6234 24.6323 75.5485 24.6017 75.5005C24.5567 75.4162 24.4758 75.1619 24.4609 74.9905L24.4609 74.6911L24.459 63.3043C24.458 56.8451 24.4571 49.1258 24.4571 44.057V43.4707L24.9703 43.1872L44.8461 32.2118L46.32 31.3979V33.0816V100.836L51.7978 104.207L90.2835 81.6965L90.0414 37.6326ZM44.3328 84.7783V34.7653L26.4442 44.6434C26.4443 49.7078 26.4452 57.0891 26.4462 63.304L26.448 74.4351L26.5406 74.4901C26.9107 74.7099 27.4489 75.0262 28.1179 75.4173C29.4552 76.1993 31.3091 77.2767 33.3733 78.4719C36.928 80.5301 41.1028 82.9352 44.3328 84.7783Z" fill="url(#paint6_linear_542_1661)"/>
</g>
</g>
<mask id="mask2_542_1661" style="mask-type:alpha" maskUnits="userSpaceOnUse" x="0" y="29" width="52" height="91">
<path d="M51.7109 119.488V59.8727L0.0439606 29.8164V89.6805L51.7109 119.488Z" fill="url(#paint7_linear_542_1661)"/>
</mask>
<g mask="url(#mask2_542_1661)">
<g opacity="0.8">
<g filter="url(#filter2_i_542_1661)">
<path fill-rule="evenodd" clip-rule="evenodd" d="M52.243 13.5913L51.7564 13.3105L51.265 13.5827L11.7075 35.4927L11.1914 35.7785L11.1954 36.3685L11.5059 82.7682L11.5096 83.3325L11.9961 83.6183L30.1685 94.2945C30.1485 94.4214 30.1381 94.5515 30.1381 94.6839C30.1381 96.0558 31.2503 97.1679 32.6221 97.1679C33.994 97.1679 35.1061 96.0558 35.1061 94.6839C35.1061 93.3121 33.994 92.1999 32.6221 92.1999C32.1107 92.1999 31.6354 92.3545 31.2403 92.6195L13.4892 82.1907L13.1864 36.9452L51.7365 15.5932L57.2133 18.7529L57.4596 86.2428L57.4658 87.9451L58.945 87.1025L78.5685 75.9246L79.0703 75.6387V75.0612V60.4057H79.074V60.375V60.3441V60.3132V60.2821V60.251V60.2197V60.1883V60.1567V60.1251V60.0934V60.0615V60.0295V59.9974V59.9652V59.9329V59.9005V59.868V59.8353V59.8026V59.7697V59.7368V59.7037V59.6706V59.6373V59.6039V59.5704V59.5368V59.5032V59.4694V59.4355V59.4015V59.3674V59.3333V59.299V59.2646V59.2302V59.1956V59.1609V59.1262V59.0914V59.0564V59.0214V58.9863V58.9511V58.9158V58.8804V58.8449V58.8094V58.7737V58.738V58.7022V58.6663V58.6303V58.5942V58.5581V58.5218V58.4855V58.4491V58.4126V58.3761V58.3395V58.3028V58.266V58.2291V58.1922V58.1552V58.1181V58.0809V58.0437V58.0064V57.969V57.9316V57.8941V57.8565V57.8188V57.7811V57.7433V57.7055V57.6675V57.6296V57.5915V57.5534V57.5152V57.477V57.4387V57.4003V57.3619V57.3234V57.2849V57.2463V57.2076V57.1689V57.1302V57.0914V57.0525V57.0136V56.9746V56.9355V56.8965V56.8573V56.8181V56.7789V56.7396V56.7003V56.6609V56.6215V56.582V56.5425V56.5029V56.4633V56.4237V56.384V56.3443V56.3045V56.2647V56.2248V56.1849V56.145V56.105V56.065V56.025V55.9849V55.9448V55.9046V55.8644V55.8242V55.784V55.7437V55.7034V55.6631V55.6227V55.5823V55.5419V55.5014V55.461V55.4204V55.3799V55.3394V55.2988V55.2582V55.2176V55.1769V55.1363V55.0956V55.0549V55.0142V54.9734V54.9327V54.8919V54.8511V54.8103V54.7695V54.7286V54.6878V54.6469V54.6061V54.5652V54.5243V54.4834V54.4425V54.4016V54.3606V54.3197V54.2788V54.2378V54.1969V54.1559V54.115V54.074V54.033V53.9921V53.9511V53.9101V53.8692V53.8282V53.7873V53.7463V53.7054V53.6644V53.6235V53.5825V53.5416V53.5007V53.4598V53.4188V53.378V53.3371V53.2962V53.2553V53.2145V53.1736V53.1328V53.092V53.0512V53.0104V52.9696V52.9289V52.8881V52.8474V52.8067V52.7661V52.7254V52.6848V52.6442V52.6036V52.563V52.5225V52.4819V52.4415V52.401V52.3605V52.3201V52.2797V52.2394V52.1991V52.1588V52.1185V52.0783V52.0381V51.9979V51.9578V51.9177V51.8776V51.8376V51.7976V51.7576V51.7177V51.6778V51.638V51.5982V51.5584V51.5187V51.479V51.4394V51.3998V51.3603V51.3208V51.2813V51.2419V51.2025V51.1632V51.124V51.0848V51.0456V51.0065V50.9674V50.9284V50.8894V50.8505V50.8117V50.7729V50.7341V50.6954V50.6568V50.6182V50.5797V50.5413V50.5029V50.4645V50.4263V50.3881V50.3499V50.3118V50.2738V50.2358V50.1979V50.1601V50.1224V50.0847V50.047V50.0095V49.972V49.9346V49.8972V49.8599V49.8227V49.7856V49.7486V49.7116V49.6747V49.6378V49.6011V49.5644V49.5278V49.4913V49.4548V49.4185V49.3822V49.346V49.3099V49.2738V49.2379V49.202V49.1662V49.1305V49.0949V49.0594V49.0239V48.9886V48.9533V48.9182V48.8831V48.8481V48.8132V48.7784V48.7437V48.709V48.6745V48.6401V48.6058V48.5715V48.5374V48.5033V48.4694V48.4356V48.4018V48.3682V48.3346V48.3012V48.2679V48.2346V48.2015V48.1685V48.1356V48.1027V48.07V48.0374V48.005V47.9726V47.9403V47.9082V47.8761V47.8442V47.8124V47.7807V47.7491V47.7176V47.6862V47.655V47.6238V47.5928V47.5619V47.5312V47.5005V47.47V47.4396V47.4093V47.3791V47.3491V47.3191V47.2893V47.2597V47.2301V47.2007V47.1714V47.1422V47.1132V47.0843V47.0555V47.0269V46.9984V46.97V46.9417V46.9136V46.8857V46.8578V46.8301V46.8025V46.7751V46.7478V46.7206V46.6936V46.6667V46.64V46.6134V46.587V46.5606V46.5345V46.5085V46.4826V46.4568V46.4313V46.4058V46.3805V46.3554V46.3304V46.3055V46.2808V46.2563V46.2319V46.2077V46.1836V46.1597V46.1359V46.1123V46.0888V46.0655V46.0423V46.0193V45.9965V45.9738V45.9513V45.929V45.9068V45.8848V45.8629V45.8412V45.8197V45.7983V45.7771V45.756V45.7352V45.7145V45.6939V45.6736V45.6534V45.6333V45.6135V45.5938V45.5743V45.555V45.5358V45.5168V45.498V45.4794V45.4609V45.4426V45.4245V45.4066V45.3889V45.3713V45.3539V45.3367V45.3197V45.3029V45.2862V45.2698V45.2535V45.2374V45.2215V45.2058V45.1903V45.1749V45.1598V45.1448V45.1301V45.1155V45.1011V45.0869V45.0729V45.0591V45.0455V45.0321V45.0189V45.0059V44.993V44.9804V44.968V44.9558V44.9438V44.9319V44.9203V44.9089V44.8977V44.8867V44.8759V44.8653V44.8549V44.8447V44.8348V44.825V44.8155V44.8061V44.797V44.7881V44.7793V44.7708V44.7626V44.7545V44.7466V44.739V44.7316V44.7244V44.7174V44.7106V44.7041V44.6977V44.6916V44.6857V44.6801V44.6746V44.6694V44.6644V44.6596V44.6551V44.6508V44.6467V44.6428V44.6392V44.6357V44.6326V44.6296V44.6269V44.6244V44.6221V44.6201V44.6183V44.6168V44.6155V44.6144V44.6135V44.6129C79.074 44.2832 78.9087 44.0614 78.8863 44.0312L78.8844 44.0286C78.8368 43.963 78.7916 43.9177 78.7726 43.8991C78.7306 43.8581 78.6934 43.829 78.6801 43.8187C78.6473 43.7932 78.6161 43.7718 78.5983 43.7598C78.5579 43.7325 78.5081 43.7007 78.456 43.6681C78.3487 43.6011 78.196 43.5082 78.0061 43.3942C77.6246 43.1653 77.075 42.8403 76.3984 42.443C75.0441 41.6477 73.1716 40.5572 71.0958 39.3536C67.1707 37.0777 62.5138 34.3942 59.2508 32.5323L59.1984 18.1742L59.1963 17.6028L58.7013 17.3172L52.243 13.5913ZM59.2592 34.8258L59.3471 58.9039L77.0868 58.6793V58.6663V58.6303V58.5942V58.5581V58.5218V58.4855V58.4491V58.4126V58.3761V58.3395V58.3028V58.266V58.2291V58.1922V58.1552V58.1181V58.0809V58.0437V58.0064V57.969V57.9316V57.8941V57.8565V57.8188V57.7811V57.7433V57.7055V57.6675V57.6296V57.5915V57.5534V57.5152V57.477V57.4387V57.4003V57.3619V57.3234V57.2849V57.2463V57.2076V57.1689V57.1302V57.0914V57.0525V57.0136V56.9746V56.9355V56.8965V56.8573V56.8181V56.7789V56.7396V56.7003V56.6609V56.6215V56.582V56.5425V56.5029V56.4633V56.4237V56.384V56.3443V56.3045V56.2647V56.2248V56.1849V56.145V56.105V56.065V56.025V55.9849V55.9448V55.9046V55.8644V55.8242V55.784V55.7437V55.7034V55.6631V55.6227V55.5823V55.5419V55.5014V55.461V55.4204V55.3799V55.3394V55.2988V55.2582V55.2176V55.1769V55.1363V55.0956V55.0549V55.0142V54.9734V54.9327V54.8919V54.8511V54.8103V54.7695V54.7286V54.6878V54.6469V54.6061V54.5652V54.5243V54.4834V54.4425V54.4016V54.3606V54.3197V54.2788V54.2378V54.1969V54.1559V54.115V54.074V54.033V53.9921V53.9511V53.9101V53.8692V53.8282V53.7873V53.7463V53.7054V53.6644V53.6235V53.5825V53.5416V53.5007V53.4598V53.4188V53.378V53.3371V53.2962V53.2553V53.2145V53.1736V53.1328V53.092V53.0512V53.0104V52.9696V52.9289V52.8881V52.8474V52.8067V52.7661V52.7254V52.6848V52.6442V52.6036V52.563V52.5225V52.4819V52.4415V52.401V52.3605V52.3201V52.2797V52.2394V52.1991V52.1588V52.1185V52.0783V52.0381V51.9979V51.9578V51.9177V51.8776V51.8376V51.7976V51.7576V51.7177V51.6778V51.638V51.5982V51.5584V51.5187V51.479V51.4394V51.3998V51.3603V51.3208V51.2813V51.2419V51.2025V51.1632V51.124V51.0848V51.0456V51.0065V50.9674V50.9284V50.8894V50.8505V50.8117V50.7729V50.7341V50.6954V50.6568V50.6182V50.5797V50.5413V50.5029V50.4645V50.4263V50.3881V50.3499V50.3118V50.2738V50.2358V50.1979V50.1601V50.1224V50.0847V50.047V50.0095V49.972V49.9346V49.8972V49.8599V49.8227V49.7856V49.7486V49.7116V49.6747V49.6378V49.6011V49.5644V49.5278V49.4913V49.4548V49.4185V49.3822V49.346V49.3099V49.2738V49.2379V49.202V49.1662V49.1305V49.0949V49.0594V49.0239V48.9886V48.9533V48.9182V48.8831V48.8481V48.8132V48.7784V48.7437V48.709V48.6745V48.6401V48.6058V48.5715V48.5374V48.5033V48.4694V48.4356V48.4018V48.3682V48.3346V48.3012V48.2679V48.2346V48.2015V48.1685V48.1356V48.1027V48.07V48.0374V48.005V47.9726V47.9403V47.9082V47.8761V47.8442V47.8124V47.7807V47.7491V47.7176V47.6862V47.655V47.6238V47.5928V47.5619V47.5312V47.5005V47.47V47.4396V47.4093V47.3791V47.3491V47.3191V47.2893V47.2597V47.2301V47.2007V47.1714V47.1422V47.1132V47.0843V47.0555V47.0269V46.9984V46.97V46.9417V46.9136V46.8857V46.8578V46.8301V46.8025V46.7751V46.7478V46.7206V46.6936V46.6667V46.64V46.6134V46.587V46.5606V46.5345V46.5085V46.4826V46.4568V46.4313V46.4058V46.3805V46.3554V46.3304V46.3055V46.2808V46.2563V46.2319V46.2077V46.1836V46.1597V46.1359V46.1123V46.0888V46.0655V46.0423V46.0193V45.9965V45.9738V45.9513V45.929V45.9068V45.8848V45.8629V45.8412V45.8197V45.7983V45.7771V45.756V45.7352V45.7145V45.6939V45.6736V45.6534V45.6333V45.6135V45.5938V45.5743V45.555V45.5358V45.5168V45.498V45.4794V45.4609V45.4426V45.4245V45.4066V45.3889V45.3713V45.3539V45.3367V45.3197V45.3029V45.2862V45.2698V45.2535V45.2374V45.2215V45.2058V45.1903V45.1749V45.1603L76.9835 45.0981C76.6104 44.8742 76.0674 44.5531 75.3921 44.1566C74.0424 43.364 72.1735 42.2756 70.0989 41.0727C66.5595 39.0204 62.426 36.6373 59.2592 34.8258ZM59.4406 84.5333L59.3543 60.8912L77.0831 60.6667V74.4837L59.4406 84.5333ZM90.0062 37.6326L71.8051 27.1669C71.4016 27.45 70.9102 27.6162 70.3799 27.6162C69.0081 27.6162 67.896 26.504 67.896 25.1322C67.896 23.7603 69.0081 22.6482 70.3799 22.6482C71.7518 22.6482 72.8639 23.7603 72.8639 25.1322C72.8639 25.2469 72.8562 25.3598 72.8411 25.4704L91.492 36.1946L91.9871 36.4793L91.9903 37.0505L92.2387 82.2591L92.2418 82.8327L91.7467 83.1222L52.2513 106.223L51.7367 106.524L51.2289 106.212L44.7705 102.237L44.2977 101.947V101.391V87.0655C40.9603 85.1666 36.2713 82.4665 32.3424 80.1917C30.277 78.9958 28.4204 77.9167 27.0797 77.1328C26.4097 76.741 25.8669 76.4221 25.4909 76.1988C25.3035 76.0875 25.1544 75.9982 25.0508 75.9349C25 75.9039 24.9542 75.8755 24.9185 75.8524C24.9026 75.8421 24.8773 75.8257 24.8515 75.8072C24.8415 75.8001 24.8119 75.7788 24.7777 75.7498C24.7635 75.7377 24.7227 75.7026 24.6772 75.6515C24.6532 75.6234 24.5971 75.5485 24.5665 75.5005C24.5215 75.4162 24.4407 75.1619 24.4258 74.9905L24.4257 74.6911L24.4238 63.3043C24.4229 56.8451 24.4219 49.1258 24.4219 44.057V43.4707L24.9352 43.1872L44.811 32.2118L46.2849 31.3979V33.0816V100.836L51.7626 104.207L90.2483 81.6965L90.0062 37.6326ZM44.2977 84.7783V34.7653L26.4091 44.6434C26.4092 49.7078 26.4101 57.0891 26.411 63.304L26.4129 74.4351L26.5054 74.4901C26.8756 74.7099 27.4138 75.0262 28.0827 75.4173C29.4201 76.1993 31.274 77.2767 33.3382 78.4719C36.8929 80.5301 41.0677 82.9352 44.2977 84.7783Z" fill="url(#paint8_linear_542_1661)"/>
</g>
</g>
</g>
<path d="M14.1497 131.061C14.1497 130.504 14.0774 130.012 13.9329 129.587C13.7883 129.162 13.588 128.806 13.332 128.521C13.0801 128.237 12.7807 128.022 12.4338 127.877C12.091 127.729 11.7214 127.654 11.325 127.654C10.9285 127.654 10.5568 127.729 10.2099 127.877C9.86716 128.022 9.56776 128.237 9.31171 128.521C9.0598 128.806 8.86157 129.162 8.71703 129.587C8.57249 130.012 8.50022 130.504 8.50022 131.061C8.50022 131.619 8.57249 132.11 8.71703 132.536C8.8657 132.957 9.066 133.31 9.31791 133.595C9.57395 133.88 9.87336 134.095 10.2161 134.239C10.563 134.384 10.9368 134.456 11.3373 134.456C11.7338 134.456 12.1013 134.384 12.44 134.239C12.7827 134.095 13.0801 133.88 13.332 133.595C13.588 133.31 13.7883 132.957 13.9329 132.536C14.0774 132.11 14.1497 131.619 14.1497 131.061ZM15.2152 131.061C15.2152 131.689 15.1243 132.265 14.9426 132.79C14.7609 133.314 14.5007 133.766 14.1621 134.146C13.8234 134.526 13.4146 134.823 12.9355 135.038C12.4606 135.249 11.9279 135.354 11.3373 135.354C10.7261 135.354 10.179 135.249 9.69578 135.038C9.2126 134.823 8.80376 134.526 8.46925 134.146C8.13474 133.766 7.8787 133.314 7.70112 132.79C7.52355 132.265 7.43476 131.689 7.43476 131.061C7.43476 130.429 7.52561 129.851 7.70732 129.327C7.89316 128.798 8.15333 128.344 8.48783 127.964C8.82647 127.584 9.23531 127.289 9.71436 127.078C10.1934 126.863 10.7303 126.756 11.325 126.756C11.932 126.756 12.4751 126.863 12.9541 127.078C13.4373 127.289 13.8461 127.584 14.1807 127.964C14.5152 128.344 14.7712 128.798 14.9488 129.327C15.1264 129.851 15.2152 130.429 15.2152 131.061ZM18.0213 131.767V135.199H17.0116V126.911H19.1611C19.5245 126.911 19.8322 126.925 20.0841 126.954C20.3401 126.979 20.5735 127.02 20.7841 127.078C21.3622 127.235 21.8041 127.503 22.1097 127.883C22.4153 128.259 22.5681 128.73 22.5681 129.296C22.5681 129.63 22.5144 129.93 22.4071 130.194C22.2997 130.458 22.149 130.687 21.9549 130.882C21.7608 131.076 21.5274 131.235 21.2549 131.359C20.9864 131.482 20.687 131.573 20.3567 131.631V131.656L23.0637 135.199H21.7938L19.2416 131.767H18.0213ZM18.0213 127.821V130.857H19.0186C19.3284 130.857 19.5927 130.846 19.8115 130.826C20.0304 130.805 20.2266 130.768 20.4 130.714C20.751 130.607 21.0215 130.436 21.2115 130.2C21.4015 129.965 21.4965 129.657 21.4965 129.277C21.4923 128.922 21.4015 128.637 21.2239 128.422C21.0463 128.203 20.8006 128.047 20.4867 127.952C20.3381 127.906 20.1605 127.873 19.954 127.852C19.7475 127.832 19.4853 127.821 19.1673 127.821H18.0213ZM28.6078 130.913C28.8639 130.95 29.0931 131.018 29.2954 131.117C29.5019 131.216 29.6774 131.344 29.822 131.501C29.9706 131.654 30.0842 131.838 30.1627 132.052C30.2411 132.263 30.2804 132.505 30.2804 132.777C30.2804 132.971 30.2515 133.176 30.1936 133.39C30.1358 133.601 30.0388 133.808 29.9025 134.01C29.7704 134.208 29.5948 134.392 29.376 134.561C29.1612 134.73 28.8928 134.869 28.5707 134.976C28.3229 135.059 28.0483 135.117 27.7468 135.15C27.4453 135.183 27.084 135.199 26.6627 135.199H24.5194V126.911H26.5884C26.7784 126.911 26.9498 126.915 27.1026 126.923C27.2595 126.927 27.402 126.936 27.53 126.948C27.6621 126.96 27.784 126.977 27.8955 126.998C28.007 127.014 28.1123 127.035 28.2114 127.06C28.4716 127.13 28.7069 127.227 28.9176 127.351C29.1323 127.47 29.314 127.615 29.4627 127.784C29.6114 127.954 29.7249 128.146 29.8034 128.36C29.886 128.575 29.9273 128.808 29.9273 129.06C29.9273 129.263 29.9025 129.457 29.8529 129.643C29.8075 129.829 29.7311 130 29.6237 130.157C29.5205 130.314 29.3842 130.454 29.2149 130.578C29.0497 130.702 28.8474 130.805 28.6078 130.888V130.913ZM27.0654 130.498C27.2636 130.498 27.435 130.489 27.5795 130.473C27.7241 130.452 27.8542 130.423 27.9698 130.386C28.2795 130.283 28.5046 130.122 28.645 129.903C28.7895 129.684 28.8618 129.426 28.8618 129.129C28.8618 128.823 28.7875 128.573 28.6388 128.379C28.4901 128.185 28.2568 128.04 27.9388 127.945C27.7819 127.9 27.6002 127.869 27.3937 127.852C27.1872 127.832 26.9436 127.821 26.6627 127.821H25.5291V130.498H27.0654ZM25.5291 131.408V134.289H26.7495C27.0385 134.289 27.307 134.276 27.5548 134.251C27.8025 134.223 28.0132 134.179 28.1866 134.121C28.3766 134.059 28.5376 133.981 28.6698 133.886C28.8019 133.787 28.9072 133.679 28.9857 133.564C29.0683 133.444 29.1261 133.318 29.1592 133.186C29.1963 133.054 29.2149 132.92 29.2149 132.783C29.2149 132.626 29.1963 132.48 29.1592 132.344C29.122 132.203 29.06 132.079 28.9733 131.972C28.8907 131.86 28.7792 131.763 28.6388 131.681C28.5025 131.598 28.3311 131.534 28.1247 131.489C28.0008 131.46 27.8583 131.439 27.6972 131.427C27.5403 131.414 27.3441 131.408 27.1087 131.408H25.5291ZM33.0617 134.289H37.3112V135.199H32.052V126.911H37.082V127.821H33.0617V130.498H36.636V131.408H33.0617V134.289ZM40.0616 134.289H44.3111V135.199H39.0519V126.911H44.0819V127.821H40.0616V130.498H43.6359V131.408H40.0616V134.289ZM50.4437 135.199H49.9791L47.8916 130.25C47.6025 129.568 47.3134 128.827 47.0243 128.026H46.9748C47.0326 129.178 47.0615 130.233 47.0615 131.191V135.199H46.0518V126.911H47.5075L49.4588 131.6C49.6818 132.137 49.9275 132.783 50.1959 133.539H50.2269C50.5243 132.701 50.77 132.054 50.9641 131.6L52.9154 126.911H54.3711V135.199H53.3614V131.191C53.3614 130.254 53.3903 129.199 53.4481 128.026H53.3985C53.0929 128.872 52.8039 129.614 52.5313 130.25L50.4437 135.199ZM56.5144 135.199V133.991H57.6976V135.199H56.5144ZM63.8674 127.654C63.409 127.654 62.9795 127.729 62.5789 127.877C62.1825 128.022 61.8376 128.241 61.5444 128.534C61.2512 128.823 61.0199 129.184 60.8506 129.618C60.6813 130.047 60.5967 130.549 60.5967 131.123C60.5967 131.693 60.6751 132.189 60.832 132.61C60.989 133.027 61.212 133.374 61.5011 133.651C61.7901 133.923 62.137 134.125 62.5418 134.258C62.9506 134.39 63.4049 134.456 63.9046 134.456C64.0408 134.456 64.1854 134.45 64.3382 134.437C64.491 134.421 64.6438 134.4 64.7966 134.375C64.9535 134.346 65.1042 134.315 65.2488 134.282C65.3975 134.245 65.5296 134.206 65.6452 134.165V135.057C65.4016 135.152 65.1187 135.224 64.7966 135.274C64.4745 135.327 64.1441 135.354 63.8054 135.354C63.1158 135.354 62.5046 135.259 61.9718 135.069C61.4391 134.875 60.991 134.598 60.6276 134.239C60.2683 133.88 59.9958 133.442 59.8099 132.926C59.6241 132.405 59.5312 131.817 59.5312 131.16C59.5312 130.516 59.6282 129.924 59.8223 129.383C60.0206 128.842 60.3034 128.377 60.671 127.989C61.0427 127.601 61.4907 127.299 62.0152 127.084C62.5438 126.865 63.1364 126.756 63.7931 126.756C63.9665 126.756 64.1379 126.764 64.3072 126.781C64.4765 126.793 64.6376 126.814 64.7904 126.843C64.9473 126.868 65.0919 126.898 65.224 126.936C65.3562 126.973 65.4697 127.012 65.5647 127.053V127.945C65.3169 127.863 65.0464 127.795 64.7532 127.741C64.46 127.683 64.1647 127.654 63.8674 127.654ZM70.5452 131.867V135.199H69.5354V131.867L66.5187 126.911H67.6213L70.0248 130.937H70.0558L72.4593 126.911H73.5619L70.5452 131.867ZM78.9574 130.913C79.2134 130.95 79.4426 131.018 79.645 131.117C79.8515 131.216 80.027 131.344 80.1715 131.501C80.3202 131.654 80.4338 131.838 80.5122 132.052C80.5907 132.263 80.6299 132.505 80.6299 132.777C80.6299 132.971 80.601 133.176 80.5432 133.39C80.4854 133.601 80.3883 133.808 80.2521 134.01C80.1199 134.208 79.9444 134.392 79.7255 134.561C79.5108 134.73 79.2423 134.869 78.9202 134.976C78.6724 135.059 78.3978 135.117 78.0963 135.15C77.7949 135.183 77.4335 135.199 77.0123 135.199H74.869V126.911H76.938C77.1279 126.911 77.2993 126.915 77.4521 126.923C77.609 126.927 77.7515 126.936 77.8795 126.948C78.0117 126.96 78.1335 126.977 78.245 126.998C78.3565 127.014 78.4618 127.035 78.5609 127.06C78.8211 127.13 79.0565 127.227 79.2671 127.351C79.4819 127.47 79.6636 127.615 79.8122 127.784C79.9609 127.954 80.0745 128.146 80.1529 128.36C80.2355 128.575 80.2768 128.808 80.2768 129.06C80.2768 129.263 80.2521 129.457 80.2025 129.643C80.1571 129.829 80.0807 130 79.9733 130.157C79.8701 130.314 79.7338 130.454 79.5645 130.578C79.3993 130.702 79.1969 130.805 78.9574 130.888V130.913ZM77.4149 130.498C77.6132 130.498 77.7845 130.489 77.9291 130.473C78.0736 130.452 78.2037 130.423 78.3193 130.386C78.6291 130.283 78.8541 130.122 78.9946 129.903C79.1391 129.684 79.2114 129.426 79.2114 129.129C79.2114 128.823 79.137 128.573 78.9884 128.379C78.8397 128.185 78.6064 128.04 78.2884 127.945C78.1314 127.9 77.9497 127.869 77.7433 127.852C77.5368 127.832 77.2931 127.821 77.0123 127.821H75.8787V130.498H77.4149ZM75.8787 131.408V134.289H77.099C77.3881 134.289 77.6565 134.276 77.9043 134.251C78.1521 134.223 78.3627 134.179 78.5362 134.121C78.7261 134.059 78.8872 133.981 79.0193 133.886C79.1515 133.787 79.2568 133.679 79.3353 133.564C79.4179 133.444 79.4757 133.318 79.5087 133.186C79.5459 133.054 79.5645 132.92 79.5645 132.783C79.5645 132.626 79.5459 132.48 79.5087 132.344C79.4715 132.203 79.4096 132.079 79.3229 131.972C79.2403 131.86 79.1288 131.763 78.9884 131.681C78.8521 131.598 78.6807 131.534 78.4742 131.489C78.3503 131.46 78.2078 131.439 78.0468 131.427C77.8899 131.414 77.6937 131.408 77.4583 131.408H75.8787ZM83.4113 134.289H87.6608V135.199H82.4016V126.911H87.4316V127.821H83.4113V130.498H86.9856V131.408H83.4113V134.289ZM90.4112 131.767V135.199H89.4015V126.911H91.551C91.9144 126.911 92.2221 126.925 92.474 126.954C92.73 126.979 92.9633 127.02 93.174 127.078C93.7521 127.235 94.194 127.503 94.4996 127.883C94.8052 128.259 94.958 128.73 94.958 129.296C94.958 129.63 94.9043 129.93 94.7969 130.194C94.6896 130.458 94.5388 130.687 94.3447 130.882C94.1506 131.076 93.9173 131.235 93.6447 131.359C93.3763 131.482 93.0769 131.573 92.7465 131.631V131.656L95.4536 135.199H94.1837L91.6315 131.767H90.4112ZM90.4112 127.821V130.857H91.4085C91.7182 130.857 91.9825 130.846 92.2014 130.826C92.4203 130.805 92.6164 130.768 92.7899 130.714C93.1409 130.607 93.4114 130.436 93.6014 130.2C93.7914 129.965 93.8863 129.657 93.8863 129.277C93.8822 128.922 93.7914 128.637 93.6138 128.422C93.4362 128.203 93.1905 128.047 92.8766 127.952C92.728 127.906 92.5504 127.873 92.3439 127.852C92.1374 127.832 91.8752 127.821 91.5572 127.821H90.4112Z" fill="white"/>
<defs>
<filter id="filter0_i_542_1661" x="11.1992" y="13.2988" width="81.4798" height="94.0709" filterUnits="userSpaceOnUse" color-interpolation-filters="sRGB">
<feFlood flood-opacity="0" result="BackgroundImageFix"/>
<feBlend mode="normal" in="SourceGraphic" in2="BackgroundImageFix" result="shape"/>
<feColorMatrix in="SourceAlpha" type="matrix" values="0 0 0 0 0 0 0 0 0 0 0 0 0 0 0 0 0 0 127 0" result="hardAlpha"/>
<feOffset dx="0.429012" dy="0.858024"/>
<feGaussianBlur stdDeviation="0.429012"/>
<feComposite in2="hardAlpha" operator="arithmetic" k2="-1" k3="1"/>
<feColorMatrix type="matrix" values="0 0 0 0 0 0 0 0 0 0 0 0 0 0 0 0 0 0 0.54 0"/>
<feBlend mode="normal" in2="shape" result="effect1_innerShadow_542_1661"/>
</filter>
<filter id="filter1_i_542_1661" x="11.2266" y="13.3105" width="81.2653" height="93.2129" filterUnits="userSpaceOnUse" color-interpolation-filters="sRGB">
<feFlood flood-opacity="0" result="BackgroundImageFix"/>
<feBlend mode="normal" in="SourceGraphic" in2="BackgroundImageFix" result="shape"/>
<feColorMatrix in="SourceAlpha" type="matrix" values="0 0 0 0 0 0 0 0 0 0 0 0 0 0 0 0 0 0 127 0" result="hardAlpha"/>
<feOffset dx="0.214506"/>
<feGaussianBlur stdDeviation="0.429012"/>
<feComposite in2="hardAlpha" operator="arithmetic" k2="-1" k3="1"/>
<feColorMatrix type="matrix" values="0 0 0 0 0 0 0 0 0 0 0 0 0 0 0 0 0 0 0.54 0"/>
<feBlend mode="normal" in2="shape" result="effect1_innerShadow_542_1661"/>
</filter>
<filter id="filter2_i_542_1661" x="11.1914" y="13.3105" width="81.9088" height="93.2129" filterUnits="userSpaceOnUse" color-interpolation-filters="sRGB">
<feFlood flood-opacity="0" result="BackgroundImageFix"/>
<feBlend mode="normal" in="SourceGraphic" in2="BackgroundImageFix" result="shape"/>
<feColorMatrix in="SourceAlpha" type="matrix" values="0 0 0 0 0 0 0 0 0 0 0 0 0 0 0 0 0 0 127 0" result="hardAlpha"/>
<feOffset dx="0.858024"/>
<feGaussianBlur stdDeviation="0.429012"/>
<feComposite in2="hardAlpha" operator="arithmetic" k2="-1" k3="1"/>
<feColorMatrix type="matrix" values="0 0 0 0 0 0 0 0 0 0 0 0 0 0 0 0 0 0 0.54 0"/>
<feBlend mode="normal" in2="shape" result="effect1_innerShadow_542_1661"/>
</filter>
<linearGradient id="paint0_linear_542_1661" x1="134.77" y1="20.3988" x2="-36.7897" y2="158.054" gradientUnits="userSpaceOnUse">
<stop offset="0.102485" stop-opacity="0"/>
<stop offset="1" stop-color="white"/>
</linearGradient>
<linearGradient id="paint1_linear_542_1661" x1="108.369" y1="110.149" x2="51.5366" y2="2.78933" gradientUnits="userSpaceOnUse">
<stop offset="0.102485" stop-color="#A3A3A3" stop-opacity="0"/>
<stop offset="1"/>
</linearGradient>
<linearGradient id="paint2_linear_542_1661" x1="-46.0753" y1="104.787" x2="124.64" y2="11.1472" gradientUnits="userSpaceOnUse">
<stop stop-color="#575757"/>
<stop offset="0.662215" stop-opacity="0"/>
</linearGradient>
<linearGradient id="paint3_linear_542_1661" x1="134.77" y1="20.3988" x2="-36.7897" y2="158.054" gradientUnits="userSpaceOnUse">
<stop offset="0.102485"/>
<stop offset="1" stop-color="white"/>
</linearGradient>
<linearGradient id="paint4_linear_542_1661" x1="118.993" y1="23.7023" x2="-7.14186" y2="28.851" gradientUnits="userSpaceOnUse">
<stop stop-color="white"/>
<stop offset="1" stop-color="white" stop-opacity="0"/>
</linearGradient>
<linearGradient id="paint5_linear_542_1661" x1="108.396" y1="110.157" x2="51.5639" y2="2.79714" gradientUnits="userSpaceOnUse">
<stop offset="0.102485"/>
<stop offset="1"/>
</linearGradient>
<linearGradient id="paint6_linear_542_1661" x1="38.6561" y1="109.293" x2="123.171" y2="29.4933" gradientUnits="userSpaceOnUse">
<stop stop-color="white" stop-opacity="0"/>
<stop offset="1" stop-color="white"/>
</linearGradient>
<linearGradient id="paint7_linear_542_1661" x1="-46.0753" y1="104.795" x2="124.64" y2="11.155" gradientUnits="userSpaceOnUse">
<stop stop-color="#575757"/>
<stop offset="0.662215"/>
</linearGradient>
<linearGradient id="paint8_linear_542_1661" x1="118.986" y1="23.7141" x2="-7.14967" y2="28.8627" gradientUnits="userSpaceOnUse">
<stop stop-color="white"/>
<stop offset="1" stop-color="white" stop-opacity="0"/>
</linearGradient>
</defs>
</svg>
