<svg width="109" height="139" viewBox="0 0 109 139" fill="none" xmlns="http://www.w3.org/2000/svg">
<path fill-rule="evenodd" clip-rule="evenodd" d="M53.8417 0H53.8329H53.8241C53.638 0.00146572 53.4526 0.0505672 53.2859 0.146572L8.48885 26.0102C8.1499 26.2059 7.94141 26.5668 7.94141 26.9582V78.6854C7.94141 79.076 8.1499 79.4381 8.48885 79.633L27.8374 90.804L27.8103 88.2606L10.6779 78.3692C10.3393 78.1735 10.1308 77.8126 10.1308 77.4213V28.222C10.1308 27.831 10.3393 27.4697 10.6779 27.274L53.2855 2.67456C53.6241 2.47889 54.0414 2.47889 54.3804 2.67456L59.5793 5.67598C59.9182 5.87165 60.1267 6.23295 60.1267 6.6243V7.17504L62.3158 8.22156V5.35975C62.3158 4.96877 62.1076 4.60747 61.7687 4.4118L54.38 0.146572C54.2133 0.0505672 54.0275 0.00146572 53.8417 0ZM60.1264 58.3545L62.3154 58.186V81.3252L82.2117 69.8384C82.5503 69.6427 82.7588 69.2811 82.7588 68.8904V53.9163H66.91L67.4608 51.7273H82.7588V36.7528C82.7588 36.3618 82.55 36.0005 82.2117 35.8049L72.2031 29.9541L72.7583 27.7467L84.4008 34.541C84.7397 34.7367 84.9482 35.098 84.9482 35.489V70.1539C84.9482 70.5452 84.7397 70.9065 84.4008 71.1022L66.0849 81.6766L60.1264 81.5711V58.3545Z" fill="url(#paint0_linear_542_1660)"/>
<path fill-rule="evenodd" clip-rule="evenodd" d="M99.7256 78.6856V26.9583C99.7256 26.5669 99.5167 26.206 99.1781 26.0103L79.5661 14.688C79.6215 14.437 79.6526 14.1769 79.6526 13.9094C79.6526 11.9164 78.037 10.3008 76.044 10.3008C74.051 10.3008 72.4354 11.9164 72.4354 13.9094C72.4354 15.9024 74.051 17.5176 76.044 17.5176C76.977 17.5176 77.8241 17.1607 78.4646 16.5795L96.9884 27.2741C97.3269 27.4698 97.5354 27.8307 97.5354 28.2221V77.4217C97.5354 77.8131 97.3269 78.174 96.9884 78.3697L75.9685 90.5054L75.9444 93.0474L99.1778 79.6335C99.5163 79.4378 99.7256 79.0762 99.7256 78.6856ZM61.8504 98.6563L54.3815 102.969C54.0425 103.164 53.6255 103.164 53.2866 102.969L48.0877 99.9674C48.0577 99.9502 48.0287 99.9315 48.0009 99.9117L45.3512 99.9747V100.283C45.3512 100.675 45.5597 101.036 45.8983 101.231L53.2862 105.497C53.6248 105.692 54.0422 105.692 54.3811 105.497L67.1537 98.1224L61.8504 98.6563ZM47.5403 82.5015V59.1058L45.3512 58.2084V81.3253L25.4549 69.8385C25.1163 69.6428 24.9078 69.2812 24.9078 68.8906V36.7529C24.9078 36.3619 25.1163 36.0006 25.4549 35.805L35.3287 30.1044L36.5577 26.8674L23.2662 34.5411C22.9276 34.7368 22.7188 35.0981 22.7188 35.4891V70.154C22.7188 70.5453 22.9272 70.9066 23.2662 71.1023L43.9496 83.0435C43.9822 83.0625 43.9196 83.0219 43.9496 83.0435L47.5403 82.5015Z" fill="url(#paint1_linear_542_1660)"/>
<path fill-rule="evenodd" clip-rule="evenodd" d="M55.3862 80.019C54.2642 80.6819 51.5105 80.019 51.5105 80.019V55.6024C51.8872 55.6368 52.2635 55.6669 52.6402 55.6918L53.8564 78.7438L53.9051 61.2263C53.9062 60.8181 54.2378 60.488 54.6457 60.488C55.0546 60.488 55.3862 60.8196 55.3862 61.2282V80.019ZM34.9831 41.0009C35.1209 41.4905 35.3107 41.9639 35.5423 42.4091C35.7801 42.8536 36.0864 43.2541 36.4272 43.6066C36.1539 43.1962 35.9347 42.762 35.7878 42.3036C35.6467 41.8445 35.5518 41.3754 35.5082 40.902C35.4675 40.4278 35.465 39.953 35.4965 39.4814C35.5298 39.0164 35.5943 38.5283 35.6951 38.1073L35.6984 38.0937C35.7057 38.0629 35.7101 38.0314 35.7119 37.9988C35.7273 37.7027 35.4994 37.4499 35.2033 37.4349C34.9073 37.4195 34.6544 37.6474 34.639 37.9438C34.6108 38.4942 34.6405 38.9878 34.6958 39.5019C34.7534 40.009 34.849 40.5114 34.9831 41.0009ZM36.4375 42.1449C36.3693 41.4476 36.3371 40.7617 36.3067 40.0735C36.2773 39.3857 36.2554 38.7009 36.2396 38.0105C36.2326 37.7155 36.4664 37.4708 36.7618 37.4638C37.0571 37.4568 37.3022 37.691 37.3088 37.9863C37.3096 38.0036 37.3088 38.0204 37.3077 38.0373L37.3074 38.0402C37.2572 38.7166 37.2121 39.3989 37.1751 40.0783C37.1395 40.7573 37.1062 41.4396 37.1066 42.1079C37.1047 42.3868 37.1927 42.6858 37.3132 42.9844C37.4327 43.2823 37.5888 43.5766 37.761 43.8628C38.1036 44.4351 38.5071 44.9862 38.9376 45.504L38.9402 45.5077C38.9882 45.5652 38.9801 45.6509 38.9226 45.6989C38.8687 45.744 38.7892 45.7396 38.7401 45.6912C38.2462 45.202 37.7863 44.688 37.3689 44.1236C37.1604 43.8422 36.964 43.548 36.7962 43.2255C36.6309 42.9067 36.4781 42.552 36.4375 42.1449ZM39.3202 41.751C39.337 41.4528 39.3421 41.1545 39.3542 40.8562L39.385 39.9614C39.4074 39.3648 39.4257 38.7683 39.4371 38.1717C39.4374 38.1633 39.4374 38.1512 39.4371 38.1428C39.429 37.7265 39.0853 37.3956 38.669 37.4037C38.2531 37.4121 37.9222 37.7558 37.9303 38.1717C37.9417 38.7687 37.9596 39.3652 37.9823 39.9614L38.0127 40.8562C38.0248 41.1545 38.0296 41.4528 38.0472 41.751L38.0487 41.7052C38.0219 42.4549 38.2465 43.153 38.5466 43.7561C38.8515 44.3622 39.2421 44.8932 39.6694 45.375C40.0992 45.855 40.5668 46.2881 41.0611 46.6824C41.5568 47.0745 42.0724 47.4362 42.6356 47.7297C42.6935 47.7605 42.7664 47.7436 42.8056 47.689C42.8481 47.6289 42.8342 47.5457 42.7741 47.5029L42.7719 47.5018C42.2809 47.1514 41.8317 46.7334 41.4139 46.2962C40.9977 45.8569 40.6159 45.3882 40.2853 44.8957C39.957 44.4029 39.6811 43.8822 39.5019 43.3519C39.3205 42.8217 39.256 42.2838 39.3191 41.7968L39.3202 41.751ZM41.8815 39.9189C41.8537 40.4011 41.8317 40.884 41.8269 41.3619C41.8207 41.8393 41.8126 42.3153 41.8368 42.7778C41.8507 43.0057 41.8683 43.2329 41.8976 43.4472C41.909 43.5583 41.9339 43.6495 41.95 43.7528C41.9643 43.8265 41.9559 43.788 41.9599 43.8166C41.9716 43.8433 41.9775 43.8693 42.0006 43.9097C42.0775 44.0614 42.2084 44.2479 42.345 44.4263C42.4835 44.607 42.6349 44.7883 42.7921 44.9679C43.1057 45.3274 43.441 45.6799 43.7748 46.0357C44.4498 46.7411 45.1522 47.4362 45.8503 48.1291L45.8536 48.1324C45.9895 48.2672 45.9903 48.4867 45.8554 48.623C45.7356 48.7436 45.5502 48.7579 45.4146 48.6666C44.5824 48.1045 43.784 47.5098 43.0006 46.8781C42.6063 46.5644 42.2234 46.2357 41.8474 45.8854C41.6587 45.711 41.4726 45.5304 41.2883 45.3362C41.1032 45.139 40.9218 44.9408 40.7393 44.67C40.6946 44.607 40.6474 44.5209 40.603 44.4377C40.5605 44.3523 40.5023 44.1991 40.4924 44.1515C40.4554 44.0134 40.4077 43.8671 40.3821 43.7334C40.3198 43.4611 40.2776 43.1969 40.2381 42.9331C40.1695 42.4106 40.1234 41.8969 40.1014 41.3853C40.0607 40.3604 40.0699 39.3619 40.1454 38.3366C40.1824 37.8332 40.6206 37.4554 41.1234 37.4924C41.6235 37.529 41.9999 37.9625 41.9676 38.462L41.9669 38.4788C41.9372 38.9471 41.9024 39.4389 41.8815 39.9189ZM44.5663 38.8921C44.4406 39.8192 44.3512 40.7639 44.2937 41.7067C44.2659 42.1746 44.2457 42.6572 44.2409 43.1079C44.2307 43.1977 44.2662 43.3666 44.3373 43.5396C44.4069 43.7143 44.5066 43.9005 44.6202 44.0841C45.0856 44.825 45.7275 45.534 46.3875 46.2053C47.054 46.8759 47.7645 47.5245 48.4926 48.1305L48.4977 48.1353C48.6381 48.2518 48.6571 48.4603 48.5402 48.6003C48.4318 48.7308 48.2427 48.7557 48.1038 48.6644C47.2841 48.1218 46.4992 47.5494 45.7319 46.9309C44.9701 46.3054 44.223 45.6583 43.5619 44.8305C43.3982 44.6209 43.2402 44.397 43.0999 44.1379C42.9621 43.8789 42.8295 43.5846 42.7891 43.1918C42.7375 42.6799 42.7049 42.1977 42.6785 41.7023C42.6286 40.7173 42.6114 39.7342 42.6352 38.7393C42.6473 38.2033 43.0918 37.7793 43.6275 37.791C44.1633 37.8035 44.5876 38.2476 44.5759 38.7837C44.574 38.8196 44.5711 38.857 44.5663 38.8921ZM47.4732 38.8815C47.4736 38.8779 47.4739 38.8738 47.4739 38.8702C47.5102 38.3363 47.1068 37.8738 46.5725 37.8376C46.039 37.802 45.5766 38.2051 45.5407 38.7393C45.4743 39.7184 45.5154 40.6723 45.6114 41.611C45.6605 42.0808 45.7136 42.5473 45.7909 43.0101C45.8246 43.2164 45.8734 43.5366 45.965 43.8071C46.0544 44.0844 46.1746 44.3501 46.3219 44.5985C46.4692 44.847 46.6465 45.0764 46.8444 45.2834C46.943 45.3878 47.0492 45.4835 47.1584 45.5754L47.3233 45.7044L47.4633 45.803L48.5824 46.593C49.3339 47.1133 50.091 47.626 50.8682 48.1133C51.0283 48.2134 51.2423 48.195 51.3819 48.0565C51.5453 47.8946 51.5464 47.6311 51.3848 47.468C50.7392 46.8162 50.0737 46.1892 49.4017 45.5703L48.3863 44.6509L48.2596 44.5362L48.1632 44.4446C48.1038 44.3831 48.0459 44.3212 47.9939 44.2541C47.8895 44.1207 47.7979 43.9778 47.7271 43.8261C47.6561 43.6744 47.6022 43.5161 47.5666 43.3549C47.5285 43.1882 47.5227 43.0537 47.504 42.8078C47.4747 42.3652 47.4402 41.9243 47.4263 41.4846C47.3955 40.6056 47.4007 39.7316 47.4721 38.8925L47.4732 38.8815ZM44.4883 11.4448H44.6341C44.7642 11.4448 44.8862 11.3851 44.9646 11.281C45.4194 10.6782 46.3354 9.8904 46.3354 9.8904C45.6165 10.1202 44.8019 10.7988 44.3842 11.1791C44.2801 11.2733 44.3483 11.4448 44.4883 11.4448ZM46.5439 11.4448C46.187 11.4448 45.9851 11.0403 46.1962 10.7533C46.7184 10.0443 47.7784 8.95967 49.6685 8.33565C49.6685 8.33565 47.8103 9.32904 46.9444 11.196C46.8726 11.3503 46.7136 11.4448 46.5439 11.4448ZM48.0895 10.7691C47.8961 11.0564 48.1027 11.4452 48.449 11.4452C48.8202 11.4452 49.1591 11.233 49.3171 10.897C49.7531 9.97248 50.8315 8.18138 52.7219 7.95932C52.7219 7.95932 50.2009 7.62734 48.0895 10.7691ZM50.3933 10.5265C51.1371 9.39572 52.7549 7.66325 55.5519 8.0022C55.5519 8.0022 54.0403 7.96482 52.9795 9.16927C52.3914 9.8369 52.0118 10.4639 51.7901 10.8897C51.6135 11.2293 51.2657 11.4448 50.8832 11.4448C50.4112 11.4448 50.1338 10.9204 50.3933 10.5265ZM53.1078 10.6507C52.7813 11.1128 53.1158 11.7511 53.6816 11.7511C53.915 11.7511 54.1323 11.635 54.2624 11.4408C54.6585 10.8512 55.5632 9.58883 56.3118 9.16964C57.3016 8.61523 58.6885 8.69108 58.6885 8.69108C58.6885 8.69108 57.196 8.04104 55.5519 8.49981C54.5988 8.76583 53.6977 9.81492 53.1078 10.6507ZM63.6214 53.6915C63.9746 53.3789 64.2945 53.0271 64.5807 52.6493C64.7258 52.461 64.8547 52.2613 64.9793 52.0594L65.3392 51.461C65.8247 50.6406 66.1339 49.7164 66.264 48.7685C66.334 48.2943 66.3274 47.8077 66.3289 47.3512L66.3344 45.9591C66.33 44.1035 66.3201 42.2472 66.2816 40.3916C66.2497 38.5356 66.1863 36.6793 66.0925 34.8237C65.9987 36.6793 65.9354 38.5356 65.9035 40.3916C65.865 42.2472 65.8547 44.1035 65.8503 45.9591L65.8562 47.3512C65.8602 47.8213 65.8639 48.2658 65.81 48.7128C65.7126 49.6065 65.4326 50.4786 65.0105 51.2771L64.6774 51.8864C64.566 52.0836 64.4502 52.2785 64.3231 52.4665C64.071 52.8439 63.7804 53.1975 63.459 53.5211C63.1402 53.849 62.7874 54.1447 62.4096 54.4071C62.2194 54.5368 62.0237 54.6577 61.8226 54.7746L61.2256 55.1348C61.6452 54.9344 62.0714 54.7519 62.4777 54.5152C62.8823 54.2778 63.267 54.0037 63.6214 53.6915ZM42.3612 48.3977C42.3612 48.3977 44.4725 49.4581 45.1874 49.7791C45.1874 49.7791 47.9411 51.9209 53.9839 52.0231C54.1627 52.0275 54.3368 52.029 54.5083 52.0279C55.8659 51.9912 59.4356 51.5574 59.9911 48.0386C60.2059 46.6762 59.6331 45.5256 58.7438 44.5868C58.4892 44.9943 58.2228 45.3926 57.9395 45.7792C57.6779 46.1595 57.3921 46.5208 57.1081 46.8832C56.9681 47.0653 56.8263 47.2471 56.6695 47.4222L56.4401 47.6872L56.1953 47.9382C54.8956 49.2866 53.1547 50.1785 51.3379 50.4988C49.519 50.8176 47.6374 50.6637 45.9031 50.1005C47.6583 50.5889 49.5307 50.656 51.291 50.2694C53.0513 49.8791 54.6743 48.951 55.8556 47.6161L56.078 47.3676L56.2854 47.106C56.4262 46.9353 56.557 46.7509 56.6863 46.5652C56.9487 46.1973 57.2125 45.8301 57.4507 45.4468C57.7376 45.0152 58.0018 44.5703 58.2528 44.1185C56.2558 42.3655 53.295 41.4835 53.295 41.4835C53.295 41.4835 52.6915 43.9906 50.2394 43.3021C47.7876 42.614 47.8638 40.2424 48.5527 39.1717C48.5527 39.1717 49.7 37.6928 53.1422 39.3758C56.5841 41.0585 56.8904 42.1127 58.1905 41.4835C59.491 40.8547 60.8651 36.2652 61.5551 32.2876V49.1159C61.5551 49.1159 59.9739 51.9923 54.5079 52.0271C54.1829 52.0359 53.9835 52.0224 53.9835 52.0224V52.2049C53.9835 52.6673 54.3588 53.0422 54.8212 53.0422H58.3081C58.975 53.0422 59.6137 52.7607 60.0494 52.2558C60.3554 51.9011 60.6639 51.3918 60.8933 50.6622C60.8933 50.6622 61.148 53.9601 56.3551 53.9601C51.5615 53.9601 46.3091 54.011 44.3714 51.3086C42.4341 48.6065 42.3612 48.3977 42.3612 48.3977ZM58.9182 54.8956C58.2235 55.1993 57.4716 55.3316 56.7277 55.351C55.9824 55.3748 55.2419 55.2847 54.5193 55.1337C55.251 55.233 55.9905 55.2777 56.7208 55.2228C57.4503 55.1678 58.1722 55.0015 58.8186 54.6797C59.1447 54.5266 59.4488 54.3313 59.7262 54.1044C60.0062 53.8809 60.2546 53.62 60.4704 53.3353C60.9061 52.7677 61.2194 52.1092 61.4155 51.4189C61.5129 51.0733 61.5847 50.7194 61.6261 50.3647C61.6364 50.2764 61.6456 50.1877 61.6511 50.1005C61.6573 50.0202 61.6547 49.9264 61.6562 49.8337L61.661 49.2797L61.68 47.0642L61.739 42.6338C61.7918 39.6803 61.85 36.7273 61.9369 33.7742L62.0787 29.3456L62.1018 28.7919C62.1054 28.608 62.1278 28.4031 62.1908 28.221C62.3099 27.8502 62.5591 27.5222 62.8878 27.3211C63.5378 26.9308 64.3227 26.8055 65.0486 26.9436C64.3165 26.8564 63.5587 27.0308 62.9578 27.4284C62.6646 27.6278 62.4554 27.9367 62.3649 28.2734C62.3165 28.4442 62.3055 28.6109 62.3103 28.7959L62.3147 29.35L62.3132 33.7819C62.304 36.7364 62.2663 39.6906 62.2231 42.6447L62.1381 47.0756L62.0856 49.2907L62.0717 49.8443C62.0684 49.9363 62.0706 50.0272 62.0615 50.1313C62.0534 50.228 62.0428 50.3229 62.0292 50.4174C61.975 50.7948 61.8896 51.1653 61.7771 51.5281C61.5499 52.251 61.2048 52.9451 60.7189 53.5335C60.4781 53.8285 60.2037 54.0975 59.8977 54.3239C59.5958 54.5529 59.2671 54.7497 58.9182 54.8956ZM66.4733 24.2148L66.3062 24.8279C66.2622 24.9909 66.3285 25.1643 66.47 25.2566C67.6238 26.0114 68.7026 26.7461 69.5952 27.3965C69.8092 27.5523 70.1115 27.4541 70.194 27.2027L70.3746 26.6498C70.4267 26.4918 70.3721 26.3189 70.2402 26.2181C69.401 25.5772 68.2904 24.8041 67.0629 23.9917C66.8426 23.8458 66.5433 23.9594 66.4733 24.2148ZM70.589 24.3662C69.6579 23.6883 68.5275 22.921 67.3215 22.1354C67.1797 22.043 67.1127 21.8697 67.157 21.7063L67.2765 21.2691C67.3443 21.0199 67.6315 20.9056 67.8543 21.0368C69.5619 22.0452 70.733 23.3446 71.1163 23.8019C71.2024 23.9048 71.2281 24.0448 71.1866 24.172C71.1046 24.423 70.803 24.5219 70.589 24.3662ZM66.688 35.0362C66.6935 35.3774 66.6997 35.7031 66.7063 36.0025C66.7074 36.0673 66.7397 36.1263 66.7917 36.1648C66.8401 36.2004 66.8873 36.2363 66.9346 36.2711C67.0493 36.3565 67.2131 36.3037 67.2574 36.1677L67.5055 35.4114C67.5322 35.3283 67.5066 35.2374 67.4373 35.1835C67.3076 35.0813 67.1698 34.975 67.0247 34.8655C66.8855 34.7607 66.6854 34.8618 66.688 35.0362ZM68.2017 33.2854L68.4505 32.5273C68.4776 32.4434 68.4516 32.3525 68.382 32.2986C67.9881 31.9919 67.5242 31.6511 67.0112 31.2876C66.8738 31.1905 66.6832 31.2843 66.6799 31.4529C66.6744 31.7556 66.6708 32.0773 66.6693 32.4093C66.6689 32.4774 66.7037 32.543 66.7591 32.5826C67.16 32.8633 67.5355 33.1337 67.8785 33.3884C67.9932 33.4734 68.157 33.4214 68.2017 33.2854ZM65.6873 27.0979C65.725 26.9605 65.887 26.9004 66.0061 26.9788C67.3135 27.8432 68.493 28.6647 69.353 29.3324C69.4227 29.3862 69.4487 29.4775 69.4216 29.5614L69.1449 30.4046C69.1009 30.5401 68.9375 30.5925 68.8228 30.5075C68.2299 30.0689 67.5436 29.5871 66.799 29.0825C66.7529 29.0517 66.7217 29.0011 66.7114 28.9462C66.54 28.0019 65.998 27.4977 65.7606 27.3178C65.6939 27.2665 65.6649 27.18 65.6873 27.0979ZM48.7495 17.0669L48.6678 17.3047C48.5472 17.658 48.7927 18.0306 49.1646 18.0592C50.7011 18.1787 52.1444 18.3241 53.2137 18.4938C54.454 18.6913 55.5112 19.1021 56.6306 19.5366L56.7127 19.5685C57.7006 19.9525 60.2704 21.3963 63.0255 23.0811C63.3337 23.2698 63.7382 23.1284 63.861 22.7883L63.9526 22.5348C64.0442 22.2812 63.9456 21.9972 63.7163 21.8554C60.8559 20.0859 58.1026 18.5205 57.1187 18.1376L57.0407 18.1076C55.9615 17.688 55.0297 17.326 53.9674 17.1571C52.7091 16.957 51.0378 16.8009 49.3292 16.6822C49.0708 16.6642 48.8338 16.8225 48.7495 17.0669ZM47.7183 20.0779C47.8019 19.8335 48.0401 19.6752 48.2977 19.6927C50.0107 19.8118 51.6857 19.9679 52.9476 20.1687C54.0085 20.3373 54.9392 20.699 56.0169 21.1174L56.0989 21.1489C57.0766 21.5289 59.8002 23.0771 62.6408 24.8319C62.8705 24.9741 62.9691 25.2577 62.8775 25.5116L62.8101 25.6978C62.6877 26.0378 62.2835 26.1796 61.9746 25.9909C59.2312 24.3138 56.6775 22.8792 55.6926 22.4974L55.6138 22.4666C54.4932 22.0313 53.435 21.6198 52.1943 21.4223C50.9612 21.2262 49.2324 21.0632 47.4369 20.9349L47.4307 20.9162L47.7183 20.0779ZM50.3801 13.4481C51.2599 13.4228 53.5658 13.4953 57.0179 14.5939C61.9999 16.1791 64.2388 18.2857 64.9031 19.0196C65.0446 19.1753 65.086 19.3963 65.0141 19.5942L64.9365 19.8104C64.813 20.1508 64.4084 20.2922 64.1003 20.1031C61.3242 18.4036 58.7273 16.9434 57.7325 16.5572L57.6544 16.5268C56.5332 16.0915 55.4745 15.6796 54.2334 15.4825C53.1668 15.3128 51.7278 15.1677 50.195 15.0483C49.8231 15.0197 49.5772 14.6474 49.6982 14.2941L49.8557 13.8339C49.9345 13.6086 50.1415 13.4547 50.3801 13.4481ZM44.7144 28.6702L44.5363 29.2155C44.4212 29.5673 44.6667 29.9341 45.0357 29.9623C46.5912 30.0821 48.0544 30.2283 49.1353 30.4005C50.3772 30.598 51.4361 31.0095 52.557 31.4452L52.6347 31.4753C53.6006 31.8508 56.0806 33.2407 58.7673 34.8786C59.0758 35.0666 59.4792 34.9248 59.602 34.5851L59.787 34.0732C59.8786 33.8193 59.7801 33.535 59.5503 33.3935C56.7211 31.6464 54.014 30.1085 53.0396 29.7303L52.9627 29.7006C51.8835 29.2811 50.951 28.9187 49.8887 28.7498C48.6406 28.5515 46.9888 28.3965 45.2962 28.2774C45.0357 28.2587 44.7957 28.4211 44.7144 28.6702ZM48.7583 23.9543C49.6663 24.0419 50.4959 24.1401 51.1749 24.2478C52.416 24.4453 53.4742 24.8565 54.5947 25.2921L54.6735 25.3229C55.6585 25.7051 58.2118 27.1393 60.9556 28.8161C61.2641 29.0048 61.6679 28.863 61.791 28.5233L61.8273 28.4218C61.9193 28.1675 61.8207 27.8839 61.5906 27.7421C58.7614 25.9949 56.0539 24.4563 55.0799 24.0785L55.0007 24.0474C53.922 23.6282 52.9905 23.2665 51.9286 23.0976C51.0547 22.9584 49.9825 22.8411 48.8367 22.7425C48.4321 22.7074 48.1214 23.0965 48.2445 23.4842L48.2676 23.5586C48.3361 23.7766 48.53 23.9327 48.7583 23.9543ZM43.629 31.9916C43.5139 32.3433 43.7594 32.7098 44.1281 32.7383C45.6414 32.8567 47.0602 33 48.1156 33.1682C49.3566 33.3653 50.416 33.7772 51.5373 34.2132L51.6149 34.2429C52.5834 34.6192 55.0715 36.0138 57.7647 37.6558C58.0729 37.8442 58.4767 37.7024 58.5994 37.3623L58.6196 37.3073C58.7108 37.053 58.6123 36.7687 58.3825 36.6269C55.6076 34.9182 52.9773 33.4272 52.0206 33.0557L51.9433 33.0256C50.8641 32.6064 49.9319 32.244 48.8689 32.0747C47.6055 31.8736 45.9269 31.7175 44.2113 31.5987C43.95 31.5808 43.7107 31.7431 43.629 31.9916ZM42.7225 34.7669C42.8034 34.5181 43.0442 34.3561 43.3047 34.3744C44.9808 34.4921 46.6136 34.646 47.8488 34.8424C48.9118 35.0117 49.8436 35.3737 50.9231 35.7933L51.0001 35.8229C51.9587 36.1956 54.5973 37.6917 57.3785 39.4051C57.6086 39.547 57.7076 39.8309 57.616 40.0852L57.591 40.1541C57.4756 40.4737 57.1077 40.6224 56.8025 40.4729L52.1331 38.1846C50.5054 37.3869 48.7557 36.8702 46.9565 36.6558L42.979 36.1813C42.6213 36.1381 42.3916 35.779 42.5037 35.4367L42.7225 34.7669ZM47.7693 25.7322L47.6872 25.8011C47.3006 26.1261 47.4963 26.756 47.999 26.8066C48.8052 26.8872 49.5417 26.9773 50.1551 27.0744C51.3969 27.272 52.4559 27.6835 53.5772 28.1191L53.6541 28.1492C54.6384 28.5317 57.1916 29.9659 59.9351 31.6423C60.2432 31.8311 60.6478 31.6896 60.7705 31.3496L60.8075 31.2466C60.8995 30.9927 60.8009 30.7087 60.5708 30.5669C57.7413 28.8197 55.0337 27.2815 54.0598 26.903L53.9806 26.8718C52.9022 26.4534 51.9704 26.091 50.9085 25.9224C50.1302 25.7985 49.194 25.6919 48.1892 25.5999C48.0379 25.5867 47.8858 25.6344 47.7693 25.7322ZM42.3359 20.6634C43.2725 20.6979 44.3443 20.7462 45.4505 20.8092L45.5953 20.6623L45.7411 20.2482C45.8642 19.902 45.6165 19.5348 45.249 19.5172C44.1959 19.467 43.2215 19.4307 42.43 19.4066C42.1926 19.3992 41.979 19.5454 41.8984 19.769L41.8408 19.9295C41.7148 20.2787 41.9647 20.6499 42.3359 20.6634ZM43.3908 17.736C44.2321 17.7672 45.1812 17.8097 46.1654 17.8635C46.4087 17.8771 46.6322 17.7283 46.7136 17.4986L46.8056 17.2391C46.928 16.8925 46.6806 16.5257 46.3138 16.5081C45.2721 16.4579 44.3062 16.4216 43.515 16.3974C43.2776 16.3898 43.064 16.5363 42.9837 16.7598L42.8961 17.0024C42.7701 17.3513 43.0193 17.7221 43.3908 17.736ZM36.942 35.5983L39.8214 35.7808C40.0691 35.7966 40.2967 35.6438 40.3758 35.4085L40.544 34.9102C40.6606 34.5646 40.4129 34.2033 40.0486 34.1865C38.9501 34.1348 37.9431 34.0985 37.1447 34.0751C36.9076 34.0681 36.6947 34.2147 36.6141 34.4378L36.4602 34.8651C36.3363 35.2084 36.5771 35.5749 36.942 35.5983ZM44.4744 14.7269C45.3127 14.758 46.2541 14.8005 47.2288 14.854C47.4725 14.8676 47.696 14.7192 47.777 14.4895L47.8785 14.2033C48.0045 13.8464 47.74 13.4719 47.3611 13.4719H44.5531C44.3215 13.4719 44.1153 13.617 44.0368 13.8343L43.98 13.9926C43.854 14.3418 44.1035 14.713 44.4744 14.7269ZM40.2996 26.3156C40.7954 26.3335 41.3286 26.3559 41.8848 26.3819C42.2267 26.398 42.5011 26.1005 42.4553 25.7608L42.4458 25.6904C42.4103 25.4259 42.1889 25.2254 41.9225 25.2152C41.3502 25.1921 40.8218 25.1738 40.3572 25.1599C40.1197 25.1525 39.9064 25.2991 39.8258 25.5226L39.8049 25.5816C39.6789 25.9305 39.9284 26.302 40.2996 26.3156ZM38.1066 32.4038C38.9526 32.4335 39.9174 32.4756 40.924 32.5295C41.1703 32.543 41.3952 32.3913 41.474 32.1576L41.4803 32.1385C41.5968 31.7933 41.3487 31.432 40.9845 31.4148C39.9079 31.365 38.9237 31.3294 38.1417 31.3067C37.9047 31.2994 37.6921 31.4456 37.6111 31.6691C37.4855 32.0194 37.7354 32.3906 38.1066 32.4038ZM41.3183 23.4886C41.695 23.5029 42.0937 23.5186 42.5074 23.5369C42.6631 23.5439 42.8144 23.4849 42.9236 23.3743L42.9863 23.3105C43.3208 22.9708 43.0914 22.3955 42.6151 22.3772C42.1669 22.36 41.7503 22.3457 41.3751 22.3343C41.1377 22.327 40.9248 22.4736 40.8441 22.6971L40.8236 22.7546C40.6972 23.1038 40.9467 23.475 41.3183 23.4886ZM39.4862 29.6497C40.1556 29.675 40.8877 29.7072 41.6488 29.7472C42.02 29.7666 42.3597 29.5365 42.478 29.1843L42.791 28.2606L42.7727 28.1257C41.5741 28.0642 40.4521 28.0206 39.5448 27.992C39.1857 27.9803 38.8607 28.2016 38.739 28.5398C38.5488 29.0675 38.9255 29.6281 39.4862 29.6497ZM56.2785 12.0948C55.5903 11.8655 55.705 10.3737 57.7775 9.49429C59.8504 8.6145 61.0589 9.80026 61.0589 9.80026C59.1469 8.99705 58.9175 10.0296 58.1905 10.7948C57.4642 11.5591 56.967 12.3242 56.2785 12.0948ZM67.2168 14.186C67.6755 14.8489 68.4952 16.9573 67.116 19.6631C67.116 19.6631 70.1474 21.4058 71.4732 23.1903C71.4732 23.1903 72.2141 21.5798 71.8568 19.3362C71.5003 17.0926 68.7462 15.1549 68.7462 15.1549C68.7462 15.1549 71.2958 17.8067 71.194 19.3871C71.0921 20.9679 69.2054 20.05 68.6953 19.1321C68.1856 18.2146 69.1031 15.1545 67.1655 13.6247C65.2278 12.0948 61.5547 10.0678 61.5547 10.0678C61.5547 10.0678 66.758 13.5228 67.2168 14.186ZM63.7492 13.1659C63.7492 15.0017 66.0922 16.3788 66.0922 16.3788L65.585 18.7752C65.1263 18.2651 61.1483 15.4096 60.0267 14.8995C58.9054 14.3898 57.0183 13.9819 57.0183 13.9819C59.1091 14.1347 61.4547 15.104 62.499 15.5627C63.5429 16.0215 63.7492 13.1659 63.7492 13.1659ZM63.3414 49.7282C62.5767 55.5419 58.905 55.3884 58.905 55.3884C61.4547 54.5218 62.2685 51.5838 62.7295 50.0851C62.9566 49.3475 62.7295 31.3701 62.7295 29.7897C62.7295 28.2085 63.5814 27.435 64.8203 27.6017C66.0878 27.7721 66.0816 29.258 66.0541 29.679C66.0467 29.7864 66.0456 29.8941 66.0475 30.0019L66.0922 33.0531C62.3674 32.6966 64.1061 43.9144 63.3414 49.7282ZM45.367 23.5791C44.9679 23.4886 44.5458 23.8495 44.4245 24.3849C44.3032 24.9202 44.5282 25.4277 44.9273 25.5186C45.3263 25.6091 45.7488 25.2482 45.8697 24.7125C45.991 24.1775 45.766 23.6696 45.367 23.5791ZM34.8867 90.7275C37.4873 92.2574 41.669 92.0536 41.669 92.0536C37.1941 91.5223 36.2982 91.571 34.329 90.0218C33.3389 89.2424 33.2232 88.4897 33.2649 88.0533C33.3023 87.9309 33.3364 87.8042 33.3569 87.6682C33.3569 87.6682 33.2876 87.8137 33.2649 88.0533C33.0213 88.8419 32.6328 89.4022 34.8867 90.7275ZM34.7845 89.5033C30.6032 87.1068 41.1457 84.6082 43.906 84.6591C43.906 84.6591 37.5892 85.0673 34.9377 87.4128C32.2858 89.7587 40.3986 90.4021 40.5492 90.3604C40.6994 90.3193 42.7906 90.0134 43.5553 89.7078C44.3204 89.4014 51.8982 89.5033 51.8982 89.5033C51.8982 89.5033 51.6897 91.1438 52.1606 91.4967C52.1613 91.4967 38.9662 91.9001 34.7845 89.5033ZM74.6109 89.7078C74.6109 89.7078 75.682 93.2771 73.6417 94.246C71.9525 95.0481 68.5564 97.1016 56.078 97.3053C44.068 97.5017 36.5936 96.9246 33.1561 93.2211C33.0436 93.1148 33 93.0532 33 93.0532C33.0498 93.1108 33.1044 93.1654 33.1561 93.2211C33.9644 93.9858 38.3414 97.0902 55.845 96.6428C75.7835 96.1327 74.6109 91.4967 74.6109 91.4967V89.7078ZM44.2922 92.3647C44.2508 92.3603 44.2102 92.3567 44.1687 92.3523C44.1684 92.3523 44.2131 92.357 44.2922 92.3647C70.4956 95.0422 74.6113 89.0445 74.6113 89.0445C74.6113 88.3307 74.1012 87.6678 74.1012 87.6678C73.8462 89.6055 71.8389 91.3032 62.7298 92.2574C53.6523 93.2075 45.3769 92.4695 44.2922 92.3647ZM72.2145 87.821C71.6531 90.1669 55.7944 89.555 55.7944 89.555L55.845 88.943C57.0179 88.9939 57.4258 85.7815 57.3239 85.1699C57.222 84.5576 56.6607 80.9882 56.6607 80.314C56.6607 79.6398 55.8963 79.6625 55.8963 79.6625V55.7973C55.7197 55.8072 55.4892 55.8036 55.2331 55.7918C55.4544 55.794 55.675 55.7984 55.8963 55.7973C54.3075 55.6812 52.7271 55.4804 51.1661 55.2001C49.6091 54.915 48.0584 54.5518 46.6117 53.9846C45.8836 53.6973 45.2145 53.3661 44.6367 52.8941C44.0515 52.4321 43.5462 51.87 43.1112 51.2551C42.6741 50.6417 42.3102 49.9715 42.0024 49.2782C41.8489 48.9308 41.7096 48.5769 41.5873 48.2181C41.4667 47.866 41.5404 48.195 41.4667 47.866L39.4763 46.2614C39.6104 46.7011 40.1494 48.32 40.3143 48.7106C40.4784 49.095 40.6595 49.4702 40.8551 49.8381C41.2487 50.5728 41.7023 51.2785 42.2388 51.9253C42.773 52.5724 43.3879 53.1634 44.0914 53.6394C44.4403 53.8798 44.8129 54.0879 45.2013 54.2587C45.5887 54.4309 45.9738 54.565 46.3659 54.6856C47.8264 55.1293 49.3123 55.3679 50.7985 55.5328L50.8989 79.713C50.287 79.8149 49.9297 84.3026 50.2401 86.1893C50.5501 88.076 51.0521 88.382 52.3775 88.9939C53.7032 89.6059 53.9583 91.497 53.9583 91.497V89.1981L55.0293 89.1468V91.4926C63.3414 91.5945 74.5087 89.81 73.1829 87.4637C71.8572 85.1182 64.0043 84.8123 64.0043 84.8123C64.0043 84.8123 72.7751 85.4748 72.2145 87.821Z" fill="url(#paint2_linear_542_1660)"/>
<path d="M8.37599 129.732C8.37599 129.106 8.29483 128.554 8.1325 128.076C7.97018 127.598 7.74524 127.199 7.45769 126.879C7.17478 126.559 6.83854 126.318 6.44896 126.156C6.06401 125.989 5.64892 125.906 5.20369 125.906C4.75845 125.906 4.34104 125.989 3.95146 126.156C3.56652 126.318 3.23028 126.559 2.94273 126.879C2.65982 127.199 2.4372 127.598 2.27487 128.076C2.11255 128.554 2.03139 129.106 2.03139 129.732C2.03139 130.358 2.11255 130.91 2.27487 131.387C2.44184 131.861 2.66677 132.257 2.94968 132.577C3.23723 132.897 3.57348 133.138 3.95842 133.301C4.348 133.463 4.76773 133.544 5.2176 133.544C5.66284 133.544 6.07561 133.463 6.45591 133.301C6.84086 133.138 7.17478 132.897 7.45769 132.577C7.74524 132.257 7.97018 131.861 8.1325 131.387C8.29483 130.91 8.37599 130.358 8.37599 129.732ZM9.57256 129.732C9.57256 130.437 9.47053 131.084 9.26646 131.673C9.06239 132.262 8.77021 132.77 8.3899 133.196C8.0096 133.623 7.55045 133.957 7.01246 134.198C6.4791 134.435 5.88082 134.553 5.2176 134.553C4.5312 134.553 3.91668 134.435 3.37405 134.198C2.83142 133.957 2.37227 133.623 1.9966 133.196C1.62093 132.77 1.33339 132.262 1.13396 131.673C0.93453 131.084 0.834816 130.437 0.834816 129.732C0.834816 129.022 0.936849 128.373 1.14092 127.784C1.34962 127.19 1.64181 126.68 2.01747 126.253C2.39778 125.827 2.85693 125.495 3.39492 125.259C3.93291 125.017 4.53584 124.897 5.20369 124.897C5.88545 124.897 6.49533 125.017 7.03333 125.259C7.57596 125.495 8.03511 125.827 8.41077 126.253C8.78644 126.68 9.07399 127.19 9.27342 127.784C9.47285 128.373 9.57256 129.022 9.57256 129.732ZM12.724 130.525V134.379H11.59V125.071H14.004C14.4122 125.071 14.7577 125.087 15.0406 125.119C15.3282 125.147 15.5902 125.194 15.8267 125.259C16.476 125.435 16.9723 125.736 17.3155 126.163C17.6587 126.585 17.8303 127.114 17.8303 127.749C17.8303 128.125 17.77 128.461 17.6494 128.758C17.5288 129.055 17.3595 129.312 17.1416 129.53C16.9236 129.748 16.6615 129.927 16.3554 130.066C16.054 130.205 15.7177 130.307 15.3467 130.372V130.4L18.3868 134.379H16.9607L14.0945 130.525H12.724ZM12.724 126.093V129.502H13.844C14.1919 129.502 14.4887 129.491 14.7345 129.467C14.9803 129.444 15.2006 129.402 15.3954 129.342C15.7896 129.222 16.0934 129.029 16.3067 128.765C16.5201 128.5 16.6268 128.155 16.6268 127.728C16.6221 127.329 16.5201 127.009 16.3207 126.768C16.1212 126.522 15.8453 126.346 15.4928 126.239C15.3258 126.188 15.1264 126.151 14.8945 126.128C14.6626 126.105 14.3681 126.093 14.011 126.093H12.724ZM24.6132 129.565C24.9007 129.607 25.1581 129.683 25.3854 129.794C25.6173 129.906 25.8144 130.049 25.9767 130.226C26.1437 130.397 26.2712 130.604 26.3593 130.845C26.4474 131.081 26.4915 131.353 26.4915 131.659C26.4915 131.877 26.459 132.106 26.3941 132.348C26.3292 132.584 26.2202 132.816 26.0671 133.043C25.9187 133.266 25.7216 133.472 25.4758 133.662C25.2346 133.853 24.9332 134.008 24.5714 134.128C24.2932 134.221 23.9847 134.286 23.6462 134.323C23.3076 134.36 22.9018 134.379 22.4287 134.379H20.0217V125.071H22.3452C22.5586 125.071 22.7511 125.075 22.9227 125.085C23.0989 125.089 23.2589 125.099 23.4027 125.112C23.5511 125.126 23.6879 125.145 23.8131 125.168C23.9384 125.187 24.0566 125.21 24.1679 125.238C24.4601 125.317 24.7245 125.426 24.961 125.565C25.2022 125.699 25.4062 125.861 25.5732 126.052C25.7402 126.242 25.8677 126.457 25.9558 126.699C26.0486 126.94 26.095 127.202 26.095 127.485C26.095 127.712 26.0671 127.93 26.0115 128.139C25.9605 128.347 25.8747 128.54 25.7541 128.716C25.6381 128.892 25.4851 129.05 25.2949 129.189C25.1094 129.328 24.8822 129.444 24.6132 129.537V129.565ZM22.8809 129.099C23.1035 129.099 23.296 129.089 23.4583 129.071C23.6207 129.048 23.7668 129.015 23.8966 128.973C24.2445 128.858 24.4972 128.677 24.6549 128.431C24.8172 128.185 24.8984 127.895 24.8984 127.561C24.8984 127.218 24.8149 126.937 24.6479 126.719C24.481 126.501 24.2189 126.339 23.8618 126.232C23.6856 126.181 23.4815 126.147 23.2496 126.128C23.0177 126.105 22.7441 126.093 22.4287 126.093H21.1556V129.099H22.8809ZM21.1556 130.121V133.356H22.5261C22.8508 133.356 23.1522 133.342 23.4305 133.315C23.7088 133.282 23.9453 133.233 24.1401 133.168C24.3534 133.099 24.5343 133.011 24.6827 132.904C24.8311 132.793 24.9494 132.672 25.0375 132.542C25.1303 132.408 25.1952 132.266 25.2323 132.118C25.2741 131.97 25.2949 131.819 25.2949 131.666C25.2949 131.49 25.2741 131.325 25.2323 131.172C25.1906 131.014 25.121 130.875 25.0236 130.754C24.9309 130.629 24.8056 130.52 24.6479 130.427C24.4949 130.335 24.3024 130.263 24.0705 130.212C23.9314 130.179 23.7714 130.156 23.5905 130.142C23.4143 130.128 23.194 130.121 22.9296 130.121H21.1556ZM29.6151 133.356H34.3875V134.379H28.4811V125.071H34.1301V126.093H29.6151V129.099H33.6292V130.121H29.6151V133.356ZM37.4763 133.356H42.2487V134.379H36.3423V125.071H41.9913V126.093H37.4763V129.099H41.4904V130.121H37.4763V133.356ZM49.1359 134.379H48.6141L46.2697 128.82C45.945 128.055 45.6204 127.223 45.2957 126.323H45.2401C45.305 127.617 45.3375 128.802 45.3375 129.878V134.379H44.2035V125.071H45.8384L48.0298 130.337C48.2802 130.94 48.5562 131.666 48.8576 132.514H48.8924C49.2263 131.573 49.5023 130.847 49.7203 130.337L51.9117 125.071H53.5465V134.379H52.4125V129.878C52.4125 128.825 52.445 127.64 52.5099 126.323H52.4543C52.1111 127.274 51.7864 128.106 51.4803 128.82L49.1359 134.379ZM55.9536 134.379V133.022H57.2823V134.379H55.9536ZM66.5349 129.732C66.5349 129.106 66.4537 128.554 66.2914 128.076C66.129 127.598 65.9041 127.199 65.6166 126.879C65.3336 126.559 64.9974 126.318 64.6078 126.156C64.2229 125.989 63.8078 125.906 63.3626 125.906C62.9173 125.906 62.4999 125.989 62.1103 126.156C61.7254 126.318 61.3891 126.559 61.1016 126.879C60.8187 127.199 60.5961 127.598 60.4337 128.076C60.2714 128.554 60.1903 129.106 60.1903 129.732C60.1903 130.358 60.2714 130.91 60.4337 131.387C60.6007 131.861 60.8256 132.257 61.1086 132.577C61.3961 132.897 61.7323 133.138 62.1173 133.301C62.5069 133.463 62.9266 133.544 63.3765 133.544C63.8217 133.544 64.2345 133.463 64.6148 133.301C64.9997 133.138 65.3336 132.897 65.6166 132.577C65.9041 132.257 66.129 131.861 66.2914 131.387C66.4537 130.91 66.5349 130.358 66.5349 129.732ZM67.7314 129.732C67.7314 130.437 67.6294 131.084 67.4253 131.673C67.2213 132.262 66.9291 132.77 66.5488 133.196C66.1685 133.623 65.7093 133.957 65.1713 134.198C64.638 134.435 64.0397 134.553 63.3765 134.553C62.6901 134.553 62.0755 134.435 61.5329 134.198C60.9903 133.957 60.5311 133.623 60.1555 133.196C59.7798 132.77 59.4923 132.262 59.2928 131.673C59.0934 131.084 58.9937 130.437 58.9937 129.732C58.9937 129.022 59.0957 128.373 59.2998 127.784C59.5085 127.19 59.8007 126.68 60.1763 126.253C60.5566 125.827 61.0158 125.495 61.5538 125.259C62.0918 125.017 62.6947 124.897 63.3626 124.897C64.0443 124.897 64.6542 125.017 65.1922 125.259C65.7348 125.495 66.194 125.827 66.5696 126.253C66.9453 126.68 67.2329 127.19 67.4323 127.784C67.6317 128.373 67.7314 129.022 67.7314 129.732ZM74.5282 130.26C75.0987 131.081 75.6622 131.925 76.2187 132.793H76.2605C76.2002 131.888 76.17 130.965 76.17 130.024V125.071H77.304V134.379H76.177L72.5247 129.189C71.8939 128.285 71.3304 127.441 70.8342 126.657H70.7924C70.8527 127.506 70.8829 128.496 70.8829 129.627V134.379H69.7489V125.071H70.8759L74.5282 130.26ZM80.8033 125.071V133.356H85.346V134.379H79.6693V125.071H80.8033ZM87.0853 134.379V125.071H88.2192V134.379H87.0853ZM95.3708 130.26C95.9413 131.081 96.5048 131.925 97.0613 132.793H97.103C97.0428 131.888 97.0126 130.965 97.0126 130.024V125.071H98.1466V134.379H97.0196L93.3672 129.189C92.7365 128.285 92.173 127.441 91.6767 126.657H91.635C91.6953 127.506 91.7254 128.496 91.7254 129.627V134.379H90.5915V125.071H91.7185L95.3708 130.26ZM101.646 133.356H106.418V134.379H100.512V125.071H106.161V126.093H101.646V129.099H105.66V130.121H101.646V133.356Z" fill="white"/>
<defs>
<linearGradient id="paint0_linear_542_1660" x1="58.7714" y1="1.6863" x2="95.6291" y2="65.7658" gradientUnits="userSpaceOnUse">
<stop stop-color="#5F6577"/>
<stop offset="0.11" stop-color="#A6ACBB"/>
<stop offset="0.27" stop-color="#EFEEF1"/>
<stop offset="0.46" stop-color="#BEC1CB"/>
<stop offset="0.61" stop-color="#9AA2AD"/>
<stop offset="0.73" stop-color="#BFC4CC"/>
<stop offset="1" stop-color="#ADB3BC"/>
</linearGradient>
<linearGradient id="paint1_linear_542_1660" x1="22.7187" y1="57.972" x2="99.7255" y2="57.972" gradientUnits="userSpaceOnUse">
<stop stop-color="#5F6577"/>
<stop offset="0.11" stop-color="#A6ACBB"/>
<stop offset="0.27" stop-color="#EFEEF1"/>
<stop offset="0.46" stop-color="#BEC1CB"/>
<stop offset="0.61" stop-color="#9AA2AD"/>
<stop offset="0.73" stop-color="#BFC4CC"/>
<stop offset="1" stop-color="#ADB3BC"/>
</linearGradient>
<linearGradient id="paint2_linear_542_1660" x1="33.0001" y1="52.6441" x2="74.892" y2="52.6441" gradientUnits="userSpaceOnUse">
<stop stop-color="#5F6577"/>
<stop offset="0.11" stop-color="#A6ACBB"/>
<stop offset="0.27" stop-color="#EFEEF1"/>
<stop offset="0.46" stop-color="#BEC1CB"/>
<stop offset="0.61" stop-color="#9AA2AD"/>
<stop offset="0.73" stop-color="#BFC4CC"/>
<stop offset="1" stop-color="#ADB3BC"/>
</linearGradient>
</defs>
</svg>
