<svg width="1920" height="801" viewBox="0 0 1920 801" fill="none" xmlns="http://www.w3.org/2000/svg">
<path fill-rule="evenodd" clip-rule="evenodd" d="M-97 329H1157.41C1189.24 197.164 1307.71 99.2481 1449 99.2481C1590.29 99.2481 1708.76 197.164 1740.59 329H2100V0H-97V329ZM-97 474H1157.94C1190.55 604.406 1308.49 701 1449 701C1589.51 701 1707.45 604.406 1740.06 474H2100V801H-97V474Z" fill="#1E1E2A"/>
<g filter="url(#filter0_b_397_1711)">
<circle cx="1449" cy="401" r="275" fill="url(#paint0_linear_397_1711)" fill-opacity="0.15"/>
</g>
<path d="M1448 221L1345.84 279.943L1448 339.376L1550.17 279.943L1448 221Z" fill="url(#paint1_radial_397_1711)"/>
<path d="M1448 457.26V339.375L1550.17 279.941V398.318L1448 457.26Z" fill="url(#paint2_linear_397_1711)"/>
<path d="M1448 457.26V339.375L1345.84 279.941V398.318L1448 457.26Z" fill="url(#paint3_linear_397_1711)"/>
<path fill-rule="evenodd" clip-rule="evenodd" d="M1448.13 248.375L1447.17 247.82L1446.2 248.358L1367.97 291.684L1366.95 292.249L1366.96 293.415L1367.57 385.167L1367.58 386.283L1368.54 386.848L1407.84 409.934L1409.83 406.546L1371.5 384.025L1370.9 294.556L1447.13 252.334L1457.96 258.582L1458.44 392.038L1458.46 395.404L1461.38 393.738L1500.19 371.634L1501.18 371.069V369.927V339.473V337.484L1501.18 337.484V337.436V337.365V337.293V337.222V337.15V337.078V337.006V336.934V336.861V336.789V336.716V336.643V336.57V336.497V336.423V336.35V336.276V336.203V336.129V336.055V335.98V335.906V335.832V335.757V335.682V335.607V335.532V335.457V335.382V335.307V335.231V335.156V335.08V335.004V334.928V334.852V334.776V334.7V334.623V334.547V334.47V334.393V334.316V334.239V334.162V334.085V334.008V333.93V333.853V333.775V333.698V333.62V333.542V333.464V333.386V333.308V333.23V333.151V333.073V332.994V332.916V332.837V332.758V332.68V332.601V332.522V332.443V332.364V332.284V332.205V332.126V332.046V331.967V331.888V331.808V331.728V331.649V331.569V331.489V331.409V331.329V331.249V331.169V331.089V331.009V330.929V330.848V330.768V330.688V330.608V330.527V330.447V330.366V330.286V330.205V330.125V330.044V329.963V329.883V329.802V329.721V329.64V329.56V329.479V329.398V329.317V329.236V329.155V329.074V328.993V328.912V328.831V328.751V328.67V328.589V328.508V328.427V328.346V328.265V328.184V328.103V328.022V327.941V327.86V327.779V327.698V327.617V327.536V327.455V327.374V327.293V327.212V327.131V327.05V326.969V326.889V326.808V326.727V326.646V326.565V326.485V326.404V326.323V326.243V326.162V326.082V326.001V325.921V325.84V325.76V325.679V325.599V325.519V325.439V325.359V325.278V325.198V325.118V325.038V324.958V324.879V324.799V324.719V324.639V324.56V324.48V324.401V324.321V324.242V324.163V324.083V324.004V323.925V323.846V323.767V323.688V323.61V323.531V323.452V323.374V323.295V323.217V323.139V323.06V322.982V322.904V322.826V322.749V322.671V322.593V322.516V322.438V322.361V322.284V322.206V322.129V322.052V321.976V321.899V321.822V321.746V321.669V321.593V321.517V321.441V321.365V321.289V321.213V321.138V321.062V320.987V320.912V320.837V320.762V320.687V320.613V320.538V320.464V320.389V320.315V320.241V320.167V320.094V320.02V319.947V319.873V319.8V319.727V319.654V319.582V319.509V319.437V319.365V319.293V319.221V319.149V319.077V319.006V318.935V318.864V318.793V318.722V318.651V318.581V318.511V318.44V318.371V318.301V318.231V318.162V318.093V318.024V317.955V317.886V317.818V317.75V317.681V317.614V317.546V317.478V317.411V317.344V317.277V317.21V317.144V317.077V317.011V316.945V316.88V316.814V316.749V316.684V316.619V316.554V316.49V316.426V316.362V316.298V316.234V316.171V316.108V316.045V315.982V315.92V315.857V315.795V315.733V315.672V315.611V315.55V315.489V315.428V315.368V315.308V315.248V315.188V315.129V315.069V315.01V314.952V314.893V314.835V314.777V314.72V314.662V314.605V314.548V314.491V314.435V314.379V314.323V314.268V314.212V314.157V314.102V314.048V313.994V313.94V313.886V313.832V313.779V313.726V313.674V313.622V313.57V313.518V313.466V313.415V313.364V313.314V313.263V313.213V313.164V313.114V313.065V313.016V312.968V312.92V312.872V312.824V312.777V312.73V312.683V312.637V312.59V312.545V312.499V312.454V312.409V312.365V312.32V312.277V312.233V312.19V312.147V312.104V312.062V312.02V311.978V311.937V311.896V311.856V311.815V311.775V311.736V311.697V311.658V311.619V311.581V311.543V311.505V311.468V311.431V311.395V311.359V311.323V311.288V311.252V311.218V311.183V311.149V311.116V311.082V311.05V311.017V310.985V310.953V310.922V310.89V310.86V310.829V310.799V310.77V310.741V310.712V310.683V310.655V310.628V310.6V310.573V310.547V310.521V310.495V310.47V310.445V310.42V310.396V310.372V310.349V310.326V310.303V310.281V310.259V310.238V310.217V310.197V310.176V310.157V310.137V310.119V310.1V310.082V310.064V310.047V310.03V310.014V309.998V309.982V309.967V309.953V309.938V309.925V309.911V309.898V309.886V309.874V309.862V309.851V309.84V309.83V309.82V309.81V309.801V309.793V309.785V309.777V309.77V309.763V309.757V309.751V309.746V309.741V309.736V309.732V309.729V309.726V309.723V309.721V309.719V309.718C1501.18 309.066 1500.85 308.627 1500.81 308.568L1500.8 308.563C1500.71 308.433 1500.62 308.343 1500.58 308.307C1500.5 308.226 1500.42 308.168 1500.4 308.147C1500.33 308.097 1500.27 308.055 1500.24 308.031C1500.16 307.977 1500.06 307.914 1499.95 307.85C1499.74 307.717 1499.44 307.534 1499.06 307.308C1498.31 306.856 1497.22 306.213 1495.89 305.427C1493.21 303.855 1489.5 301.698 1485.4 299.318C1477.64 294.82 1468.44 289.516 1461.99 285.835L1461.88 257.438L1461.88 256.308L1460.9 255.743L1448.13 248.375ZM1462 290.37L1462.18 337.977L1497.25 337.533V337.507V337.436V337.365V337.293V337.222V337.15V337.078V337.006V336.934V336.861V336.789V336.716V336.643V336.57V336.497V336.423V336.35V336.276V336.203V336.129V336.055V335.98V335.906V335.832V335.757V335.682V335.607V335.532V335.457V335.382V335.307V335.231V335.156V335.08V335.004V334.928V334.852V334.776V334.7V334.623V334.547V334.47V334.393V334.316V334.239V334.162V334.085V334.008V333.93V333.853V333.775V333.698V333.62V333.542V333.464V333.386V333.308V333.23V333.151V333.073V332.994V332.916V332.837V332.758V332.68V332.601V332.522V332.443V332.364V332.284V332.205V332.126V332.046V331.967V331.888V331.808V331.728V331.649V331.569V331.489V331.409V331.329V331.249V331.169V331.089V331.009V330.929V330.848V330.768V330.688V330.608V330.527V330.447V330.366V330.286V330.205V330.125V330.044V329.963V329.883V329.802V329.721V329.64V329.56V329.479V329.398V329.317V329.236V329.155V329.074V328.993V328.912V328.831V328.751V328.67V328.589V328.508V328.427V328.346V328.265V328.184V328.103V328.022V327.941V327.86V327.779V327.698V327.617V327.536V327.455V327.374V327.293V327.212V327.131V327.05V326.969V326.889V326.808V326.727V326.646V326.565V326.485V326.404V326.323V326.243V326.162V326.082V326.001V325.921V325.84V325.76V325.679V325.599V325.519V325.439V325.359V325.278V325.198V325.118V325.038V324.958V324.879V324.799V324.719V324.639V324.56V324.48V324.401V324.321V324.242V324.163V324.083V324.004V323.925V323.846V323.767V323.688V323.61V323.531V323.452V323.374V323.295V323.217V323.139V323.06V322.982V322.904V322.826V322.749V322.671V322.593V322.516V322.438V322.361V322.284V322.206V322.129V322.052V321.976V321.899V321.822V321.746V321.669V321.593V321.517V321.441V321.365V321.289V321.213V321.138V321.062V320.987V320.912V320.837V320.762V320.687V320.613V320.538V320.464V320.389V320.315V320.241V320.167V320.094V320.02V319.947V319.873V319.8V319.727V319.654V319.582V319.509V319.437V319.365V319.293V319.221V319.149V319.077V319.006V318.935V318.864V318.793V318.722V318.651V318.581V318.511V318.44V318.371V318.301V318.231V318.162V318.093V318.024V317.955V317.886V317.818V317.75V317.681V317.614V317.546V317.478V317.411V317.344V317.277V317.21V317.144V317.077V317.011V316.945V316.88V316.814V316.749V316.684V316.619V316.554V316.49V316.426V316.362V316.298V316.234V316.171V316.108V316.045V315.982V315.92V315.857V315.795V315.733V315.672V315.611V315.55V315.489V315.428V315.368V315.308V315.248V315.188V315.129V315.069V315.01V314.952V314.893V314.835V314.777V314.72V314.662V314.605V314.548V314.491V314.435V314.379V314.323V314.268V314.212V314.157V314.102V314.048V313.994V313.94V313.886V313.832V313.779V313.726V313.674V313.622V313.57V313.518V313.466V313.415V313.364V313.314V313.263V313.213V313.164V313.114V313.065V313.016V312.968V312.92V312.872V312.824V312.777V312.73V312.683V312.637V312.59V312.545V312.499V312.454V312.409V312.365V312.32V312.277V312.233V312.19V312.147V312.104V312.062V312.02V311.978V311.937V311.896V311.856V311.815V311.775V311.736V311.697V311.658V311.619V311.581V311.543V311.505V311.468V311.431V311.395V311.359V311.323V311.288V311.252V311.218V311.183V311.149V311.116V311.082V311.05V311.017V310.985V310.953V310.922V310.89V310.86V310.829V310.8L1497.04 310.678C1496.3 310.235 1495.23 309.6 1493.9 308.816C1491.23 307.249 1487.53 305.096 1483.43 302.718C1476.43 298.661 1468.26 293.951 1462 290.37ZM1462.36 388.657L1462.19 341.907L1497.25 341.463V368.785L1462.36 388.657ZM1522.79 295.915L1484.48 273.883L1486.44 270.477L1525.73 293.071L1526.71 293.634L1526.72 294.764L1527.21 384.16L1527.21 385.286L1526.25 385.861L1449 431.69L1448.01 432.282L1447.01 431.694L1433.38 423.686L1432.41 423.117V421.992V393.664C1425.81 389.909 1416.54 384.57 1408.77 380.072C1404.68 377.707 1401.01 375.573 1398.36 374.023C1397.04 373.249 1395.96 372.618 1395.22 372.176C1394.85 371.956 1394.56 371.78 1394.35 371.654C1394.25 371.593 1394.16 371.537 1394.09 371.491C1394.06 371.471 1394.01 371.438 1393.96 371.402C1393.94 371.388 1393.88 371.346 1393.81 371.288C1393.78 371.265 1393.7 371.195 1393.61 371.094C1393.56 371.039 1393.45 370.89 1393.39 370.795C1393.3 370.629 1393.14 370.126 1393.11 369.787L1393.11 369.195C1393.11 366.834 1393.11 357.681 1393.11 346.678C1393.11 333.906 1393.11 318.642 1393.11 308.619V307.459L1394.12 306.899L1433.42 285.196L1436.34 283.586V286.916V420.868L1448 427.719L1523.27 383.056L1522.79 295.915ZM1432.41 389.142V290.245L1397.04 309.778C1397.04 319.793 1397.04 334.389 1397.04 346.678C1397.04 357.009 1397.04 365.711 1397.04 368.689L1397.23 368.798C1397.96 369.232 1399.02 369.858 1400.35 370.631C1402.99 372.177 1406.66 374.308 1410.74 376.671C1417.77 380.741 1426.02 385.497 1432.41 389.142ZM1498.04 311.288C1498.04 311.29 1498.04 311.291 1498.04 311.29L1498.04 311.288Z" fill="url(#paint4_linear_397_1711)"/>
<circle cx="1483.99" cy="271.199" r="4.91188" fill="#F5F8FF"/>
<circle cx="1409.33" cy="408.728" r="4.91188" fill="#BACDFE"/>
<defs>
<filter id="filter0_b_397_1711" x="1158" y="110" width="582" height="582" filterUnits="userSpaceOnUse" color-interpolation-filters="sRGB">
<feFlood flood-opacity="0" result="BackgroundImageFix"/>
<feGaussianBlur in="BackgroundImage" stdDeviation="8"/>
<feComposite in2="SourceAlpha" operator="in" result="effect1_backgroundBlur_397_1711"/>
<feBlend mode="normal" in="SourceGraphic" in2="effect1_backgroundBlur_397_1711" result="shape"/>
</filter>
<linearGradient id="paint0_linear_397_1711" x1="1165.54" y1="188.857" x2="1831.96" y2="199.169" gradientUnits="userSpaceOnUse">
<stop stop-color="#416CCA"/>
<stop offset="1" stop-color="#7852CB"/>
</linearGradient>
<radialGradient id="paint1_radial_397_1711" cx="0" cy="0" r="1" gradientUnits="userSpaceOnUse" gradientTransform="translate(1447.51 226.894) rotate(90) scale(70.2399 121.244)">
<stop stop-color="#5C86E1"/>
<stop offset="1" stop-color="#8BAAEB"/>
</radialGradient>
<linearGradient id="paint2_linear_397_1711" x1="1545.26" y1="287.8" x2="1447.51" y2="457.26" gradientUnits="userSpaceOnUse">
<stop stop-color="#4668C1"/>
<stop offset="1" stop-color="#6C3ABF"/>
</linearGradient>
<linearGradient id="paint3_linear_397_1711" x1="1396.43" y1="440.069" x2="1399.38" y2="311.377" gradientUnits="userSpaceOnUse">
<stop stop-color="#402E82"/>
<stop offset="1" stop-color="#476DC7"/>
</linearGradient>
<linearGradient id="paint4_linear_397_1711" x1="1447.08" y1="247.82" x2="1447.51" y2="447.59" gradientUnits="userSpaceOnUse">
<stop stop-color="#FDFEFF"/>
<stop offset="1" stop-color="#A7BFFE"/>
</linearGradient>
</defs>
</svg>
