<svg width="124" height="115" viewBox="0 0 124 115" fill="none" xmlns="http://www.w3.org/2000/svg">
<path d="M117.014 0.0375051L68.966 35.8488L77.856 14.7144L117.014 0.0375051Z" fill="#E2761B"/>
<path d="M6.11947 0.00193139L53.7582 36.1832L45.3164 14.7039L6.11947 0.00193139ZM99.7037 83.078L86.9037 102.757L114.275 110.328L122.153 83.5216L99.7037 83.078ZM1.02351 83.4827L8.83593 110.295L36.2119 102.741L23.4246 83.0536L1.02351 83.4827Z" fill="#E4761B"/>
<path d="M34.684 49.8L27.0524 61.3842L54.2325 62.6049L53.2763 33.2743L34.684 49.8ZM88.4173 49.8172L69.5944 32.9402L68.9572 62.6097L96.0898 61.4064L88.4173 49.8172ZM36.2119 102.741L52.5324 94.7466L38.4388 83.6886L36.2119 102.741ZM70.5401 94.7524L86.9037 102.757L84.6408 83.7035L70.5401 94.7524Z" fill="#E4761B"/>
<path d="M86.9036 102.757L70.5399 94.7523L71.84 105.467L71.6937 109.975L86.9036 102.757ZM36.2118 102.74L51.417 109.969L51.3219 105.46L52.5323 94.7465L36.2118 102.74Z" fill="#D7C1B3"/>
<path d="M51.6693 76.6148L38.0562 72.5866L47.6649 68.178L51.6693 76.6148ZM71.4149 76.6211L75.4247 68.1869L85.0789 72.6016L71.4149 76.6211Z" fill="#233447"/>
<path d="M36.212 102.741L38.5357 83.0585L23.4245 83.4899L36.212 102.741ZM84.5928 83.0732L86.9038 102.757L99.7036 83.5144L84.5928 83.0732ZM96.0899 61.4064L68.9573 62.6097L71.4633 76.6212L75.4731 68.187L85.1272 72.6017L96.0899 61.4064ZM38.0563 72.5866L47.7133 68.1781L51.6693 76.6148L54.2326 62.605L27.0525 61.3842L38.0563 72.5866Z" fill="#CD6116"/>
<path d="M27.0527 61.3842L38.4392 83.6887L38.0565 72.5866L27.0527 61.3842ZM85.1275 72.6017L84.6411 83.7035L96.0901 61.4064L85.1275 72.6017ZM54.2328 62.605L51.6696 76.6148L54.8506 93.1475L55.5818 71.3803L54.2328 62.605ZM68.9576 62.6097L67.6513 71.3357L68.2236 93.1518L71.4635 76.6212L68.9576 62.6097Z" fill="#E4751F"/>
<path d="M71.4637 76.6212L68.2237 93.1518L70.5406 94.7524L84.6413 83.7035L85.1276 72.6017L71.4637 76.6212ZM38.0566 72.5866L38.4393 83.6887L52.5329 94.7466L54.8508 93.1475L51.6697 76.6148L38.0566 72.5866Z" fill="#F6851B"/>
<path d="M71.6939 109.975L71.8401 105.467L70.6335 104.4L52.4328 104.394L51.322 105.46L51.4171 109.969L36.2119 102.741L41.5211 107.105L52.2847 114.623L70.7751 114.629L81.5918 107.118L86.9037 102.757L71.6939 109.975Z" fill="#C0AD9E"/>
<path d="M70.5403 94.7524L68.2234 93.1518L54.8505 93.1476L52.5326 94.7466L51.3222 105.46L52.4329 104.394L70.6337 104.4L71.8403 105.467L70.5403 94.7524Z" fill="#161616"/>
<path d="M119.029 38.1919L123.139 18.4134L117.014 0.0375269L70.5595 34.6373L88.4175 49.8172L113.664 57.2428L119.267 50.6998L116.853 48.9537L120.717 45.4159L117.724 43.0879L121.588 40.1319L119.029 38.1919ZM0.0307267 18.3739L4.128 38.155L1.52038 40.0934L5.38166 43.0519L2.43596 45.378L6.29706 48.9182L3.8826 50.6628L9.43246 57.2093L34.6842 49.8L52.5519 34.6315L6.11964 0.00195146L0.0307267 18.3739Z" fill="#763D16"/>
<path d="M113.665 57.2427L88.4177 49.8172L96.0901 61.4064L84.6411 83.7034L99.7039 83.5144L122.153 83.5216L113.665 57.2427ZM34.6843 49.7999L9.43261 57.2093L1.02383 83.4827L23.4248 83.4899L38.4391 83.6886L27.0527 61.3842L34.6843 49.7999ZM68.9576 62.6096L70.5597 34.6372L77.9043 14.7144L45.3167 14.7039L52.552 34.6315L54.2328 62.6049L54.8093 71.4285L54.8506 93.1475L68.2236 93.1518L68.3271 71.4328L68.9576 62.6096Z" fill="#F6851B"/>
</svg>
