<svg width="53" height="53" viewBox="0 0 53 53" fill="none" xmlns="http://www.w3.org/2000/svg">
<path d="M36.6208 19.6846C35.8874 19.2524 34.934 19.2524 34.1273 19.6846L28.4068 22.9984L24.5198 25.1597L18.7993 28.4734C18.0659 28.9057 17.1125 28.9057 16.3058 28.4734L11.7588 25.8799C11.0254 25.4477 10.512 24.6554 10.512 23.7909L10.512 18.676C10.512 17.8116 10.952 17.0191 11.7588 16.5869L16.2325 14.0655C16.9659 13.6333 17.9193 13.6333 18.726 14.0655L23.1997 16.5869C23.9331 17.0191 24.4465 17.8116 24.4465 18.676L24.4465 21.9899L28.3335 19.7566L28.3335 16.4428C28.3335 15.5783 27.8935 14.7859 27.0867 14.3536L18.7993 9.59902C18.0659 9.16678 17.1125 9.16678 16.3058 9.59902L7.87177 14.3536C7.06504 14.7859 6.625 15.5783 6.625 16.4428L6.625 26.0241C6.625 26.8886 7.06504 27.6811 7.87177 28.1133L16.3058 32.8679C17.0392 33.3001 17.9926 33.3001 18.7993 32.8679L24.5198 29.6261L28.4068 27.3929L34.1273 24.1511C34.8607 23.7188 35.8141 23.7188 36.6208 24.1511L41.0945 26.6725C41.8278 27.1047 42.3413 27.8972 42.3413 28.7616L42.3413 33.8764C42.3413 34.741 41.9013 35.5333 41.0945 35.9656L36.6208 38.5591C35.8874 38.9913 34.934 38.9913 34.1273 38.5591L29.6537 36.0377C28.9202 35.6054 28.4068 34.8129 28.4068 33.9485L28.4068 30.6347L24.5198 32.8679L24.5198 36.1817C24.5198 37.0461 24.9599 37.8386 25.7665 38.2709L34.2007 43.0255C34.934 43.4577 35.8874 43.4577 36.6941 43.0255L45.1283 38.2709C45.8616 37.8386 46.375 37.0461 46.375 36.1817L46.375 26.6004C46.375 25.7359 45.9349 24.9436 45.1283 24.5113L36.6208 19.6846Z" fill="#8247E5"/>
</svg>
