<svg width="1920" height="239" viewBox="0 0 1920 239" fill="none" xmlns="http://www.w3.org/2000/svg">
<path fill-rule="evenodd" clip-rule="evenodd" d="M205.232 5.71664H204.3L203.638 6.37329L92.0031 117.093L92.3997 117.493C61.4243 117.495 29.96 117.497 -2 117.497V122.497C124.846 122.497 243.885 122.475 355.538 122.435L466.638 232.624L467.3 233.281H468.232V231.016C468.232 233.281 468.233 233.281 468.235 233.281H468.242H468.253H468.27H468.291H468.317H468.347H468.383H468.422H468.467H468.516H468.569H468.627H468.69H468.757H468.829H468.905H468.986H469.071H469.161H469.255H469.354H469.457H469.564H469.676H469.792H469.913H470.037H470.167H470.3H470.438H470.58H470.727H470.878H471.033H471.192H471.355H471.523H471.695H471.871H472.051H472.236H472.424H472.617H472.814H473.015H473.22H473.429H473.642H473.859H474.08H474.306H474.535H474.768H475.005H475.246H475.491H475.74H475.993H476.25H476.511H476.775H477.044H477.316H477.592H477.872H478.156H478.444H478.735H479.03H479.329H479.631H479.938H480.247H480.561H480.879H481.2H481.524H481.852H482.184H482.52H482.859H483.202H483.548H483.898H484.251H484.608H484.968H485.332H485.699H486.07H486.444H486.822H487.203H487.588H487.975H488.367H488.761H489.159H489.561H489.965H490.373H490.785H491.199H491.617H492.038H492.462H492.89H493.32H493.754H494.191H494.632H495.075H495.522H495.971H496.424H496.88H497.339H497.801H498.266H498.734H499.205H499.679H500.156H500.637H501.12H501.606H502.095H502.587H503.082H503.579H504.08H504.583H505.09H505.599H506.111H506.626H507.143H507.664H508.187H508.713H509.241H509.773H510.307H510.844H511.383H511.925H512.47H513.018H513.568H514.12H514.676H515.234H515.794H516.357H516.923H517.491H518.061H518.635H519.21H519.788H520.369H520.952H521.537H522.125H522.715H523.308H523.903H524.5H525.1H525.702H526.306H526.913H527.522H528.133H528.747H529.362H529.98H530.6H531.223H531.847H532.474H533.103H533.734H534.367H535.003H535.64H536.279H536.921H537.565H538.21H538.858H539.508H540.16H540.813H541.469H542.127H542.786H543.448H544.111H544.777H545.444H546.113H546.784H547.457H548.132H548.808H549.487H550.167H550.849H551.533H552.218H552.905H553.594H554.285H554.977H555.671H556.367H557.064H557.763H558.463H559.166H559.869H560.575H561.282H561.99H562.7H563.412H564.125H564.839H565.555H566.273H566.992H567.712H568.434H569.157H569.882H570.608H571.335H572.064H572.794H573.525H574.258H574.992H575.727H576.464H577.202H577.941H578.681H579.422H580.165H580.909H581.654H582.4H583.148H583.896H584.646H585.396H586.148H586.901H587.655H588.41H589.166H589.923H590.681H591.44H592.2H592.961H593.723H594.486H595.249H596.014H596.779H597.546H598.313H599.081H599.85H600.62H601.39H602.162H602.934H603.707H604.48H605.255H606.03H606.805H607.582H608.359H609.137H609.915H610.694H611.474H612.254H613.035H613.817H614.599H615.381H616.164H616.948H617.732H618.517H619.302H620.087H620.873H621.66H622.447H623.234H624.022H624.81H625.598H626.387H627.176H627.965H628.755H629.545H630.335H631.126H631.917H632.708H633.499H634.291H635.082H635.874H636.666H637.458H638.251H639.043H639.836H640.628H641.421H642.214H643.007H643.8H644.593H645.385H646.178H646.971H647.764H648.557H649.35H650.142H650.935H651.728H652.52H653.312H654.104H654.896H655.688H656.48H657.271H658.062H658.853H659.644H660.434H661.224H662.014H662.804H663.593H664.382H665.171H665.959H666.747H667.534H668.321H669.108H669.894H670.68H671.465H672.25H673.034H673.818H674.602H675.385H676.167H676.949H677.73H678.51H679.29H680.07H680.849H681.627H682.404H683.181H683.957H684.732H685.507H686.281H687.054H687.827H688.598H689.369H690.14H690.909H691.677H692.445H693.212H693.978H694.743H695.507H696.27H697.033H697.794H698.554H699.314H700.072H700.83H701.586H702.342H703.096H703.85H704.602H705.353H706.103H706.852H707.6H708.347H709.093H709.837H710.581H711.323H712.063H712.803H713.542H714.279H715.015H715.749H716.483H717.215H717.945H718.675H719.403H720.13H720.855H721.579H722.301H723.022H723.742H724.46H725.177H725.892H726.606H727.318H728.029H728.738H729.446H730.152H730.857H731.56H732.261H732.961H733.659H734.355H735.05H735.743H736.435H737.125H737.813H738.499H739.184H739.866H740.547H741.227H741.904H742.58H743.253H743.925H744.595H745.264H745.93H746.594H747.257H747.918H748.576H749.233H749.888H750.54H751.191H751.84H752.487H753.131H753.774H754.414H755.053H755.689H756.323H756.956H757.585H758.213H758.839H759.462H760.084H760.703H761.32H761.934H762.546H763.157H763.764H764.37H764.924C765.902 236.585 768.967 238.997 772.598 238.997C777.016 238.997 780.598 235.425 780.598 231.017C780.598 226.61 777.016 223.038 772.598 223.038C768.968 223.038 765.904 225.448 764.925 228.752H764.37H763.764H763.157H762.546H761.934H761.32H760.703H760.084H759.462H758.839H758.213H757.585H756.956H756.323H755.689H755.053H754.414H753.774H753.131H752.487H751.84H751.191H750.54H749.888H749.233H748.576H747.918H747.257H746.594H745.93H745.264H744.595H743.925H743.253H742.58H741.904H741.227H740.547H739.866H739.184H738.499H737.813H737.125H736.435H735.743H735.05H734.355H733.659H732.961H732.261H731.56H730.857H730.152H729.446H728.738H728.029H727.318H726.606H725.892H725.177H724.46H723.742H723.022H722.301H721.579H720.855H720.13H719.403H718.675H717.945H717.215H716.483H715.749H715.015H714.279H713.542H712.803H712.063H711.323H710.581H709.837H709.093H708.347H707.6H706.852H706.103H705.353H704.602H703.85H703.096H702.342H701.586H700.83H700.072H699.314H698.554H697.794H697.033H696.27H695.507H694.743H693.978H693.212H692.445H691.677H690.909H690.14H689.369H688.598H687.827H687.054H686.281H685.507H684.732H683.957H683.181H682.404H681.627H680.849H680.07H679.29H678.51H677.73H676.949H676.167H675.385H674.602H673.818H673.034H672.25H671.465H670.68H669.894H669.108H668.321H667.534H666.747H665.959H665.171H664.382H663.593H662.804H662.014H661.224H660.434H659.644H658.853H658.062H657.271H656.48H655.688H654.896H654.104H653.312H652.52H651.728H650.935H650.142H649.35H648.557H647.764H646.971H646.178H645.385H644.593H643.8H643.007H642.214H641.421H640.628H639.836H639.043H638.251H637.458H636.666H635.874H635.082H634.291H633.499H632.708H631.917H631.126H630.335H629.545H628.755H627.965H627.176H626.387H625.598H624.81H624.022H623.234H622.447H621.66H620.873H620.087H619.302H618.517H617.732H616.948H616.164H615.381H614.599H613.817H613.035H612.254H611.474H610.694H609.915H609.137H608.359H607.582H606.805H606.03H605.255H604.48H603.707H602.934H602.162H601.39H600.62H599.85H599.081H598.313H597.546H596.779H596.014H595.249H594.486H593.723H592.961H592.2H591.44H590.681H589.923H589.166H588.41H587.655H586.901H586.148H585.396H584.646H583.896H583.148H582.4H581.654H580.909H580.165H579.422H578.681H577.941H577.202H576.464H575.727H574.992H574.258H573.525H572.794H572.064H571.335H570.608H569.882H569.157H568.434H567.712H566.992H566.273H565.555H564.839H564.125H563.412H562.7H561.99H561.282H560.575H559.869H559.166H558.463H557.763H557.064H556.367H555.671H554.977H554.285H553.594H552.905H552.218H551.533H550.849H550.167H549.487H548.808H548.132H547.457H546.784H546.113H545.444H544.777H544.111H543.448H542.786H542.127H541.469H540.813H540.16H539.508H538.858H538.21H537.565H536.921H536.279H535.64H535.003H534.367H533.734H533.103H532.474H531.847H531.223H530.6H529.98H529.362H528.747H528.133H527.522H526.913H526.306H525.702H525.1H524.5H523.903H523.308H522.715H522.125H521.537H520.952H520.369H519.788H519.21H518.635H518.061H517.491H516.923H516.357H515.794H515.234H514.676H514.12H513.568H513.018H512.47H511.925H511.383H510.844H510.307H509.773H509.241H508.713H508.187H507.664H507.143H506.626H506.111H505.599H505.09H504.583H504.08H503.579H503.082H502.587H502.095H501.606H501.12H500.637H500.156H499.679H499.205H498.734H498.266H497.801H497.339H496.88H496.424H495.971H495.522H495.075H494.632H494.191H493.754H493.32H492.89H492.462H492.038H491.617H491.199H490.785H490.373H489.965H489.561H489.159H488.761H488.367H487.975H487.588H487.203H486.822H486.444H486.07H485.699H485.332H484.968H484.608H484.251H483.898H483.548H483.202H482.859H482.52H482.184H481.852H481.524H481.2H480.879H480.561H480.247H479.938H479.631H479.329H479.03H478.735H478.444H478.156H477.872H477.592H477.316H477.044H476.775H476.511H476.25H475.993H475.74H475.491H475.246H475.005H474.768H474.535H474.306H474.08H473.859H473.642H473.429H473.22H473.015H472.814H472.617H472.424H472.236H472.051H471.871H471.695H471.523H471.355H471.192H471.033H470.878H470.727H470.58H470.438H470.3H470.167H470.037H469.913H469.792H469.676H469.564H469.457H469.354H469.255H469.165L361.967 122.433C903.181 122.237 1270.17 121.617 1511.35 120.997C1744.62 120.397 1860.18 119.797 1901.87 119.581L1901.88 119.581L1901.88 119.581C1912.34 119.527 1918.14 119.497 1920 119.497V114.497C1918.15 114.497 1912.34 114.527 1901.89 114.581L1901.89 114.581L1901.88 114.581L1901.87 114.581C1860.17 114.797 1744.58 115.397 1511.33 115.997C1413.11 116.249 1294.03 116.502 1150.8 116.726L1258.16 10.2454H1258.25H1258.35H1258.46H1258.56H1258.68H1258.79H1258.91H1259.04H1259.17H1259.3H1259.44H1259.58H1259.73H1259.88H1260.03H1260.19H1260.36H1260.52H1260.7H1260.87H1261.05H1261.24H1261.42H1261.62H1261.81H1262.01H1262.22H1262.43H1262.64H1262.86H1263.08H1263.31H1263.53H1263.77H1264.01H1264.25H1264.49H1264.74H1264.99H1265.25H1265.51H1265.78H1266.04H1266.32H1266.59H1266.87H1267.16H1267.44H1267.73H1268.03H1268.33H1268.63H1268.94H1269.25H1269.56H1269.88H1270.2H1270.52H1270.85H1271.18H1271.52H1271.86H1272.2H1272.55H1272.9H1273.25H1273.61H1273.97H1274.33H1274.7H1275.07H1275.44H1275.82H1276.2H1276.59H1276.98H1277.37H1277.76H1278.16H1278.56H1278.97H1279.37H1279.78H1280.2H1280.62H1281.04H1281.46H1281.89H1282.32H1282.75H1283.19H1283.63H1284.07H1284.52H1284.97H1285.42H1285.88H1286.34H1286.8H1287.27H1287.73H1288.21H1288.68H1289.16H1289.64H1290.12H1290.61H1291.09H1291.59H1292.08H1292.58H1293.08H1293.58H1294.09H1294.6H1295.11H1295.63H1296.14H1296.66H1297.19H1297.71H1298.24H1298.77H1299.31H1299.84H1300.38H1300.93H1301.47H1302.02H1302.57H1303.12H1303.68H1304.23H1304.79H1305.36H1305.92H1306.49H1307.06H1307.63H1308.21H1308.79H1309.37H1309.95H1310.54H1311.12H1311.72H1312.31H1312.9H1313.5H1314.1H1314.7H1315.31H1315.91H1316.52H1317.13H1317.75H1318.36H1318.98H1319.6H1320.22H1320.85H1321.47H1322.1H1322.73H1323.37H1324H1324.64H1325.28H1325.92H1326.56H1327.21H1327.86H1328.51H1329.16H1329.81H1330.47H1331.13H1331.79H1332.45H1333.11H1333.78H1334.44H1335.11H1335.78H1336.46H1337.13H1337.81H1338.49H1339.17H1339.85H1340.53H1341.22H1341.91H1342.59H1343.28H1343.98H1344.67H1345.37H1346.06H1346.76H1347.46H1348.17H1348.87H1349.57H1350.28H1350.99H1351.7H1352.41H1353.12H1353.84H1354.56H1355.27H1355.99H1356.71H1357.43H1358.16H1358.88H1359.61H1360.34H1361.06H1361.79H1362.53H1363.26H1363.99H1364.73H1365.46H1366.2H1366.94H1367.68H1368.42H1369.17H1369.91H1370.65H1371.4H1372.15H1372.9H1373.65H1374.4H1375.15H1375.9H1376.66H1377.41H1378.17H1378.92H1379.68H1380.44H1381.2H1381.96H1382.72H1383.49H1384.25H1385.01H1385.78H1386.55H1387.31H1388.08H1388.85H1389.62H1390.39H1391.16H1391.93H1392.71H1393.48H1394.25H1395.03H1395.81H1396.58H1397.36H1398.14H1398.92H1399.69H1400.47H1401.25H1402.04H1402.82H1403.6H1404.38H1405.16H1405.95H1406.73H1407.52H1408.3H1409.09H1409.87H1410.66H1411.45H1412.23H1413.02H1413.81H1414.6H1415.39H1416.18H1416.97H1417.76H1418.55H1419.34H1420.13H1420.92H1421.71H1422.5H1423.29H1424.08H1424.87H1425.67H1426.46H1427.25H1428.04H1428.84H1429.63H1430.42H1431.21H1432.01H1432.8H1433.59H1434.39H1435.18H1435.97H1436.76H1437.56H1438.35H1439.14H1439.93H1440.73H1441.52H1442.31H1443.1H1443.9H1444.69H1445.48H1446.27H1447.06H1447.85H1448.64H1449.43H1450.22H1451.01H1451.8H1452.59H1453.38H1454.17H1454.96H1455.75H1456.53H1457.32H1458.11H1458.89H1459.68H1460.47H1461.25H1462.03H1462.82H1463.6H1464.38H1465.17H1465.95H1466.73H1467.51H1468.29H1469.07H1469.85H1470.63H1471.4H1472.18H1472.96H1473.73H1474.51H1475.28H1476.05H1476.83H1477.6H1478.37H1479.14H1479.91H1480.68H1481.44H1482.21H1482.98H1483.74H1484.51H1485.27H1486.03H1486.79H1487.55H1488.31H1489.07H1489.83H1490.59H1491.34H1492.1H1492.85H1493.6H1494.35H1495.1H1495.85H1496.6H1497.35H1498.09H1498.84H1499.58H1500.32H1501.06H1501.8H1502.54H1503.28H1504.01H1504.75H1505.48H1506.21H1506.95H1507.67H1508.4H1509.13H1509.85H1510.58H1511.3H1512.02H1512.74H1513.46H1514.18H1514.89H1515.61H1516.32H1517.03H1517.74H1518.45H1519.15H1519.86H1520.56H1521.26H1521.96H1522.66H1523.36H1524.05H1524.74H1525.43H1526.12H1526.81H1527.5H1528.18H1528.87H1529.55H1530.23H1530.9H1531.58H1532.25H1532.93H1533.6H1534.26H1534.93H1535.59H1536.26H1536.92H1537.58H1538.23H1538.89H1539.54H1540.19H1540.84H1541.49H1542.13H1542.77H1543.41H1544.05H1544.69H1545.32H1545.96H1546.59H1547.21H1547.84H1548.46H1549.08H1549.7H1550.32H1550.93H1551.55H1552.16H1552.76H1553.37H1553.92C1554.9 13.549 1557.97 15.9595 1561.6 15.9595C1566.02 15.9595 1569.6 12.3869 1569.6 7.97977C1569.6 3.57266 1566.02 0 1561.6 0C1557.97 0 1554.9 2.4118 1553.92 5.71664H1553.37H1552.76H1552.16H1551.55H1550.93H1550.32H1549.7H1549.08H1548.46H1547.84H1547.21H1546.59H1545.96H1545.32H1544.69H1544.05H1543.41H1542.77H1542.13H1541.49H1540.84H1540.19H1539.54H1538.89H1538.23H1537.58H1536.92H1536.26H1535.59H1534.93H1534.26H1533.6H1532.93H1532.25H1531.58H1530.9H1530.23H1529.55H1528.87H1528.18H1527.5H1526.81H1526.12H1525.43H1524.74H1524.05H1523.36H1522.66H1521.96H1521.26H1520.56H1519.86H1519.15H1518.45H1517.74H1517.03H1516.32H1515.61H1514.89H1514.18H1513.46H1512.74H1512.02H1511.3H1510.58H1509.85H1509.13H1508.4H1507.67H1506.95H1506.21H1505.48H1504.75H1504.01H1503.28H1502.54H1501.8H1501.06H1500.32H1499.58H1498.84H1498.09H1497.35H1496.6H1495.85H1495.1H1494.35H1493.6H1492.85H1492.1H1491.34H1490.59H1489.83H1489.07H1488.31H1487.55H1486.79H1486.03H1485.27H1484.51H1483.74H1482.98H1482.21H1481.44H1480.68H1479.91H1479.14H1478.37H1477.6H1476.83H1476.05H1475.28H1474.51H1473.73H1472.96H1472.18H1471.4H1470.63H1469.85H1469.07H1468.29H1467.51H1466.73H1465.95H1465.17H1464.38H1463.6H1462.82H1462.03H1461.25H1460.47H1459.68H1458.89H1458.11H1457.32H1456.53H1455.75H1454.96H1454.17H1453.38H1452.59H1451.8H1451.01H1450.22H1449.43H1448.64H1447.85H1447.06H1446.27H1445.48H1444.69H1443.9H1443.1H1442.31H1441.52H1440.73H1439.93H1439.14H1438.35H1437.56H1436.76H1435.97H1435.18H1434.39H1433.59H1432.8H1432.01H1431.21H1430.42H1429.63H1428.84H1428.04H1427.25H1426.46H1425.67H1424.87H1424.08H1423.29H1422.5H1421.71H1420.92H1420.13H1419.34H1418.55H1417.76H1416.97H1416.18H1415.39H1414.6H1413.81H1413.02H1412.23H1411.45H1410.66H1409.87H1409.09H1408.3H1407.52H1406.73H1405.95H1405.16H1404.38H1403.6H1402.82H1402.04H1401.25H1400.47H1399.69H1398.92H1398.14H1397.36H1396.58H1395.81H1395.03H1394.25H1393.48H1392.71H1391.93H1391.16H1390.39H1389.62H1388.85H1388.08H1387.31H1386.55H1385.78H1385.01H1384.25H1383.49H1382.72H1381.96H1381.2H1380.44H1379.68H1378.92H1378.17H1377.41H1376.66H1375.9H1375.15H1374.4H1373.65H1372.9H1372.15H1371.4H1370.65H1369.91H1369.17H1368.42H1367.68H1366.94H1366.2H1365.46H1364.73H1363.99H1363.26H1362.53H1361.79H1361.06H1360.34H1359.61H1358.88H1358.16H1357.43H1356.71H1355.99H1355.27H1354.56H1353.84H1353.12H1352.41H1351.7H1350.99H1350.28H1349.57H1348.87H1348.17H1347.46H1346.76H1346.06H1345.37H1344.67H1343.98H1343.28H1342.59H1341.91H1341.22H1340.53H1339.85H1339.17H1338.49H1337.81H1337.13H1336.46H1335.78H1335.11H1334.44H1333.78H1333.11H1332.45H1331.79H1331.13H1330.47H1329.81H1329.16H1328.51H1327.86H1327.21H1326.56H1325.92H1325.28H1324.64H1324H1323.37H1322.73H1322.1H1321.47H1320.85H1320.22H1319.6H1318.98H1318.36H1317.75H1317.13H1316.52H1315.91H1315.31H1314.7H1314.1H1313.5H1312.9H1312.31H1311.72H1311.12H1310.54H1309.95H1309.37H1308.79H1308.21H1307.63H1307.06H1306.49H1305.92H1305.36H1304.79H1304.23H1303.68H1303.12H1302.57H1302.02H1301.47H1300.93H1300.38H1299.84H1299.31H1298.77H1298.24H1297.71H1297.19H1296.66H1296.14H1295.63H1295.11H1294.6H1294.09H1293.58H1293.08H1292.58H1292.08H1291.59H1291.09H1290.61H1290.12H1289.64H1289.16H1288.68H1288.21H1287.73H1287.27H1286.8H1286.34H1285.88H1285.42H1284.97H1284.52H1284.07H1283.63H1283.19H1282.75H1282.32H1281.89H1281.46H1281.04H1280.62H1280.2H1279.78H1279.37H1278.97H1278.56H1278.16H1277.76H1277.37H1276.98H1276.59H1276.2H1275.82H1275.44H1275.07H1274.7H1274.33H1273.97H1273.61H1273.25H1272.9H1272.55H1272.2H1271.86H1271.52H1271.18H1270.85H1270.52H1270.2H1269.88H1269.56H1269.25H1268.94H1268.63H1268.33H1268.03H1267.73H1267.44H1267.16H1266.87H1266.59H1266.32H1266.04H1265.78H1265.51H1265.25H1264.99H1264.74H1264.49H1264.25H1264.01H1263.77H1263.53H1263.31H1263.08H1262.86H1262.64H1262.43H1262.22H1262.01H1261.81H1261.62H1261.42H1261.24H1261.05H1260.87H1260.7H1260.52H1260.36H1260.19H1260.03H1259.88H1259.73H1259.58H1259.44H1259.3H1259.17H1259.04H1258.91H1258.79H1258.68H1258.56H1258.46H1258.35H1258.25H1258.16H1258.07H1257.99H1257.91H1257.83H1257.76H1257.69H1257.63H1257.57H1257.52H1257.47H1257.42H1257.38H1257.35H1257.32H1257.29H1257.27H1257.25H1257.24H1257.23C1257.23 5.71664 1257.23 5.71664 1257.23 7.98103V5.71664H1256.3L1255.64 6.37329L1144.36 116.736C997.367 116.963 825.15 117.161 624.228 117.297L732.165 10.2454H732.255H732.354H732.457H732.564H732.676H732.792H732.913H733.038H733.167H733.3H733.438H733.581H733.727H733.878H734.033H734.192H734.356H734.523H734.695H734.871H735.051H735.236H735.424H735.617H735.814H736.015H736.22H736.429H736.642H736.859H737.08H737.306H737.535H737.768H738.005H738.246H738.491H738.74H738.993H739.25H739.511H739.775H740.044H740.316H740.592H740.872H741.156H741.444H741.735H742.03H742.329H742.631H742.938H743.248H743.561H743.879H744.2H744.524H744.852H745.184H745.52H745.859H746.202H746.548H746.898H747.251H747.608H747.968H748.332H748.699H749.07H749.444H749.822H750.203H750.588H750.976H751.367H751.761H752.159H752.561H752.965H753.373H753.785H754.199H754.617H755.038H755.462H755.89H756.32H756.754H757.191H757.632H758.075H758.522H758.971H759.424H759.88H760.339H760.801H761.266H761.734H762.205H762.679H763.157H763.637H764.12H764.606H765.095H765.587H766.082H766.579H767.08H767.583H768.09H768.599H769.111H769.626H770.143H770.664H771.187H771.713H772.241H772.773H773.307H773.844H774.383H774.925H775.47H776.018H776.568H777.121H777.676H778.234H778.794H779.357H779.923H780.491H781.062H781.635H782.21H782.788H783.369H783.952H784.537H785.125H785.715H786.308H786.903H787.5H788.1H788.702H789.306H789.913H790.522H791.133H791.747H792.362H792.98H793.6H794.223H794.847H795.474H796.103H796.734H797.367H798.003H798.64H799.279H799.921H800.565H801.21H801.858H802.508H803.16H803.813H804.469H805.127H805.786H806.448H807.111H807.777H808.444H809.113H809.784H810.457H811.132H811.808H812.487H813.167H813.849H814.533H815.218H815.905H816.594H817.285H817.977H818.671H819.367H820.064H820.763H821.463H822.166H822.869H823.575H824.282H824.99H825.7H826.412H827.125H827.839H828.555H829.273H829.992H830.712H831.434H832.157H832.882H833.608H834.335H835.064H835.794H836.525H837.258H837.992H838.727H839.464H840.202H840.941H841.681H842.423H843.165H843.909H844.654H845.4H846.148H846.896H847.646H848.397H849.148H849.901H850.655H851.41H852.166H852.923H853.681H854.44H855.2H855.961H856.723H857.486H858.249H859.014H859.779H860.546H861.313H862.081H862.85H863.62H864.39H865.162H865.934H866.707H867.48H868.255H869.03H869.805H870.582H871.359H872.137H872.915H873.694H874.474H875.254H876.035H876.817H877.599H878.381H879.164H879.948H880.732H881.517H882.302H883.087H883.873H884.66H885.447H886.234H887.022H887.81H888.598H889.387H890.176H890.965H891.755H892.545H893.335H894.126H894.917H895.708H896.499H897.291H898.082H898.874H899.666H900.458H901.251H902.043H902.836H903.628H904.421H905.214H906.007H906.8H907.593H908.385H909.178H909.971H910.764H911.557H912.35H913.142H913.935H914.728H915.52H916.312H917.104H917.896H918.688H919.48H920.271H921.062H921.853H922.644H923.434H924.224H925.014H925.804H926.593H927.382H928.171H928.959H929.747H930.534H931.321H932.108H932.894H933.68H934.465H935.25H936.035H936.818H937.602H938.385H939.167H939.949H940.73H941.51H942.29H943.07H943.849H944.627H945.404H946.181H946.957H947.732H948.507H949.281H950.054H950.827H951.599H952.369H953.14H953.909H954.677H955.445H956.212H956.978H957.743H958.507H959.27H960.033H960.794H961.554H962.314H963.072H963.83H964.586H965.342H966.096H966.85H967.602H968.353H969.103H969.852H970.6H971.347H972.093H972.837H973.581H974.323H975.064H975.803H976.542H977.279H978.015H978.749H979.483H980.215H980.946H981.675H982.403H983.13H983.855H984.579H985.301H986.023H986.742H987.46H988.177H988.892H989.606H990.318H991.029H991.738H992.446H993.152H993.857H994.56H995.261H995.961H996.659H997.356H998.05H998.743H999.435H1000.12H1000.81H1001.5H1002.18H1002.87H1003.55H1004.23H1004.9H1005.58H1006.25H1006.93H1007.6H1008.26H1008.93H1009.59H1010.26H1010.92H1011.58H1012.23H1012.89H1013.54H1014.19H1014.84H1015.49H1016.13H1016.77H1017.41H1018.05H1018.69H1019.32H1019.96H1020.59H1021.21H1021.84H1022.46H1023.08H1023.7H1024.32H1024.93H1025.55H1026.16H1026.76H1027.37H1027.92C1028.9 13.549 1031.97 15.9595 1035.6 15.9595C1040.02 15.9595 1043.6 12.3869 1043.6 7.97977C1043.6 3.57266 1040.02 0 1035.6 0C1031.97 0 1028.9 2.4118 1027.92 5.71664H1027.37H1026.76H1026.16H1025.55H1024.93H1024.32H1023.7H1023.08H1022.46H1021.84H1021.21H1020.59H1019.96H1019.32H1018.69H1018.05H1017.41H1016.77H1016.13H1015.49H1014.84H1014.19H1013.54H1012.89H1012.23H1011.58H1010.92H1010.26H1009.59H1008.93H1008.26H1007.6H1006.93H1006.25H1005.58H1004.9H1004.23H1003.55H1002.87H1002.18H1001.5H1000.81H1000.12H999.435H998.743H998.05H997.356H996.659H995.961H995.261H994.56H993.857H993.152H992.446H991.738H991.029H990.318H989.606H988.892H988.177H987.46H986.742H986.023H985.301H984.579H983.855H983.13H982.403H981.675H980.946H980.215H979.483H978.749H978.015H977.279H976.542H975.803H975.064H974.323H973.581H972.837H972.093H971.347H970.6H969.852H969.103H968.353H967.602H966.85H966.096H965.342H964.586H963.83H963.072H962.314H961.554H960.794H960.033H959.27H958.507H957.743H956.978H956.212H955.445H954.677H953.909H953.14H952.369H951.599H950.827H950.054H949.281H948.507H947.732H946.957H946.181H945.404H944.627H943.849H943.07H942.29H941.51H940.73H939.949H939.167H938.385H937.602H936.818H936.035H935.25H934.465H933.68H932.894H932.108H931.321H930.534H929.747H928.959H928.171H927.382H926.593H925.804H925.014H924.224H923.434H922.644H921.853H921.062H920.271H919.48H918.688H917.896H917.104H916.312H915.52H914.728H913.935H913.142H912.35H911.557H910.764H909.971H909.178H908.385H907.593H906.8H906.007H905.214H904.421H903.628H902.836H902.043H901.251H900.458H899.666H898.874H898.082H897.291H896.499H895.708H894.917H894.126H893.335H892.545H891.755H890.965H890.176H889.387H888.598H887.81H887.022H886.234H885.447H884.66H883.873H883.087H882.302H881.517H880.732H879.948H879.164H878.381H877.599H876.817H876.035H875.254H874.474H873.694H872.915H872.137H871.359H870.582H869.805H869.03H868.255H867.48H866.707H865.934H865.162H864.39H863.62H862.85H862.081H861.313H860.546H859.779H859.014H858.249H857.486H856.723H855.961H855.2H854.44H853.681H852.923H852.166H851.41H850.655H849.901H849.148H848.397H847.646H846.896H846.148H845.4H844.654H843.909H843.165H842.423H841.681H840.941H840.202H839.464H838.727H837.992H837.258H836.525H835.794H835.064H834.335H833.608H832.882H832.157H831.434H830.712H829.992H829.273H828.555H827.839H827.125H826.412H825.7H824.99H824.282H823.575H822.869H822.166H821.463H820.763H820.064H819.367H818.671H817.977H817.285H816.594H815.905H815.218H814.533H813.849H813.167H812.487H811.808H811.132H810.457H809.784H809.113H808.444H807.777H807.111H806.448H805.786H805.127H804.469H803.813H803.16H802.508H801.858H801.21H800.565H799.921H799.279H798.64H798.003H797.367H796.734H796.103H795.474H794.847H794.223H793.6H792.98H792.362H791.747H791.133H790.522H789.913H789.306H788.702H788.1H787.5H786.903H786.308H785.715H785.125H784.537H783.952H783.369H782.788H782.21H781.635H781.062H780.491H779.923H779.357H778.794H778.234H777.676H777.121H776.568H776.018H775.47H774.925H774.383H773.844H773.307H772.773H772.241H771.713H771.187H770.664H770.143H769.626H769.111H768.599H768.09H767.583H767.08H766.579H766.082H765.587H765.095H764.606H764.12H763.637H763.157H762.679H762.205H761.734H761.266H760.801H760.339H759.88H759.424H758.971H758.522H758.075H757.632H757.191H756.754H756.32H755.89H755.462H755.038H754.617H754.199H753.785H753.373H752.965H752.561H752.159H751.761H751.367H750.976H750.588H750.203H749.822H749.444H749.07H748.699H748.332H747.968H747.608H747.251H746.898H746.548H746.202H745.859H745.52H745.184H744.852H744.524H744.2H743.879H743.561H743.248H742.938H742.631H742.329H742.03H741.735H741.444H741.156H740.872H740.592H740.316H740.044H739.775H739.511H739.25H738.993H738.74H738.491H738.246H738.005H737.768H737.535H737.306H737.08H736.859H736.642H736.429H736.22H736.015H735.814H735.617H735.424H735.236H735.051H734.871H734.695H734.523H734.356H734.192H734.033H733.878H733.727H733.581H733.438H733.3H733.167H733.038H732.913H732.792H732.676H732.564H732.457H732.354H732.255H732.161H732.071H731.986H731.905H731.829H731.757H731.69H731.627H731.569H731.516H731.467H731.422H731.383H731.347H731.317H731.291H731.27H731.253H731.242H731.235C731.233 5.71664 731.232 5.71664 731.232 7.98103V5.71664H730.3L729.638 6.37329L618.003 117.093L618.21 117.301C462.513 117.406 289.656 117.474 98.0316 117.492L206.165 10.2454H206.255H206.354H206.457H206.564H206.676H206.792H206.913H207.037H207.167H207.3H207.438H207.58H207.727H207.878H208.033H208.192H208.355H208.523H208.695H208.871H209.051H209.236H209.424H209.617H209.814H210.015H210.22H210.429H210.642H210.859H211.08H211.306H211.535H211.768H212.005H212.246H212.491H212.74H212.993H213.25H213.511H213.775H214.044H214.316H214.592H214.872H215.156H215.444H215.735H216.03H216.329H216.631H216.938H217.248H217.561H217.879H218.2H218.524H218.852H219.184H219.52H219.859H220.202H220.548H220.898H221.251H221.608H221.968H222.332H222.699H223.07H223.444H223.822H224.203H224.588H224.976H225.367H225.761H226.159H226.561H226.965H227.373H227.785H228.199H228.617H229.038H229.462H229.89H230.32H230.754H231.191H231.632H232.075H232.522H232.971H233.424H233.88H234.339H234.801H235.266H235.734H236.205H236.679H237.157H237.637H238.12H238.606H239.095H239.587H240.082H240.579H241.08H241.583H242.09H242.599H243.111H243.626H244.143H244.664H245.187H245.713H246.241H246.773H247.307H247.844H248.383H248.925H249.47H250.018H250.568H251.121H251.676H252.234H252.794H253.357H253.923H254.491H255.061H255.635H256.21H256.788H257.369H257.952H258.537H259.125H259.715H260.308H260.903H261.5H262.1H262.702H263.306H263.913H264.522H265.133H265.747H266.362H266.98H267.6H268.223H268.847H269.474H270.103H270.734H271.367H272.003H272.64H273.279H273.921H274.565H275.21H275.858H276.508H277.16H277.813H278.469H279.127H279.786H280.448H281.111H281.777H282.444H283.113H283.784H284.457H285.132H285.808H286.487H287.167H287.849H288.533H289.218H289.905H290.594H291.285H291.977H292.671H293.367H294.064H294.763H295.463H296.166H296.869H297.575H298.282H298.99H299.7H300.412H301.125H301.839H302.555H303.273H303.992H304.712H305.434H306.157H306.882H307.608H308.335H309.064H309.794H310.525H311.258H311.992H312.727H313.464H314.202H314.941H315.681H316.422H317.165H317.909H318.654H319.4H320.148H320.896H321.646H322.396H323.148H323.901H324.655H325.41H326.166H326.923H327.681H328.44H329.2H329.961H330.723H331.486H332.249H333.014H333.779H334.546H335.313H336.081H336.85H337.62H338.39H339.162H339.934H340.707H341.48H342.255H343.03H343.805H344.582H345.359H346.137H346.915H347.694H348.474H349.254H350.035H350.817H351.599H352.381H353.164H353.948H354.732H355.517H356.302H357.087H357.873H358.66H359.447H360.234H361.022H361.81H362.598H363.387H364.176H364.965H365.755H366.545H367.335H368.126H368.917H369.708H370.499H371.291H372.082H372.874H373.666H374.458H375.251H376.043H376.836H377.628H378.421H379.214H380.007H380.8H381.593H382.385H383.178H383.971H384.764H385.557H386.35H387.142H387.935H388.728H389.52H390.312H391.104H391.896H392.688H393.48H394.271H395.062H395.853H396.644H397.434H398.224H399.014H399.804H400.593H401.382H402.171H402.959H403.747H404.534H405.321H406.108H406.894H407.68H408.465H409.25H410.035H410.818H411.602H412.385H413.167H413.949H414.73H415.51H416.29H417.07H417.849H418.627H419.404H420.181H420.957H421.732H422.507H423.281H424.054H424.827H425.598H426.369H427.14H427.909H428.677H429.445H430.212H430.978H431.743H432.507H433.27H434.033H434.794H435.554H436.314H437.072H437.83H438.586H439.342H440.096H440.85H441.602H442.353H443.103H443.852H444.6H445.347H446.093H446.837H447.581H448.323H449.064H449.803H450.542H451.279H452.015H452.749H453.483H454.215H454.946H455.675H456.403H457.13H457.855H458.579H459.301H460.022H460.742H461.46H462.177H462.892H463.606H464.318H465.029H465.738H466.446H467.152H467.857H468.56H469.261H469.961H470.659H471.355H472.05H472.743H473.435H474.125H474.813H475.499H476.184H476.866H477.547H478.227H478.904H479.58H480.253H480.925H481.595H482.264H482.93H483.594H484.257H484.918H485.576H486.233H486.888H487.54H488.191H488.84H489.487H490.131H490.774H491.414H492.053H492.689H493.323H493.956H494.585H495.213H495.839H496.462H497.084H497.703H498.32H498.934H499.546H500.157H500.764H501.37H501.925C502.904 13.549 505.968 15.9595 509.598 15.9595C514.016 15.9595 517.598 12.3869 517.598 7.97977C517.598 3.57266 514.016 0 509.598 0C505.967 0 502.902 2.4118 501.924 5.71664H501.37H500.764H500.157H499.546H498.934H498.32H497.703H497.084H496.462H495.839H495.213H494.585H493.956H493.323H492.689H492.053H491.414H490.774H490.131H489.487H488.84H488.191H487.54H486.888H486.233H485.576H484.918H484.257H483.594H482.93H482.264H481.595H480.925H480.253H479.58H478.904H478.227H477.547H476.866H476.184H475.499H474.813H474.125H473.435H472.743H472.05H471.355H470.659H469.961H469.261H468.56H467.857H467.152H466.446H465.738H465.029H464.318H463.606H462.892H462.177H461.46H460.742H460.022H459.301H458.579H457.855H457.13H456.403H455.675H454.946H454.215H453.483H452.749H452.015H451.279H450.542H449.803H449.064H448.323H447.581H446.837H446.093H445.347H444.6H443.852H443.103H442.353H441.602H440.85H440.096H439.342H438.586H437.83H437.072H436.314H435.554H434.794H434.033H433.27H432.507H431.743H430.978H430.212H429.445H428.677H427.909H427.14H426.369H425.598H424.827H424.054H423.281H422.507H421.732H420.957H420.181H419.404H418.627H417.849H417.07H416.29H415.51H414.73H413.949H413.167H412.385H411.602H410.818H410.035H409.25H408.465H407.68H406.894H406.108H405.321H404.534H403.747H402.959H402.171H401.382H400.593H399.804H399.014H398.224H397.434H396.644H395.853H395.062H394.271H393.48H392.688H391.896H391.104H390.312H389.52H388.728H387.935H387.142H386.35H385.557H384.764H383.971H383.178H382.385H381.593H380.8H380.007H379.214H378.421H377.628H376.836H376.043H375.251H374.458H373.666H372.874H372.082H371.291H370.499H369.708H368.917H368.126H367.335H366.545H365.755H364.965H364.176H363.387H362.598H361.81H361.022H360.234H359.447H358.66H357.873H357.087H356.302H355.517H354.732H353.948H353.164H352.381H351.599H350.817H350.035H349.254H348.474H347.694H346.915H346.137H345.359H344.582H343.805H343.03H342.255H341.48H340.707H339.934H339.162H338.39H337.62H336.85H336.081H335.313H334.546H333.779H333.014H332.249H331.486H330.723H329.961H329.2H328.44H327.681H326.923H326.166H325.41H324.655H323.901H323.148H322.396H321.646H320.896H320.148H319.4H318.654H317.909H317.165H316.422H315.681H314.941H314.202H313.464H312.727H311.992H311.258H310.525H309.794H309.064H308.335H307.608H306.882H306.157H305.434H304.712H303.992H303.273H302.555H301.839H301.125H300.412H299.7H298.99H298.282H297.575H296.869H296.166H295.463H294.763H294.064H293.367H292.671H291.977H291.285H290.594H289.905H289.218H288.533H287.849H287.167H286.487H285.808H285.132H284.457H283.784H283.113H282.444H281.777H281.111H280.448H279.786H279.127H278.469H277.813H277.16H276.508H275.858H275.21H274.565H273.921H273.279H272.64H272.003H271.367H270.734H270.103H269.474H268.847H268.223H267.6H266.98H266.362H265.747H265.133H264.522H263.913H263.306H262.702H262.1H261.5H260.903H260.308H259.715H259.125H258.537H257.952H257.369H256.788H256.21H255.635H255.061H254.491H253.923H253.357H252.794H252.234H251.676H251.121H250.568H250.018H249.47H248.925H248.383H247.844H247.307H246.773H246.241H245.713H245.187H244.664H244.143H243.626H243.111H242.599H242.09H241.583H241.08H240.579H240.082H239.587H239.095H238.606H238.12H237.637H237.157H236.679H236.205H235.734H235.266H234.801H234.339H233.88H233.424H232.971H232.522H232.075H231.632H231.191H230.754H230.32H229.89H229.462H229.038H228.617H228.199H227.785H227.373H226.965H226.561H226.159H225.761H225.367H224.976H224.588H224.203H223.822H223.444H223.07H222.699H222.332H221.968H221.608H221.251H220.898H220.548H220.202H219.859H219.52H219.184H218.852H218.524H218.2H217.879H217.561H217.248H216.938H216.631H216.329H216.03H215.735H215.444H215.156H214.872H214.592H214.316H214.044H213.775H213.511H213.25H212.993H212.74H212.491H212.246H212.005H211.768H211.535H211.306H211.08H210.859H210.642H210.429H210.22H210.015H209.814H209.617H209.424H209.236H209.051H208.871H208.695H208.523H208.355H208.192H208.033H207.878H207.727H207.58H207.438H207.3H207.167H207.037H206.913H206.792H206.676H206.564H206.457H206.354H206.255H206.161H206.071H205.986H205.905H205.829H205.757H205.69H205.627H205.569H205.516H205.467H205.422H205.383H205.347H205.317H205.291H205.27H205.253H205.242H205.235C205.233 5.71664 205.232 5.71664 205.232 7.98103V5.71664Z" fill="url(#paint0_linear_474_1785)"/>
<path fill-rule="evenodd" clip-rule="evenodd" d="M994.829 230.602V232.866H993.895L993.232 232.208L881.598 121.208L884.791 117.996L995.763 228.337H995.852H995.95H996.053H996.161H996.272H996.389H996.509H996.634H996.763H996.897H997.035H997.177H997.324H997.474H997.629H997.789H997.952H998.12H998.292H998.468H998.648H998.832H999.021H999.214H999.411H999.611H999.816H1000.03H1000.24H1000.46H1000.68H1000.9H1001.13H1001.36H1001.6H1001.84H1002.09H1002.34H1002.59H1002.85H1003.11H1003.37H1003.64H1003.91H1004.19H1004.47H1004.75H1005.04H1005.33H1005.63H1005.93H1006.23H1006.53H1006.84H1007.16H1007.48H1007.8H1008.12H1008.45H1008.78H1009.12H1009.46H1009.8H1010.14H1010.49H1010.85H1011.2H1011.56H1011.93H1012.3H1012.67H1013.04H1013.42H1013.8H1014.18H1014.57H1014.96H1015.36H1015.76H1016.16H1016.56H1016.97H1017.38H1017.8H1018.21H1018.63H1019.06H1019.49H1019.92H1020.35H1020.79H1021.23H1021.67H1022.12H1022.57H1023.02H1023.48H1023.94H1024.4H1024.86H1025.33H1025.8H1026.28H1026.75H1027.23H1027.72H1028.2H1028.69H1029.18H1029.68H1030.18H1030.68H1031.18H1031.69H1032.2H1032.71H1033.22H1033.74H1034.26H1034.78H1035.31H1035.84H1036.37H1036.9H1037.44H1037.98H1038.52H1039.07H1039.61H1040.16H1040.72H1041.27H1041.83H1042.39H1042.95H1043.52H1044.09H1044.66H1045.23H1045.81H1046.38H1046.97H1047.55H1048.13H1048.72H1049.31H1049.9H1050.5H1051.1H1051.7H1052.3H1052.9H1053.51H1054.12H1054.73H1055.34H1055.96H1056.58H1057.2H1057.82H1058.44H1059.07H1059.7H1060.33H1060.96H1061.6H1062.24H1062.88H1063.52H1064.16H1064.81H1065.45H1066.1H1066.76H1067.41H1068.07H1068.72H1069.38H1070.04H1070.71H1071.37H1072.04H1072.71H1073.38H1074.05H1074.73H1075.41H1076.08H1076.76H1077.45H1078.13H1078.81H1079.5H1080.19H1080.88H1081.57H1082.27H1082.96H1083.66H1084.36H1085.06H1085.76H1086.47H1087.17H1087.88H1088.59H1089.3H1090.01H1090.72H1091.44H1092.15H1092.87H1093.59H1094.31H1095.03H1095.75H1096.48H1097.2H1097.93H1098.66H1099.39H1100.12H1100.85H1101.59H1102.32H1103.06H1103.8H1104.54H1105.28H1106.02H1106.76H1107.51H1108.25H1109H1109.74H1110.49H1111.24H1111.99H1112.74H1113.5H1114.25H1115.01H1115.76H1116.52H1117.28H1118.04H1118.8H1119.56H1120.32H1121.08H1121.85H1122.61H1123.38H1124.14H1124.91H1125.68H1126.45H1127.22H1127.99H1128.76H1129.53H1130.3H1131.08H1131.85H1132.63H1133.4H1134.18H1134.96H1135.73H1136.51H1137.29H1138.07H1138.85H1139.63H1140.41H1141.2H1141.98H1142.76H1143.54H1144.33H1145.11H1145.9H1146.68H1147.47H1148.26H1149.04H1149.83H1150.62H1151.41H1152.19H1152.98H1153.77H1154.56H1155.35H1156.14H1156.93H1157.72H1158.51H1159.3H1160.1H1160.89H1161.68H1162.47H1163.26H1164.05H1164.85H1165.64H1166.43H1167.22H1168.02H1168.81H1169.6H1170.4H1171.19H1171.98H1172.77H1173.57H1174.36H1175.15H1175.95H1176.74H1177.53H1178.32H1179.12H1179.91H1180.7H1181.49H1182.28H1183.08H1183.87H1184.66H1185.45H1186.24H1187.03H1187.82H1188.61H1189.4H1190.19H1190.98H1191.77H1192.56H1193.34H1194.13H1194.92H1195.7H1196.49H1197.28H1198.06H1198.85H1199.63H1200.41H1201.2H1201.98H1202.76H1203.55H1204.33H1205.11H1205.89H1206.67H1207.45H1208.22H1209H1209.78H1210.55H1211.33H1212.1H1212.88H1213.65H1214.42H1215.2H1215.97H1216.74H1217.51H1218.27H1219.04H1219.81H1220.57H1221.34H1222.1H1222.87H1223.63H1224.39H1225.15H1225.91H1226.67H1227.43H1228.18H1228.94H1229.69H1230.45H1231.2H1231.95H1232.7H1233.45H1234.2H1234.94H1235.69H1236.43H1237.18H1237.92H1238.66H1239.4H1240.14H1240.88H1241.61H1242.35H1243.08H1243.81H1244.54H1245.27H1246H1246.73H1247.45H1248.18H1248.9H1249.62H1250.34H1251.06H1251.77H1252.49H1253.2H1253.92H1254.63H1255.34H1256.04H1256.75H1257.45H1258.16H1258.86H1259.56H1260.26H1260.95H1261.65H1262.34H1263.03H1263.72H1264.41H1265.1H1265.78H1266.46H1267.14H1267.82H1268.5H1269.18H1269.85H1270.52H1271.19H1271.86H1272.53H1273.19H1273.85H1274.51H1275.17H1275.83H1276.48H1277.14H1277.79H1278.44H1279.08H1279.73H1280.37H1281.01H1281.65H1282.29H1282.92H1283.55H1284.18H1284.81H1285.44H1286.06H1286.68H1287.3H1287.92H1288.53H1289.14H1289.75H1290.36H1290.97H1291.52C1292.5 225.022 1295.56 222.602 1299.19 222.602C1303.61 222.602 1307.19 226.184 1307.19 230.602C1307.19 235.02 1303.61 238.602 1299.19 238.602C1295.56 238.602 1292.5 236.182 1291.52 232.866H1290.97H1290.36H1289.75H1289.14H1288.53H1287.92H1287.3H1286.68H1286.06H1285.44H1284.81H1284.18H1283.55H1282.92H1282.29H1281.65H1281.01H1280.37H1279.73H1279.08H1278.44H1277.79H1277.14H1276.48H1275.83H1275.17H1274.51H1273.85H1273.19H1272.53H1271.86H1271.19H1270.52H1269.85H1269.18H1268.5H1267.82H1267.14H1266.46H1265.78H1265.1H1264.41H1263.72H1263.03H1262.34H1261.65H1260.95H1260.26H1259.56H1258.86H1258.16H1257.45H1256.75H1256.04H1255.34H1254.63H1253.92H1253.2H1252.49H1251.77H1251.06H1250.34H1249.62H1248.9H1248.18H1247.45H1246.73H1246H1245.27H1244.54H1243.81H1243.08H1242.35H1241.61H1240.88H1240.14H1239.4H1238.66H1237.92H1237.18H1236.43H1235.69H1234.94H1234.2H1233.45H1232.7H1231.95H1231.2H1230.45H1229.69H1228.94H1228.18H1227.43H1226.67H1225.91H1225.15H1224.39H1223.63H1222.87H1222.1H1221.34H1220.57H1219.81H1219.04H1218.27H1217.51H1216.74H1215.97H1215.2H1214.42H1213.65H1212.88H1212.1H1211.33H1210.55H1209.78H1209H1208.22H1207.45H1206.67H1205.89H1205.11H1204.33H1203.55H1202.76H1201.98H1201.2H1200.41H1199.63H1198.85H1198.06H1197.28H1196.49H1195.7H1194.92H1194.13H1193.34H1192.56H1191.77H1190.98H1190.19H1189.4H1188.61H1187.82H1187.03H1186.24H1185.45H1184.66H1183.87H1183.08H1182.28H1181.49H1180.7H1179.91H1179.12H1178.32H1177.53H1176.74H1175.95H1175.15H1174.36H1173.57H1172.77H1171.98H1171.19H1170.4H1169.6H1168.81H1168.02H1167.22H1166.43H1165.64H1164.85H1164.05H1163.26H1162.47H1161.68H1160.89H1160.1H1159.3H1158.51H1157.72H1156.93H1156.14H1155.35H1154.56H1153.77H1152.98H1152.19H1151.41H1150.62H1149.83H1149.04H1148.26H1147.47H1146.68H1145.9H1145.11H1144.33H1143.54H1142.76H1141.98H1141.2H1140.41H1139.63H1138.85H1138.07H1137.29H1136.51H1135.73H1134.96H1134.18H1133.4H1132.63H1131.85H1131.08H1130.3H1129.53H1128.76H1127.99H1127.22H1126.45H1125.68H1124.91H1124.14H1123.38H1122.61H1121.85H1121.08H1120.32H1119.56H1118.8H1118.04H1117.28H1116.52H1115.76H1115.01H1114.25H1113.5H1112.74H1111.99H1111.24H1110.49H1109.74H1109H1108.25H1107.51H1106.76H1106.02H1105.28H1104.54H1103.8H1103.06H1102.32H1101.59H1100.85H1100.12H1099.39H1098.66H1097.93H1097.2H1096.48H1095.75H1095.03H1094.31H1093.59H1092.87H1092.15H1091.44H1090.72H1090.01H1089.3H1088.59H1087.88H1087.17H1086.47H1085.76H1085.06H1084.36H1083.66H1082.96H1082.27H1081.57H1080.88H1080.19H1079.5H1078.81H1078.13H1077.45H1076.76H1076.08H1075.41H1074.73H1074.05H1073.38H1072.71H1072.04H1071.37H1070.71H1070.04H1069.38H1068.72H1068.07H1067.41H1066.76H1066.1H1065.45H1064.81H1064.16H1063.52H1062.88H1062.24H1061.6H1060.96H1060.33H1059.7H1059.07H1058.44H1057.82H1057.2H1056.58H1055.96H1055.34H1054.73H1054.12H1053.51H1052.9H1052.3H1051.7H1051.1H1050.5H1049.9H1049.31H1048.72H1048.13H1047.55H1046.97H1046.38H1045.81H1045.23H1044.66H1044.09H1043.52H1042.95H1042.39H1041.83H1041.27H1040.72H1040.16H1039.61H1039.07H1038.52H1037.98H1037.44H1036.9H1036.37H1035.84H1035.31H1034.78H1034.26H1033.74H1033.22H1032.71H1032.2H1031.69H1031.18H1030.68H1030.18H1029.68H1029.18H1028.69H1028.2H1027.72H1027.23H1026.75H1026.28H1025.8H1025.33H1024.86H1024.4H1023.94H1023.48H1023.02H1022.57H1022.12H1021.67H1021.23H1020.79H1020.35H1019.92H1019.49H1019.06H1018.63H1018.21H1017.8H1017.38H1016.97H1016.56H1016.16H1015.76H1015.36H1014.96H1014.57H1014.18H1013.8H1013.42H1013.04H1012.67H1012.3H1011.93H1011.56H1011.2H1010.85H1010.49H1010.14H1009.8H1009.46H1009.12H1008.78H1008.45H1008.12H1007.8H1007.48H1007.16H1006.84H1006.53H1006.23H1005.93H1005.63H1005.33H1005.04H1004.75H1004.47H1004.19H1003.91H1003.64H1003.37H1003.11H1002.85H1002.59H1002.34H1002.09H1001.84H1001.6H1001.36H1001.13H1000.9H1000.68H1000.46H1000.24H1000.03H999.816H999.611H999.411H999.214H999.021H998.832H998.648H998.468H998.292H998.12H997.952H997.789H997.629H997.474H997.324H997.177H997.035H996.897H996.763H996.634H996.509H996.389H996.272H996.161H996.053H995.95H995.852H995.757H995.668H995.582H995.502H995.426H995.354H995.287H995.224H995.166H995.112H995.063H995.019H994.979H994.944H994.914H994.888H994.867H994.85H994.838H994.831C994.83 232.866 994.829 232.866 994.829 230.602Z" fill="#5960CA"/>
<path fill-rule="evenodd" clip-rule="evenodd" d="M1522.23 230.602V232.866H1521.3L1520.63 232.208L1409 121.208L1412.19 117.996L1523.17 228.337H1523.25H1523.35H1523.46H1523.56H1523.67H1523.79H1523.91H1524.04H1524.17H1524.3H1524.44H1524.58H1524.73H1524.88H1525.03H1525.19H1525.35H1525.52H1525.69H1525.87H1526.05H1526.23H1526.42H1526.62H1526.81H1527.01H1527.22H1527.43H1527.64H1527.86H1528.08H1528.3H1528.53H1528.77H1529H1529.25H1529.49H1529.74H1529.99H1530.25H1530.51H1530.77H1531.04H1531.32H1531.59H1531.87H1532.15H1532.44H1532.73H1533.03H1533.33H1533.63H1533.94H1534.25H1534.56H1534.88H1535.2H1535.52H1535.85H1536.18H1536.52H1536.86H1537.2H1537.55H1537.9H1538.25H1538.61H1538.97H1539.33H1539.7H1540.07H1540.44H1540.82H1541.2H1541.59H1541.97H1542.37H1542.76H1543.16H1543.56H1543.96H1544.37H1544.78H1545.2H1545.62H1546.04H1546.46H1546.89H1547.32H1547.75H1548.19H1548.63H1549.07H1549.52H1549.97H1550.42H1550.88H1551.34H1551.8H1552.26H1552.73H1553.2H1553.68H1554.16H1554.64H1555.12H1555.6H1556.09H1556.59H1557.08H1557.58H1558.08H1558.58H1559.09H1559.6H1560.11H1560.62H1561.14H1561.66H1562.19H1562.71H1563.24H1563.77H1564.31H1564.84H1565.38H1565.92H1566.47H1567.02H1567.57H1568.12H1568.67H1569.23H1569.79H1570.36H1570.92H1571.49H1572.06H1572.63H1573.21H1573.79H1574.37H1574.95H1575.54H1576.12H1576.71H1577.31H1577.9H1578.5H1579.1H1579.7H1580.31H1580.91H1581.52H1582.13H1582.75H1583.36H1583.98H1584.6H1585.22H1585.85H1586.47H1587.1H1587.73H1588.37H1589H1589.64H1590.28H1590.92H1591.56H1592.21H1592.86H1593.51H1594.16H1594.81H1595.47H1596.13H1596.79H1597.45H1598.11H1598.78H1599.44H1600.11H1600.78H1601.46H1602.13H1602.81H1603.49H1604.17H1604.85H1605.53H1606.22H1606.9H1607.59H1608.28H1608.98H1609.67H1610.37H1611.06H1611.76H1612.46H1613.16H1613.87H1614.57H1615.28H1615.99H1616.7H1617.41H1618.12H1618.84H1619.55H1620.27H1620.99H1621.71H1622.43H1623.16H1623.88H1624.61H1625.33H1626.06H1626.79H1627.52H1628.26H1628.99H1629.73H1630.46H1631.2H1631.94H1632.68H1633.42H1634.16H1634.91H1635.65H1636.4H1637.15H1637.9H1638.64H1639.4H1640.15H1640.9H1641.65H1642.41H1643.16H1643.92H1644.68H1645.44H1646.2H1646.96H1647.72H1648.48H1649.25H1650.01H1650.78H1651.54H1652.31H1653.08H1653.85H1654.62H1655.39H1656.16H1656.93H1657.71H1658.48H1659.25H1660.03H1660.8H1661.58H1662.36H1663.14H1663.91H1664.69H1665.47H1666.25H1667.03H1667.82H1668.6H1669.38H1670.16H1670.95H1671.73H1672.52H1673.3H1674.09H1674.87H1675.66H1676.45H1677.23H1678.02H1678.81H1679.6H1680.39H1681.17H1681.96H1682.75H1683.54H1684.33H1685.12H1685.92H1686.71H1687.5H1688.29H1689.08H1689.87H1690.67H1691.46H1692.25H1693.04H1693.83H1694.63H1695.42H1696.21H1697.01H1697.8H1698.59H1699.38H1700.18H1700.97H1701.76H1702.56H1703.35H1704.14H1704.93H1705.73H1706.52H1707.31H1708.1H1708.9H1709.69H1710.48H1711.27H1712.06H1712.85H1713.64H1714.43H1715.22H1716.01H1716.8H1717.59H1718.38H1719.17H1719.96H1720.75H1721.53H1722.32H1723.11H1723.89H1724.68H1725.46H1726.25H1727.03H1727.82H1728.6H1729.38H1730.17H1730.95H1731.73H1732.51H1733.29H1734.07H1734.85H1735.63H1736.4H1737.18H1737.96H1738.73H1739.51H1740.28H1741.05H1741.83H1742.6H1743.37H1744.14H1744.91H1745.68H1746.44H1747.21H1747.98H1748.74H1749.51H1750.27H1751.03H1751.79H1752.55H1753.31H1754.07H1754.83H1755.59H1756.34H1757.1H1757.85H1758.6H1759.35H1760.1H1760.85H1761.6H1762.35H1763.09H1763.84H1764.58H1765.32H1766.06H1766.8H1767.54H1768.28H1769.01H1769.75H1770.48H1771.21H1771.94H1772.67H1773.4H1774.13H1774.85H1775.58H1776.3H1777.02H1777.74H1778.46H1779.18H1779.89H1780.61H1781.32H1782.03H1782.74H1783.45H1784.15H1784.86H1785.56H1786.26H1786.96H1787.66H1788.35H1789.05H1789.74H1790.43H1791.12H1791.81H1792.5H1793.18H1793.87H1794.55H1795.23H1795.9H1796.58H1797.25H1797.92H1798.59H1799.26H1799.93H1800.59H1801.26H1801.92H1802.58H1803.23H1803.89H1804.54H1805.19H1805.84H1806.49H1807.13H1807.77H1808.41H1809.05H1809.69H1810.32H1810.95H1811.58H1812.21H1812.84H1813.46H1814.08H1814.7H1815.32H1815.93H1816.55H1817.16H1817.76H1818.37H1818.92C1819.9 225.022 1822.96 222.602 1826.6 222.602C1831.01 222.602 1834.6 226.184 1834.6 230.602C1834.6 235.02 1831.01 238.602 1826.6 238.602C1822.96 238.602 1819.9 236.182 1818.92 232.866H1818.37H1817.76H1817.16H1816.55H1815.93H1815.32H1814.7H1814.08H1813.46H1812.84H1812.21H1811.58H1810.95H1810.32H1809.69H1809.05H1808.41H1807.77H1807.13H1806.49H1805.84H1805.19H1804.54H1803.89H1803.23H1802.58H1801.92H1801.26H1800.59H1799.93H1799.26H1798.59H1797.92H1797.25H1796.58H1795.9H1795.23H1794.55H1793.87H1793.18H1792.5H1791.81H1791.12H1790.43H1789.74H1789.05H1788.35H1787.66H1786.96H1786.26H1785.56H1784.86H1784.15H1783.45H1782.74H1782.03H1781.32H1780.61H1779.89H1779.18H1778.46H1777.74H1777.02H1776.3H1775.58H1774.85H1774.13H1773.4H1772.67H1771.94H1771.21H1770.48H1769.75H1769.01H1768.28H1767.54H1766.8H1766.06H1765.32H1764.58H1763.84H1763.09H1762.35H1761.6H1760.85H1760.1H1759.35H1758.6H1757.85H1757.1H1756.34H1755.59H1754.83H1754.07H1753.31H1752.55H1751.79H1751.03H1750.27H1749.51H1748.74H1747.98H1747.21H1746.44H1745.68H1744.91H1744.14H1743.37H1742.6H1741.83H1741.05H1740.28H1739.51H1738.73H1737.96H1737.18H1736.4H1735.63H1734.85H1734.07H1733.29H1732.51H1731.73H1730.95H1730.17H1729.38H1728.6H1727.82H1727.03H1726.25H1725.46H1724.68H1723.89H1723.11H1722.32H1721.53H1720.75H1719.96H1719.17H1718.38H1717.59H1716.8H1716.01H1715.22H1714.43H1713.64H1712.85H1712.06H1711.27H1710.48H1709.69H1708.9H1708.1H1707.31H1706.52H1705.73H1704.93H1704.14H1703.35H1702.56H1701.76H1700.97H1700.18H1699.38H1698.59H1697.8H1697.01H1696.21H1695.42H1694.63H1693.83H1693.04H1692.25H1691.46H1690.67H1689.87H1689.08H1688.29H1687.5H1686.71H1685.92H1685.12H1684.33H1683.54H1682.75H1681.96H1681.17H1680.39H1679.6H1678.81H1678.02H1677.23H1676.45H1675.66H1674.87H1674.09H1673.3H1672.52H1671.73H1670.95H1670.16H1669.38H1668.6H1667.82H1667.03H1666.25H1665.47H1664.69H1663.91H1663.14H1662.36H1661.58H1660.8H1660.03H1659.25H1658.48H1657.71H1656.93H1656.16H1655.39H1654.62H1653.85H1653.08H1652.31H1651.54H1650.78H1650.01H1649.25H1648.48H1647.72H1646.96H1646.2H1645.44H1644.68H1643.92H1643.16H1642.41H1641.65H1640.9H1640.15H1639.4H1638.64H1637.9H1637.15H1636.4H1635.65H1634.91H1634.16H1633.42H1632.68H1631.94H1631.2H1630.46H1629.73H1628.99H1628.26H1627.52H1626.79H1626.06H1625.33H1624.61H1623.88H1623.16H1622.43H1621.71H1620.99H1620.27H1619.55H1618.84H1618.12H1617.41H1616.7H1615.99H1615.28H1614.57H1613.87H1613.16H1612.46H1611.76H1611.06H1610.37H1609.67H1608.98H1608.28H1607.59H1606.9H1606.22H1605.53H1604.85H1604.17H1603.49H1602.81H1602.13H1601.46H1600.78H1600.11H1599.44H1598.78H1598.11H1597.45H1596.79H1596.13H1595.47H1594.81H1594.16H1593.51H1592.86H1592.21H1591.56H1590.92H1590.28H1589.64H1589H1588.37H1587.73H1587.1H1586.47H1585.85H1585.22H1584.6H1583.98H1583.36H1582.75H1582.13H1581.52H1580.91H1580.31H1579.7H1579.1H1578.5H1577.9H1577.31H1576.71H1576.12H1575.54H1574.95H1574.37H1573.79H1573.21H1572.63H1572.06H1571.49H1570.92H1570.36H1569.79H1569.23H1568.67H1568.12H1567.57H1567.02H1566.47H1565.92H1565.38H1564.84H1564.31H1563.77H1563.24H1562.71H1562.19H1561.66H1561.14H1560.62H1560.11H1559.6H1559.09H1558.58H1558.08H1557.58H1557.08H1556.59H1556.09H1555.6H1555.12H1554.64H1554.16H1553.68H1553.2H1552.73H1552.26H1551.8H1551.34H1550.88H1550.42H1549.97H1549.52H1549.07H1548.63H1548.19H1547.75H1547.32H1546.89H1546.46H1546.04H1545.62H1545.2H1544.78H1544.37H1543.96H1543.56H1543.16H1542.76H1542.37H1541.97H1541.59H1541.2H1540.82H1540.44H1540.07H1539.7H1539.33H1538.97H1538.61H1538.25H1537.9H1537.55H1537.2H1536.86H1536.52H1536.18H1535.85H1535.52H1535.2H1534.88H1534.56H1534.25H1533.94H1533.63H1533.33H1533.03H1532.73H1532.44H1532.15H1531.87H1531.59H1531.32H1531.04H1530.77H1530.51H1530.25H1529.99H1529.74H1529.49H1529.25H1529H1528.77H1528.53H1528.3H1528.08H1527.86H1527.64H1527.43H1527.22H1527.01H1526.81H1526.62H1526.42H1526.23H1526.05H1525.87H1525.69H1525.52H1525.35H1525.19H1525.03H1524.88H1524.73H1524.58H1524.44H1524.3H1524.17H1524.04H1523.91H1523.79H1523.67H1523.56H1523.46H1523.35H1523.25H1523.16H1523.07H1522.98H1522.9H1522.83H1522.76H1522.69H1522.63H1522.57H1522.51H1522.47H1522.42H1522.38H1522.35H1522.32H1522.29H1522.27H1522.25H1522.24H1522.23C1522.23 232.866 1522.23 232.866 1522.23 230.602Z" fill="#5960CA"/>
<defs>
<linearGradient id="paint0_linear_474_1785" x1="-31.5692" y1="27.3139" x2="2262.29" y2="312.769" gradientUnits="userSpaceOnUse">
<stop stop-color="#416CCA"/>
<stop offset="1" stop-color="#7852CB"/>
</linearGradient>
</defs>
</svg>
