<svg width="1920" height="399" fill="none" xmlns="http://www.w3.org/2000/svg">
  <path fill-rule="evenodd" clip-rule="evenodd" d="M205.232 81.7166h-.932l-.662.6567L92.0031 193.093l.3966.4c-30.9754.002-62.4397.004-94.3997.004v5c126.846 0 245.885-.022 357.538-.062l111.1 110.189.662.657h.932v-2.265c0 2.265.001 2.265.003 2.265H764.924c.978 3.304 4.043 5.716 7.674 5.716 4.418 0 8-3.572 8-7.98 0-4.407-3.582-7.979-8-7.979-3.63 0-6.694 2.41-7.673 5.714H469.165L361.967 198.433c541.214-.196 908.203-.816 1149.383-1.436 233.27-.6 348.83-1.2 390.52-1.416h.01c10.46-.054 16.26-.084 18.12-.084v-5c-1.85 0-7.66.03-18.11.084h-.02c-41.7.216-157.29.816-390.54 1.416-98.22.252-217.3.505-360.53.729l107.36-106.4806H1553.92c.98 3.3036 4.05 5.7141 7.68 5.7141 4.42 0 8-3.5726 8-7.9797S1566.02 76 1561.6 76c-3.63 0-6.7 2.4118-7.68 5.7166H1257.23v2.2644-2.2644h-.93l-.66.6567-111.28 110.3627c-146.993.227-319.21.425-520.132.561L732.165 86.2454H1027.92c.98 3.3036 4.05 5.7141 7.68 5.7141 4.42 0 8-3.5726 8-7.9797S1040.02 76 1035.6 76c-3.63 0-6.7 2.4118-7.68 5.7166H731.235c-.002 0-.003 0-.003 2.2644v-2.2644h-.932l-.662.6567L618.003 193.093l.207.208c-155.697.105-328.554.173-520.1784.191L206.165 86.2454H501.925c.979 3.3036 4.043 5.7141 7.673 5.7141 4.418 0 8-3.5726 8-7.9797S514.016 76 509.598 76c-3.631 0-6.696 2.4118-7.674 5.7166H205.235c-.002 0-.003 0-.003 2.2644v-2.2644Z" fill="url(#a)"/>
  <path fill-rule="evenodd" clip-rule="evenodd" d="M994.829 306.602v2.264h-.934l-.663-.658-111.634-111 3.193-3.212 110.972 110.341H1291.52c.98-3.315 4.04-5.735 7.67-5.735 4.42 0 8 3.582 8 8s-3.58 8-8 8c-3.63 0-6.69-2.42-7.67-5.736H994.831c-.001 0-.002 0-.002-2.264ZM1522.23 306.602v2.264h-.93l-.67-.658-111.63-111 3.19-3.212 110.98 110.341H1818.92c.98-3.315 4.04-5.735 7.68-5.735 4.41 0 8 3.582 8 8s-3.59 8-8 8c-3.64 0-6.7-2.42-7.68-5.736h-296.69v-2.264Z" fill="#5960CA"/>
  <path d="M162.944 10.667v13.8306h7.641V27h-10.632V10.667h2.991Zm19.312 12.1704h-6.152L174.504 27h-3.186l6.482-16.333h2.735L187.017 27h-3.162l-1.599-4.1626Zm-3.101-8.2397c-.569 1.7089-1.078 3.1372-1.526 4.2846l-.561 1.4527h4.224l-.562-1.4527c-.448-1.1556-.956-2.5838-1.526-4.2846h-.049Zm16.444 12.7075c-.855 0-1.624-.0855-2.307-.2564-.684-.1627-1.286-.3987-1.807-.708-.521-.3174-.964-.6998-1.331-1.1474-.366-.4558-.659-.9685-.879-1.5381-.179-.4558-.309-.9603-.39-1.5137-.073-.5534-.11-1.1719-.11-1.8555V10.667h2.991v9.3506c0 1.1556.138 2.0589.415 2.7099.309.7243.761 1.2492 1.355 1.5747.594.3174 1.294.4761 2.099.4761.806 0 1.506-.1587 2.1-.4761.594-.3255 1.046-.8504 1.355-1.5747.277-.651.415-1.5543.415-2.7099V10.667h2.991v9.6191c0 .6836-.041 1.3021-.122 1.8555-.074.5534-.2 1.0579-.379 1.5137-.22.5696-.517 1.0823-.891 1.5381-.366.4476-.818.83-1.355 1.1474-.529.3093-1.139.5453-1.831.708-.692.1709-1.465.2564-2.319.2564Zm18.75-9.0454c1.172 1.6683 2.124 3.1494 2.857 4.4433h.073c-.098-2.124-.147-3.6702-.147-4.6386V10.667h2.991V27h-3.137l-5.322-7.5195c-.936-1.3021-1.905-2.8117-2.906-4.5288h-.073c.098 2.0019.147 3.5522.147 4.6508V27h-2.991V10.667h3.137l5.371 7.5928Zm17.127-5.3711c-.814 0-1.566.1342-2.258.4028-.684.2686-1.274.6592-1.77 1.1719-.489.5127-.871 1.1474-1.148 1.9043-.276.7487-.415 1.6072-.415 2.5757 0 .9602.126 1.8066.379 2.539.252.7243.614 1.3306 1.086 1.8189.472.4883 1.046.8585 1.721 1.1108.684.2441 1.457.3662 2.32.3662.618 0 1.249-.0488 1.892-.1465.643-.0976 1.245-.24 1.806-.4272v2.5757c-.569.1627-1.184.2889-1.843.3784-.659.0976-1.343.1465-2.051.1465-1.383 0-2.6-.1953-3.65-.586-1.049-.3987-1.928-.9562-2.636-1.6723-.7-.7243-1.229-1.5869-1.587-2.5879-.35-1.0091-.525-2.12-.525-3.3325 0-1.2452.187-2.4008.561-3.4668.383-1.0661.928-1.9898 1.636-2.771.716-.7813 1.607-1.3957 2.673-1.8433 1.075-.4476 2.287-.6754 3.638-.6836.692 0 1.347.0488 1.966.1465.618.0895 1.175.2197 1.672.3906v2.5391c-.651-.2035-1.257-.3459-1.819-.4273-.562-.0813-1.111-.122-1.648-.122Zm9.168 4.5044h7.568V10.667h2.991V27h-2.991v-7.1045h-7.568V27h-2.991V10.667h2.991v6.7261Zm29.737 1.4404c0-.9928-.122-1.8595-.366-2.6001-.244-.7487-.582-1.3713-1.013-1.8677-.431-.4964-.944-.8667-1.538-1.1108-.594-.2442-1.245-.3662-1.953-.3662s-1.359.122-1.953.3662c-.594.2441-1.107.6144-1.538 1.1108-.432.4964-.77 1.119-1.014 1.8677-.244.7406-.366 1.6073-.366 2.6001 0 .9928.122 1.8636.366 2.6123.244.7406.582 1.3591 1.014 1.8555.431.4883.944.8585 1.538 1.1108.594.2441 1.245.3662 1.953.3662s1.359-.1221 1.953-.3662c.594-.2523 1.107-.6225 1.538-1.1108.431-.4964.769-1.1149 1.013-1.8555.244-.7487.366-1.6195.366-2.6123Zm3.089 0c0 1.2451-.179 2.3885-.537 3.4302-.35 1.0335-.867 1.9246-1.551 2.6733-.675.7487-1.509 1.3306-2.502 1.7456-.985.4151-2.108.6226-3.369.6226-1.262 0-2.389-.2075-3.382-.6226-.984-.415-1.818-.9969-2.502-1.7456-.676-.7487-1.192-1.6398-1.55-2.6733-.35-1.0417-.525-2.1851-.525-3.4302 0-1.2451.175-2.3844.525-3.418.358-1.0416.874-1.9368 1.55-2.6855.684-.7487 1.518-1.3306 2.502-1.7456.993-.4151 2.12-.6226 3.382-.6226 1.261 0 2.384.2075 3.369.6226.993.415 1.827.9969 2.502 1.7456.684.7487 1.201 1.6439 1.551 2.6855.358 1.0336.537 2.1729.537 3.418ZM279.134 27h-2.99V10.667h10.4v2.5024h-7.41v4.2237h6.336v2.5024h-6.336V27Zm19.166 0h-2.99V13.1694h-5.274V10.667h13.526v2.5024H298.3V27Zm18.568-8.1665c0-.9928-.122-1.8595-.367-2.6001-.244-.7487-.581-1.3713-1.013-1.8677-.431-.4964-.944-.8667-1.538-1.1108-.594-.2442-1.245-.3662-1.953-.3662s-1.359.122-1.953.3662c-.594.2441-1.107.6144-1.538 1.1108-.431.4964-.769 1.119-1.013 1.8677-.244.7406-.367 1.6073-.367 2.6001 0 .9928.123 1.8636.367 2.6123.244.7406.582 1.3591 1.013 1.8555.431.4883.944.8585 1.538 1.1108.594.2441 1.245.3662 1.953.3662s1.359-.1221 1.953-.3662c.594-.2523 1.107-.6225 1.538-1.1108.432-.4964.769-1.1149 1.013-1.8555.245-.7487.367-1.6195.367-2.6123Zm3.088 0c0 1.2451-.179 2.3885-.537 3.4302-.35 1.0335-.867 1.9246-1.55 2.6733-.676.7487-1.51 1.3306-2.503 1.7456-.984.4151-2.108.6226-3.369.6226-1.261 0-2.388-.2075-3.381-.6226-.985-.415-1.819-.9969-2.503-1.7456-.675-.7487-1.192-1.6398-1.55-2.6733-.35-1.0417-.525-2.1851-.525-3.4302 0-1.2451.175-2.3844.525-3.418.358-1.0416.875-1.9368 1.55-2.6855.684-.7487 1.518-1.3306 2.503-1.7456.993-.4151 2.12-.6226 3.381-.6226 1.261 0 2.385.2075 3.369.6226.993.415 1.827.9969 2.503 1.7456.683.7487 1.2 1.6439 1.55 2.6855.358 1.0336.537 2.1729.537 3.418ZM322.63 27V10.667h2.991v7.4341h.048l6.165-7.4341h3.711l-6.812 8.0933L336.106 27h-3.833l-6.604-7.373h-.048V27h-2.991Zm18.287-2.5024h8.032V27h-11.023V10.667h10.583v2.5024h-7.592v4.2237h6.518v2.5024h-6.518v4.6021Zm19.226-6.2378c1.172 1.6683 2.124 3.1494 2.857 4.4433h.073c-.098-2.124-.147-3.6702-.147-4.6386V10.667h2.991V27h-3.137l-5.322-7.5195c-.936-1.3021-1.905-2.8117-2.906-4.5288h-.073c.098 2.0019.146 3.5522.146 4.6508V27h-2.99V10.667h3.137l5.371 7.5928Zm22.084 4.5776h-6.153L374.475 27h-3.186l6.482-16.333h2.734L386.987 27h-3.161l-1.599-4.1626Zm-3.101-8.2397c-.57 1.7089-1.078 3.1372-1.526 4.2846l-.561 1.4527h4.223l-.561-1.4527c-.448-1.1556-.957-2.5838-1.526-4.2846h-.049Zm18.189 3.6621c1.172 1.6683 2.124 3.1494 2.856 4.4433h.074c-.098-2.124-.147-3.6702-.147-4.6386V10.667h2.991V27h-3.137l-5.323-7.5195c-.935-1.3021-1.904-2.8117-2.905-4.5288h-.073c.098 2.0019.146 3.5522.146 4.6508V27h-2.99V10.667h3.137l5.371 7.5928ZM406.495 27V10.667h4.321c.383 0 .769.0122 1.16.0366.399.0244.785.061 1.16.1099.374.0488.736.1098 1.086.1831.35.0651.672.1465.965.2441.87.2767 1.639.6511 2.307 1.1231.667.472 1.224 1.0294 1.672 1.6723.456.6429.798 1.3632 1.025 2.1607.236.7894.354 1.6479.354 2.5757 0 .8789-.097 1.7049-.293 2.478-.195.765-.492 1.4648-.891 2.0996-.398.6348-.903 1.1963-1.513 1.6846-.603.4801-1.319.8748-2.149 1.1841-.692.2604-1.477.4557-2.356.5859-.879.1302-1.867.1953-2.966.1953h-3.882Zm4.224-2.5024c1.749 0 3.117-.2401 4.101-.7203.871-.4313 1.53-1.0579 1.978-1.8798.447-.822.671-1.8718.671-3.1495 0-.6673-.073-1.2695-.219-1.8066-.147-.5371-.359-1.0132-.635-1.4282-.277-.4232-.615-.7853-1.013-1.0864-.391-.3011-.835-.5494-1.331-.7447-.464-.179-.981-.3092-1.55-.3906-.57-.0814-1.209-.1221-1.917-.1221h-1.318v11.3282h1.233Zm20.155-13.8306v13.8306h7.641V27h-10.632V10.667h2.991Zm19.312 12.1704h-6.153L442.434 27h-3.186l6.482-16.333h2.734L454.946 27h-3.161l-1.599-4.1626Zm-3.101-8.2397c-.57 1.7089-1.078 3.1372-1.526 4.2846l-.561 1.4527h4.223l-.561-1.4527c-.448-1.1556-.957-2.5838-1.526-4.2846h-.049Zm18.189 3.6621c1.172 1.6683 2.124 3.1494 2.856 4.4433h.074c-.098-2.124-.147-3.6702-.147-4.6386V10.667h2.991V27h-3.137l-5.323-7.5195c-.935-1.3021-1.904-2.8117-2.905-4.5288h-.073c.098 2.0019.146 3.5522.146 4.6508V27h-2.99V10.667h3.137l5.371 7.5928ZM474.454 27V10.667h4.321c.383 0 .769.0122 1.16.0366.399.0244.785.061 1.16.1099.374.0488.736.1098 1.086.1831.35.0651.672.1465.965.2441.87.2767 1.639.6511 2.307 1.1231.667.472 1.224 1.0294 1.672 1.6723.456.6429.798 1.3632 1.025 2.1607.236.7894.354 1.6479.354 2.5757 0 .8789-.097 1.7049-.293 2.478-.195.765-.492 1.4648-.891 2.0996-.398.6348-.903 1.1963-1.513 1.6846-.603.4801-1.319.8748-2.149 1.1841-.692.2604-1.477.4557-2.356.5859-.879.1302-1.867.1953-2.966.1953h-3.882Zm4.224-2.5024c1.749 0 3.117-.2401 4.101-.7203.871-.4313 1.53-1.0579 1.978-1.8798.447-.822.671-1.8718.671-3.1495 0-.6673-.073-1.2695-.22-1.8066-.146-.5371-.358-1.0132-.634-1.4282-.277-.4232-.615-.7853-1.013-1.0864-.391-.3011-.835-.5494-1.331-.7447-.464-.179-.981-.3092-1.55-.3906-.57-.0814-1.209-.1221-1.917-.1221h-1.318v11.3282h1.233ZM491.19 27V10.667h2.991V27h-2.991Zm14.918-8.7402c1.172 1.6683 2.124 3.1494 2.856 4.4433h.074c-.098-2.124-.147-3.6702-.147-4.6386V10.667h2.991V27h-3.137l-5.323-7.5195c-.936-1.3021-1.904-2.8117-2.905-4.5288h-.073c.098 2.0019.146 3.5522.146 4.6508V27h-2.99V10.667h3.137l5.371 7.5928Zm19.336 2.5024h-3.662v-2.5024h6.653v8.2397c-.244.0895-.557.1831-.94.2808-.374.0976-.797.1831-1.269.2563-.464.0814-.944.1465-1.441.1953-.496.0489-.989.0733-1.477.0733-1.465 0-2.746-.1953-3.845-.586-1.091-.3987-2.002-.9562-2.734-1.6723-.725-.7162-1.27-1.5666-1.636-2.5513-.358-.9928-.537-2.0874-.537-3.2837 0-.8463.093-1.652.28-2.417.196-.7731.476-1.4852.843-2.1362.374-.6592.826-1.2533 1.355-1.7822.529-.529 1.131-.9807 1.806-1.355.684-.3744 1.429-.6592 2.234-.8545.814-.2035 1.685-.3052 2.613-.3052.821 0 1.603.0611 2.343.1831.741.114 1.347.2564 1.819.4273v2.539c-.635-.2034-1.278-.358-1.929-.4638-.642-.1058-1.294-.1587-1.953-.1587-.887 0-1.717.1342-2.49.4028-.773.2604-1.444.651-2.014 1.1719-.562.5127-1.005 1.1474-1.331 1.9043-.325.7568-.488 1.6316-.488 2.6245.008 1.9287.513 3.3773 1.514 4.3457 1.001.9603 2.421 1.4404 4.26 1.4404.342 0 .696-.0163 1.062-.0488.366-.0407.688-.0895.964-.1465v-3.8208Zm15.333-.0854c-.268 0-.533-.0041-.793-.0122-.261-.0082-.505-.0245-.733-.0489V27h-2.99V10.667h4.712c.789 0 1.477.0366 2.063.1099.594.0651 1.123.1668 1.587.3051 1.114.3418 1.973.8871 2.575 1.6358.602.7487.904 1.7008.904 2.8564 0 .7894-.163 1.5015-.489 2.1362-.325.6267-.801 1.1597-1.428 1.5992-.627.4394-1.392.7772-2.295 1.0132-.903.236-1.941.354-3.113.354Zm-1.526-2.5757c.171.0244.387.0447.647.061.269.0081.546.0122.831.0122.805 0 1.481-.0651 2.026-.1953.545-.1302.985-.3092 1.318-.5371.334-.236.574-.5168.72-.8423.147-.3336.22-.6958.22-1.0864 0-.4802-.11-.8952-.329-1.2451-.22-.35-.603-.6226-1.148-.8179-.285-.0977-.639-.1668-1.062-.2075-.415-.0489-.928-.0733-1.538-.0733h-1.685v4.9317Zm18.922 4.7363h-6.152L550.421 27h-3.186l6.482-16.333h2.735L562.934 27h-3.162l-1.599-4.1626Zm-3.101-8.2397c-.569 1.7089-1.078 3.1372-1.526 4.2846l-.561 1.4527h4.223l-.561-1.4527c-.448-1.1556-.956-2.5838-1.526-4.2846h-.049Zm19.593 6.1645h-3.662v-2.5024h6.653v8.2397c-.244.0895-.558.1831-.94.2808-.375.0976-.798.1831-1.27.2563-.464.0814-.944.1465-1.44.1953-.497.0489-.989.0733-1.477.0733-1.465 0-2.747-.1953-3.845-.586-1.091-.3987-2.002-.9562-2.735-1.6723-.724-.7162-1.269-1.5666-1.636-2.5513-.358-.9928-.537-2.0874-.537-3.2837 0-.8463.094-1.652.281-2.417.195-.7731.476-1.4852.842-2.1362.375-.6592.826-1.2533 1.355-1.7822.529-.529 1.132-.9807 1.807-1.355.684-.3744 1.428-.6592 2.234-.8545.814-.2035 1.684-.3052 2.612-.3052.822 0 1.603.0611 2.344.1831.741.114 1.347.2564 1.819.4273v2.539c-.635-.2034-1.278-.358-1.929-.4638-.643-.1058-1.294-.1587-1.953-.1587-.887 0-1.717.1342-2.49.4028-.773.2604-1.445.651-2.014 1.1719-.562.5127-1.005 1.1474-1.331 1.9043-.325.7568-.488 1.6316-.488 2.6245.008 1.9287.512 3.3773 1.513 4.3457 1.001.9603 2.421 1.4404 4.261 1.4404.341 0 .695-.0163 1.062-.0488.366-.0407.687-.0895.964-.1465v-3.8208Zm9.156 3.7354h8.032V27H580.83V10.667h10.584v2.5024h-7.593v4.2237h6.518v2.5024h-6.518v4.6021Zm10.779-.7569h3.284V27H594.6v-3.2593ZM165.506 66.4668v-9.0703l-5.924 1.6875v-3.6914l6.891-2.4258h3.199v13.5h4.957V70h-14.695v-3.5332h5.572Zm22.694-4.9746c0-1.7813-.328-3.1465-.984-4.0957-.657-.961-1.6-1.4414-2.831-1.4414-1.242 0-2.191.4804-2.847 1.4414-.656.9492-.985 2.3144-.985 4.0957 0 1.7812.329 3.1523.985 4.1133.656.9492 1.605 1.4238 2.847 1.4238 1.231 0 2.174-.4746 2.831-1.4238.656-.961.984-2.3321.984-4.1133Zm4.307 0c0 1.2773-.176 2.4609-.528 3.5508-.34 1.0898-.849 2.0332-1.529 2.83-.68.7969-1.529 1.4239-2.549 1.8809-1.008.457-2.18.6856-3.516.6856-1.312 0-2.472-.2286-3.48-.6856-1.008-.457-1.857-1.084-2.549-1.8809-.691-.7968-1.219-1.7402-1.582-2.83-.351-1.0899-.527-2.2735-.527-3.5508 0-1.2774.176-2.461.527-3.5508.363-1.0898.891-2.0332 1.582-2.8301.692-.8086 1.541-1.4355 2.549-1.8808 1.008-.4571 2.168-.6856 3.48-.6856 1.336 0 2.508.2285 3.516.6856 1.02.4453 1.869 1.0722 2.549 1.8808.68.7969 1.189 1.7403 1.529 2.8301.352 1.0898.528 2.2734.528 3.5508Zm10.377 4.3008c.344-1.2344.77-2.5586 1.278-3.9727l2.707-7.5h4.031V70h-2.871v-7.9453c0-1.1641.047-2.5156.14-4.0547h-.105c-.133.4453-.289.9453-.469 1.5s-.367 1.1016-.562 1.6406L203.787 70h-1.852l-3.246-8.8594c-.195-.539-.383-1.0859-.563-1.6406-.179-.5547-.336-1.0547-.468-1.5h-.106c.094 1.4453.141 2.793.141 4.043V70h-2.871V54.3203h4.008l2.707 7.4649c.453 1.2421.878 2.5781 1.277 4.0078h.07Zm27.136-3.9595c0-.9928-.122-1.8595-.366-2.6001-.244-.7487-.582-1.3713-1.013-1.8677-.432-.4964-.944-.8667-1.539-1.1108-.594-.2442-1.245-.3662-1.953-.3662s-1.359.122-1.953.3662c-.594.2441-1.107.6144-1.538 1.1108-.431.4964-.769 1.119-1.013 1.8677-.244.7406-.366 1.6073-.366 2.6001 0 .9928.122 1.8636.366 2.6123.244.7406.582 1.3591 1.013 1.8555.431.4883.944.8585 1.538 1.1108.594.2441 1.245.3662 1.953.3662s1.359-.1221 1.953-.3662c.595-.2523 1.107-.6225 1.539-1.1108.431-.4964.769-1.1149 1.013-1.8555.244-.7487.366-1.6195.366-2.6123Zm3.088 0c0 1.2451-.179 2.3885-.537 3.4302-.35 1.0335-.866 1.9246-1.55 2.6733-.676.7487-1.51 1.3306-2.503 1.7456-.984.4151-2.107.6226-3.369.6226-1.261 0-2.388-.2075-3.381-.6226-.985-.415-1.819-.9969-2.502-1.7456-.676-.7487-1.193-1.6398-1.551-2.6733-.35-1.0417-.525-2.1851-.525-3.4302 0-1.2451.175-2.3844.525-3.418.358-1.0416.875-1.9368 1.551-2.6855.683-.7487 1.517-1.3306 2.502-1.7456.993-.4151 2.12-.6226 3.381-.6226 1.262 0 2.385.2075 3.369.6226.993.415 1.827.9969 2.503 1.7456.684.7487 1.2 1.6439 1.55 2.6855.358 1.0336.537 2.1729.537 3.418Zm14.759-3.2593c0 1.1393-.317 2.1078-.952 2.9053-.627.7894-1.599 1.3753-2.918 1.7578v.0488L248.856 70h-3.589l-4.443-6.3232h-2.051V70h-2.991V53.667h4.968c.822 0 1.587.0488 2.295.1465.708.0895 1.315.2278 1.819.415.96.3662 1.701.9115 2.222 1.6358.521.7161.781 1.6194.781 2.7099Zm-7.617 2.6001c.684 0 1.261-.0285 1.733-.0854.48-.0651.883-.1587 1.209-.2808.602-.2279 1.017-.5371 1.245-.9277.236-.3988.354-.8545.354-1.3672 0-.4395-.094-.826-.281-1.1597-.179-.3418-.488-.6103-.928-.8056-.284-.1303-.642-.2238-1.074-.2808-.431-.0651-.964-.0977-1.599-.0977h-2.136v5.0049h1.477Zm22.559-3.1616c0 .708-.159 1.359-.476 1.9531-.317.586-.842 1.0742-1.575 1.4649v.0488c.407.1383.777.3174 1.111.5371.342.2116.631.4679.867.769.244.293.431.6267.561 1.001.139.3744.208.7935.208 1.2573 0 .3988-.065.8261-.196 1.2818-.122.4557-.341.8992-.659 1.3305-.317.4232-.74.8139-1.269 1.1719-.529.3581-1.197.6429-2.002.8545-.204.0488-.427.0936-.672.1343-.236.0407-.5.0773-.793.1099-.293.0244-.619.0447-.977.061-.358.0081-.76.0122-1.208.0122h-4.749V53.667h5.677c1.212 0 2.189.1221 2.929.3662.554.179 1.034.415 1.441.708.407.2848.74.6063 1.001.9644.268.3499.464.7243.586 1.123.13.3906.195.7853.195 1.1841Zm-8.838 4.8828v4.6021h1.953c.521 0 .969-.0122 1.343-.0367.374-.0325.696-.0813.964-.1464.415-.0896.761-.2076 1.038-.3541.277-.1546.5-.3255.671-.5126.171-.1954.293-.4069.367-.6348.073-.236.109-.4842.109-.7446 0-.4558-.126-.8545-.378-1.1963-.252-.3418-.647-.5982-1.184-.7691-.236-.0732-.513-.1261-.83-.1587-.318-.0325-.724-.0488-1.221-.0488h-2.832Zm2.698-2.5024c.814 0 1.42-.0814 1.819-.2442.447-.1871.765-.4435.952-.769.195-.3337.293-.708.293-1.1231 0-.4313-.11-.8138-.33-1.1474-.219-.3418-.594-.5941-1.123-.7569-.22-.0651-.476-.1098-.769-.1342-.293-.0326-.655-.0489-1.086-.0489h-2.454v4.2237h2.698Zm26.942 5.4443h-6.152L275.86 70h-3.186l6.482-16.333h2.734L288.372 70h-3.162l-1.599-4.1626Zm-3.1-8.2397c-.57 1.7089-1.079 3.1372-1.526 4.2846l-.562 1.4527h4.224l-.562-1.4527c-.447-1.1556-.956-2.5838-1.526-4.2846h-.048Zm14.392 8.4106c.301-.887.517-1.5177.647-1.8921.139-.3825.423-1.1597.855-2.3315l3.027-8.1177h3.162L296.209 70h-2.685l-6.384-16.333h3.186l3.027 8.1177c.431 1.1718.712 1.949.842 2.3315.139.3744.358 1.0051.659 1.8921h.049Zm17.396-.1709h-6.153L304.547 70h-3.186l6.482-16.333h2.735L317.059 70h-3.161l-1.599-4.1626Zm-3.101-8.2397c-.569 1.7089-1.078 3.1372-1.526 4.2846l-.561 1.4527h4.223l-.561-1.4527c-.448-1.1556-.956-2.5838-1.526-4.2846h-.049ZM318.879 70V53.667h2.991V70h-2.991Zm9.4-16.333v13.8306h7.641V70h-10.632V53.667h2.991Zm19.312 12.1704h-6.153L339.839 70h-3.186l6.482-16.333h2.735L352.351 70h-3.161l-1.599-4.1626Zm-3.101-8.2397c-.57 1.7089-1.078 3.1372-1.526 4.2846l-.561 1.4527h4.223l-.561-1.4527c-.448-1.1556-.956-2.5838-1.526-4.2846h-.049Zm21.509.415c0 .708-.158 1.359-.476 1.9531-.317.586-.842 1.0742-1.574 1.4649v.0488c.407.1383.777.3174 1.11.5371.342.2116.631.4679.867.769.244.293.432.6267.562 1.001.138.3744.207.7935.207 1.2573 0 .3988-.065.8261-.195 1.2818-.122.4557-.342.8992-.659 1.3305-.318.4232-.741.8139-1.27 1.1719-.529.3581-1.196.6429-2.002.8545-.203.0488-.427.0936-.671.1343-.236.0407-.501.0773-.794.1099-.293.0244-.618.0447-.976.061-.358.0081-.761.0122-1.209.0122h-4.748V53.667h5.676c1.213 0 2.189.1221 2.93.3662.553.179 1.033.415 1.44.708.407.2848.741.6063 1.001.9644.269.3499.464.7243.586 1.123.13.3906.195.7853.195 1.1841Zm-8.837 4.8828v4.6021h1.953c.521 0 .968-.0122 1.342-.0367.375-.0325.696-.0813.965-.1464.415-.0896.761-.2076 1.037-.3541.277-.1546.501-.3255.672-.5126.171-.1954.293-.4069.366-.6348.073-.236.11-.4842.11-.7446 0-.4558-.126-.8545-.379-1.1963-.252-.3418-.647-.5982-1.184-.7691-.236-.0732-.512-.1261-.83-.1587-.317-.0325-.724-.0488-1.22-.0488h-2.832Zm2.697-2.5024c.814 0 1.42-.0814 1.819-.2442.448-.1871.765-.4435.952-.769.196-.3337.293-.708.293-1.1231 0-.4313-.11-.8138-.329-1.1474-.22-.3418-.594-.5941-1.123-.7569-.22-.0651-.476-.1098-.769-.1342-.293-.0326-.656-.0489-1.087-.0489h-2.453v4.2237h2.697Zm12.379-6.7261v13.8306h7.641V70h-10.632V53.667h2.991Zm12.952 13.8306h8.032V70h-11.023V53.667h10.584v2.5024h-7.593v4.2237h6.518v2.5024h-6.518v4.6021ZM403.55 70h-2.991V53.667h10.401v2.5024h-7.41v4.2237h6.336v2.5024h-6.336V70Zm21.644-8.1665c0-.9928-.122-1.8595-.366-2.6001-.245-.7487-.582-1.3713-1.014-1.8677-.431-.4964-.944-.8667-1.538-1.1108-.594-.2442-1.245-.3662-1.953-.3662s-1.359.122-1.953.3662c-.594.2441-1.107.6144-1.538 1.1108-.431.4964-.769 1.119-1.013 1.8677-.244.7406-.366 1.6073-.366 2.6001 0 .9928.122 1.8636.366 2.6123.244.7406.582 1.3591 1.013 1.8555.431.4883.944.8585 1.538 1.1108.594.2441 1.245.3662 1.953.3662s1.359-.1221 1.953-.3662c.594-.2523 1.107-.6225 1.538-1.1108.432-.4964.769-1.1149 1.014-1.8555.244-.7487.366-1.6195.366-2.6123Zm3.088 0c0 1.2451-.179 2.3885-.537 3.4302-.35 1.0335-.867 1.9246-1.55 2.6733-.676.7487-1.51 1.3306-2.503 1.7456-.984.4151-2.107.6226-3.369.6226-1.261 0-2.388-.2075-3.381-.6226-.985-.415-1.819-.9969-2.503-1.7456-.675-.7487-1.192-1.6398-1.55-2.6733-.35-1.0417-.525-2.1851-.525-3.4302 0-1.2451.175-2.3844.525-3.418.358-1.0416.875-1.9368 1.55-2.6855.684-.7487 1.518-1.3306 2.503-1.7456.993-.4151 2.12-.6226 3.381-.6226 1.262 0 2.385.2075 3.369.6226.993.415 1.827.9969 2.503 1.7456.683.7487 1.2 1.6439 1.55 2.6855.358 1.0336.537 2.1729.537 3.418Zm14.759-3.2593c0 1.1393-.317 2.1078-.952 2.9053-.627.7894-1.599 1.3753-2.918 1.7578v.0488L444.03 70h-3.589l-4.444-6.3232h-2.05V70h-2.991V53.667h4.968c.822 0 1.587.0488 2.295.1465.708.0895 1.314.2278 1.819.415.96.3662 1.701.9115 2.222 1.6358.521.7161.781 1.6194.781 2.7099Zm-7.617 2.6001c.683 0 1.261-.0285 1.733-.0854.48-.0651.883-.1587 1.209-.2808.602-.2279 1.017-.5371 1.245-.9277.236-.3988.354-.8545.354-1.3672 0-.4395-.094-.826-.281-1.1597-.179-.3418-.488-.6103-.928-.8056-.285-.1303-.643-.2238-1.074-.2808-.431-.0651-.964-.0977-1.599-.0977h-2.136v5.0049h1.477Zm22.803 4.1382c0-.415-.101-.7487-.305-1.001-.203-.2604-.48-.472-.83-.6347-.35-.1628-.744-.293-1.184-.3907-.431-.1058-.887-.2075-1.367-.3051-.635-.1384-1.241-.3011-1.819-.4883-.578-.1953-1.086-.4598-1.526-.7935-.439-.3418-.789-.7731-1.05-1.2939-.26-.5209-.39-1.1719-.39-1.9532 0-.8626.15-1.6113.451-2.246.302-.6429.708-1.1719 1.221-1.587.521-.4231 1.127-.7365 1.819-.9399.7-.2116 1.485-.3174 2.356-.3174.871 0 1.746.0855 2.624.2564.879.1709 1.636.3906 2.271.6591v2.5635c-.846-.3336-1.66-.5737-2.441-.7202-.774-.1546-1.502-.2319-2.186-.2319-.984 0-1.745.179-2.282.5371-.529.3581-.794.8952-.794 1.6113 0 .415.086.7568.257 1.0254.179.2686.419.4924.72.6714.301.1709.647.3092 1.037.415.391.1058.806.2035 1.246.293.691.1465 1.351.3174 1.977.5127.635.1872 1.196.4516 1.685.7934.488.3418.875.7894 1.159 1.3428.285.5453.428 1.2451.428 2.0996 0 .8789-.163 1.6398-.489 2.2827-.325.6429-.789 1.176-1.391 1.5992-.594.415-1.319.7242-2.173.9277-.855.2035-1.79.3052-2.808.3052-.887 0-1.762-.0895-2.624-.2686-.855-.1709-1.567-.415-2.136-.7324v-2.5269c.805.35 1.591.6063 2.355.7691.765.1546 1.555.2319 2.369.2319.472 0 .936-.0366 1.391-.1098.456-.0814.863-.2157 1.221-.4029.366-.1871.659-.4394.879-.7568.22-.3255.329-.7243.329-1.1963Zm15.248.5249h-6.153L465.723 70h-3.186l6.482-16.333h2.734L478.235 70h-3.161l-1.599-4.1626Zm-3.101-8.2397c-.57 1.7089-1.078 3.1372-1.526 4.2846l-.561 1.4527h4.223l-.561-1.4527c-.448-1.1556-.957-2.5838-1.526-4.2846h-.049Zm12.671-3.9307v13.8306h7.642V70h-10.632V53.667h2.99Zm12.952 13.8306h8.033V70h-11.023V53.667h10.583v2.5024h-7.593v4.2237h6.519v2.5024h-6.519v4.6021ZM479.944 336.667v13.831h7.641V353h-10.632v-16.333h2.991Zm22.562 12.17h-6.152l-1.6 4.163h-3.186l6.482-16.333h2.735L507.267 353h-3.162l-1.599-4.163Zm-3.101-8.239c-.569 1.709-1.078 3.137-1.526 4.284l-.561 1.453h4.224l-.562-1.453c-.448-1.155-.956-2.583-1.526-4.284h-.049Zm19.694 12.707c-.855 0-1.624-.085-2.307-.256-.684-.163-1.286-.399-1.807-.708-.521-.318-.964-.7-1.331-1.148-.366-.455-.659-.968-.879-1.538-.179-.455-.309-.96-.39-1.513-.073-.554-.11-1.172-.11-1.856v-9.619h2.991v9.351c0 1.155.138 2.058.415 2.71.309.724.761 1.249 1.355 1.574.594.318 1.294.476 2.099.476.806 0 1.506-.158 2.1-.476.594-.325 1.046-.85 1.355-1.574.277-.652.415-1.555.415-2.71v-9.351h2.991v9.619c0 .684-.041 1.302-.122 1.856-.074.553-.2 1.058-.379 1.513-.22.57-.517 1.083-.891 1.538-.366.448-.818.83-1.355 1.148-.529.309-1.139.545-1.831.708-.692.171-1.465.256-2.319.256Zm22-9.045c1.172 1.668 2.124 3.149 2.857 4.443h.073c-.098-2.124-.147-3.67-.147-4.639v-7.397h2.991V353h-3.137l-5.322-7.52c-.936-1.302-1.905-2.811-2.906-4.528h-.073c.098 2.002.147 3.552.147 4.651V353h-2.991v-16.333h3.137l5.371 7.593Zm20.377-5.371c-.814 0-1.566.134-2.258.403-.684.268-1.274.659-1.77 1.171-.489.513-.871 1.148-1.148 1.905-.276.748-.415 1.607-.415 2.575 0 .961.126 1.807.379 2.539.252.725.614 1.331 1.086 1.819.472.489 1.046.859 1.721 1.111.684.244 1.457.366 2.32.366.618 0 1.249-.049 1.892-.146.643-.098 1.245-.24 1.806-.427v2.575c-.569.163-1.184.289-1.843.379-.659.097-1.343.146-2.051.146-1.383 0-2.6-.195-3.65-.586-1.049-.399-1.928-.956-2.636-1.672-.7-.724-1.229-1.587-1.587-2.588-.35-1.009-.525-2.12-.525-3.333 0-1.245.187-2.4.561-3.466.383-1.066.928-1.99 1.636-2.771.716-.782 1.607-1.396 2.673-1.844 1.075-.447 2.287-.675 3.638-.683.692 0 1.347.049 1.966.146.618.09 1.175.22 1.672.391v2.539c-.651-.203-1.257-.346-1.819-.427-.562-.082-1.111-.122-1.648-.122Zm12.418 4.504h7.568v-6.726h2.991V353h-2.991v-7.104h-7.568V353h-2.991v-16.333h2.991v6.726Zm36.237 1.44c0-.992-.122-1.859-.366-2.6-.244-.748-.582-1.371-1.013-1.867-.431-.497-.944-.867-1.538-1.111-.594-.244-1.245-.366-1.953-.366s-1.359.122-1.953.366c-.594.244-1.107.614-1.538 1.111-.432.496-.77 1.119-1.014 1.867-.244.741-.366 1.608-.366 2.6 0 .993.122 1.864.366 2.613.244.74.582 1.359 1.014 1.855.431.489.944.859 1.538 1.111.594.244 1.245.366 1.953.366s1.359-.122 1.953-.366c.594-.252 1.107-.622 1.538-1.111.431-.496.769-1.115 1.013-1.855.244-.749.366-1.62.366-2.613Zm3.089 0c0 1.246-.179 2.389-.537 3.431-.35 1.033-.867 1.924-1.551 2.673-.675.749-1.509 1.331-2.502 1.746-.985.415-2.108.622-3.369.622-1.262 0-2.389-.207-3.382-.622-.984-.415-1.818-.997-2.502-1.746-.676-.749-1.192-1.64-1.55-2.673-.35-1.042-.525-2.185-.525-3.431 0-1.245.175-2.384.525-3.417.358-1.042.874-1.937 1.55-2.686.684-.749 1.518-1.331 2.502-1.746.993-.415 2.12-.622 3.382-.622 1.261 0 2.384.207 3.369.622.993.415 1.827.997 2.502 1.746.684.749 1.201 1.644 1.551 2.686.358 1.033.537 2.172.537 3.417Zm8.914 8.167h-2.99v-16.333h10.4v2.502h-7.41v4.224h6.336v2.503h-6.336V353Zm29.096-4.382c.359-1.286.802-2.666 1.331-4.139l2.82-7.812h4.199V353h-2.991v-8.276c0-1.213.049-2.621.147-4.224h-.11c-.138.464-.301.985-.488 1.562-.187.578-.383 1.148-.586 1.709L652.17 353h-1.928l-3.382-9.229c-.203-.561-.398-1.131-.586-1.709-.187-.577-.35-1.098-.488-1.562h-.11c.098 1.506.147 2.909.147 4.211V353h-2.991v-16.333h4.175l2.82 7.776c.472 1.294.915 2.685 1.33 4.175h.073Zm24.357.219h-6.152l-1.6 4.163h-3.186l6.482-16.333h2.735L680.348 353h-3.162l-1.599-4.163Zm-3.101-8.239c-.569 1.709-1.078 3.137-1.526 4.284l-.561 1.453h4.224l-.562-1.453c-.448-1.155-.956-2.583-1.526-4.284h-.049Zm25.016.976c0 1.14-.317 2.108-.952 2.905-.627.79-1.599 1.376-2.918 1.758v.049l4.859 6.714h-3.589l-4.444-6.323h-2.05V353h-2.991v-16.333h4.968c.822 0 1.587.049 2.295.146.708.09 1.314.228 1.819.416.96.366 1.701.911 2.222 1.635.521.716.781 1.62.781 2.71Zm-7.617 2.6c.683 0 1.261-.028 1.733-.085.48-.065.883-.159 1.209-.281.602-.228 1.017-.537 1.245-.928.236-.398.354-.854.354-1.367 0-.439-.094-.826-.281-1.159-.179-.342-.488-.611-.928-.806-.285-.13-.643-.224-1.074-.281-.431-.065-.964-.098-1.599-.098h-2.136v5.005h1.477Zm13.98 8.826v-16.333h2.991v7.434h.049l6.164-7.434h3.711l-6.811 8.093 7.373 8.24h-3.833l-6.604-7.373h-.049V353h-2.991Zm21.537-2.502h8.032V353h-11.023v-16.333h10.584v2.502h-7.593v4.224h6.518v2.503h-6.518v4.602ZM746.047 353h-2.99v-13.831h-5.274v-2.502h13.526v2.502h-5.262V353Zm14.848-6.323c-.269 0-.534-.004-.794-.012-.26-.009-.504-.025-.732-.049V353h-2.991v-16.333h4.712c.789 0 1.477.037 2.063.11.594.065 1.123.167 1.587.305 1.115.342 1.973.887 2.575 1.636.603.748.904 1.701.904 2.856 0 .79-.163 1.502-.489 2.136-.325.627-.801 1.16-1.428 1.6-.626.439-1.391.777-2.295 1.013-.903.236-1.941.354-3.112.354Zm-1.526-2.576c.171.024.386.045.647.061.268.008.545.012.83.012.805 0 1.481-.065 2.026-.195.545-.13.985-.309 1.318-.537.334-.236.574-.517.721-.842.146-.334.219-.696.219-1.087 0-.48-.109-.895-.329-1.245-.22-.35-.602-.622-1.148-.818-.285-.097-.639-.167-1.062-.207-.415-.049-.927-.074-1.538-.074h-1.684v4.932Zm17.764-7.434v13.831h7.642V353h-10.632v-16.333h2.99Zm22.562 12.17h-6.152L791.944 353h-3.186l6.482-16.333h2.734L804.456 353h-3.162l-1.599-4.163Zm-3.1-8.239c-.57 1.709-1.079 3.137-1.526 4.284l-.562 1.453h4.224l-.562-1.453c-.447-1.155-.956-2.583-1.525-4.284h-.049Zm20.633-1.709c-.814 0-1.567.134-2.258.403-.684.268-1.274.659-1.77 1.171-.489.513-.871 1.148-1.148 1.905-.276.748-.415 1.607-.415 2.575 0 .961.126 1.807.379 2.539.252.725.614 1.331 1.086 1.819.472.489 1.046.859 1.721 1.111.684.244 1.457.366 2.32.366.618 0 1.249-.049 1.892-.146.643-.098 1.245-.24 1.806-.427v2.575c-.569.163-1.184.289-1.843.379-.659.097-1.343.146-2.051.146-1.383 0-2.6-.195-3.65-.586-1.049-.399-1.928-.956-2.636-1.672-.7-.724-1.229-1.587-1.587-2.588-.35-1.009-.525-2.12-.525-3.333 0-1.245.187-2.4.561-3.466.383-1.066.928-1.99 1.636-2.771.716-.782 1.607-1.396 2.673-1.844 1.075-.447 2.287-.675 3.638-.683.692 0 1.347.049 1.965.146.619.09 1.176.22 1.673.391v2.539c-.651-.203-1.257-.346-1.819-.427-.562-.082-1.111-.122-1.648-.122Zm12.418 11.609h8.032V353h-11.023v-16.333h10.584v2.502h-7.593v4.224h6.519v2.503h-6.519v4.602ZM731.953 26V9.66699h2.991V26h-2.991Zm18.168-8.7402c1.171 1.6683 2.124 3.1494 2.856 4.4433h.073c-.097-2.124-.146-3.6702-.146-4.6386V9.66699h2.991V26h-3.138l-5.322-7.5195c-.936-1.3021-1.904-2.8117-2.905-4.5288h-.073c.097 2.0019.146 3.5522.146 4.6508V26h-2.991V9.66699h3.138l5.371 7.59281ZM769.228 26h-2.991V12.1694h-5.273V9.66699h13.525v2.50241h-5.261V26Zm13.321-2.5024h8.033V26h-11.023V9.66699h10.583v2.50241h-7.593v4.2237h6.519v2.5024h-6.519v4.6021Zm24.125-3.7354h-3.662v-2.5024h6.653v8.2397c-.245.0895-.558.1831-.94.2808-.375.0976-.798.1831-1.27.2563-.464.0814-.944.1465-1.44.1953-.497.0489-.989.0733-1.477.0733-1.465 0-2.747-.1953-3.846-.586-1.09-.3987-2.002-.9562-2.734-1.6723-.724-.7162-1.27-1.5666-1.636-2.5513-.358-.9928-.537-2.0874-.537-3.2837 0-.8463.094-1.652.281-2.417.195-.7731.476-1.4852.842-2.1362.375-.6592.826-1.2533 1.355-1.7822.529-.529 1.131-.9807 1.807-1.355.683-.3744 1.428-.6592 2.234-.85451.814-.20345 1.684-.30517 2.612-.30517.822 0 1.603.06103 2.344.1831.74.11393 1.347.25635 1.819.42725v2.53903c-.635-.2034-1.278-.358-1.929-.4638-.643-.1058-1.294-.1587-1.953-.1587-.887 0-1.717.1342-2.49.4028-.774.2604-1.445.651-2.015 1.1719-.561.5127-1.005 1.1474-1.33 1.9043-.326.7568-.488 1.6316-.488 2.6245.008 1.9287.512 3.3773 1.513 4.3457 1.001.9603 2.421 1.4404 4.26 1.4404.342 0 .696-.0163 1.062-.0488.367-.0407.688-.0895.965-.1465v-3.8208Zm21.5-5.188c0 1.1393-.318 2.1078-.952 2.9053-.627.7894-1.599 1.3753-2.918 1.7578v.0488L829.163 26h-3.589l-4.444-6.3232h-2.05V26h-2.991V9.66699h4.968c.822 0 1.587.04883 2.295.14649.708.08951 1.314.22782 1.819.41502.96.3662 1.701.9115 2.222 1.6358.52.7161.781 1.6194.781 2.7099Zm-7.617 2.6001c.683 0 1.261-.0285 1.733-.0854.48-.0651.883-.1587 1.209-.2808.602-.2279 1.017-.5371 1.245-.9277.236-.3988.354-.8545.354-1.3672 0-.4395-.094-.826-.281-1.1597-.179-.3418-.488-.6103-.928-.8056-.285-.1303-.643-.2238-1.074-.2808-.431-.0651-.964-.0977-1.599-.0977h-2.136v5.0049h1.477Zm23.331 4.6631h-6.153L836.136 26h-3.186l6.482-16.33301h2.735L848.648 26h-3.161l-1.599-4.1626Zm-3.101-8.2397c-.57 1.7089-1.078 3.1372-1.526 4.2846l-.561 1.4527h4.223l-.561-1.4527c-.448-1.1556-.956-2.5838-1.526-4.2846h-.049ZM859.052 26h-2.99V12.1694h-5.274V9.66699h13.525v2.50241h-5.261V26Zm10.331 0V9.66699h2.991V26h-2.991Zm21.756-8.1665c0-.9928-.122-1.8595-.366-2.6001-.244-.7487-.582-1.3713-1.013-1.8677-.432-.4964-.944-.8667-1.538-1.1108-.594-.2442-1.245-.3662-1.953-.3662s-1.359.122-1.954.3662c-.594.2441-1.106.6144-1.538 1.1108-.431.4964-.769 1.119-1.013 1.8677-.244.7406-.366 1.6073-.366 2.6001 0 .9928.122 1.8636.366 2.6123.244.7406.582 1.3591 1.013 1.8555.432.4883.944.8585 1.538 1.1108.595.2441 1.246.3662 1.954.3662s1.359-.1221 1.953-.3662c.594-.2523 1.106-.6225 1.538-1.1108.431-.4964.769-1.1149 1.013-1.8555.244-.7487.366-1.6195.366-2.6123Zm3.089 0c0 1.2451-.179 2.3885-.538 3.4302-.35 1.0335-.866 1.9246-1.55 2.6733-.675.7487-1.509 1.3306-2.502 1.7456-.985.4151-2.108.6226-3.369.6226-1.262 0-2.389-.2075-3.382-.6226-.984-.415-1.819-.9969-2.502-1.7456-.676-.7487-1.192-1.6398-1.551-2.6733-.349-1.0417-.524-2.1851-.524-3.4302 0-1.2451.175-2.3844.524-3.418.359-1.0416.875-1.9368 1.551-2.6855.683-.7487 1.518-1.3306 2.502-1.74562.993-.41504 2.12-.62256 3.382-.62256 1.261 0 2.384.20752 3.369.62256.993.41502 1.827.99692 2.502 1.74562.684.7487 1.2 1.6439 1.55 2.6855.359 1.0336.538 2.1729.538 3.418Zm14.432-.5737c1.172 1.6683 2.124 3.1494 2.856 4.4433h.073c-.097-2.124-.146-3.6702-.146-4.6386V9.66699h2.991V26h-3.138l-5.322-7.5195c-.936-1.3021-1.904-2.8117-2.905-4.5288h-.073c.097 2.0019.146 3.5522.146 4.6508V26h-2.991V9.66699h3.138l5.371 7.59281Zm31.452.5737c0-.9928-.122-1.8595-.366-2.6001-.245-.7487-.582-1.3713-1.014-1.8677-.431-.4964-.944-.8667-1.538-1.1108-.594-.2442-1.245-.3662-1.953-.3662s-1.359.122-1.953.3662c-.594.2441-1.107.6144-1.538 1.1108-.431.4964-.769 1.119-1.013 1.8677-.244.7406-.366 1.6073-.366 2.6001 0 .9928.122 1.8636.366 2.6123.244.7406.582 1.3591 1.013 1.8555.431.4883.944.8585 1.538 1.1108.594.2441 1.245.3662 1.953.3662s1.359-.1221 1.953-.3662c.594-.2523 1.107-.6225 1.538-1.1108.432-.4964.769-1.1149 1.014-1.8555.244-.7487.366-1.6195.366-2.6123Zm3.088 0c0 1.2451-.179 2.3885-.537 3.4302-.35 1.0335-.867 1.9246-1.55 2.6733-.676.7487-1.51 1.3306-2.503 1.7456-.984.4151-2.107.6226-3.369.6226-1.261 0-2.388-.2075-3.381-.6226-.985-.415-1.819-.9969-2.503-1.7456-.675-.7487-1.192-1.6398-1.55-2.6733-.35-1.0417-.525-2.1851-.525-3.4302 0-1.2451.175-2.3844.525-3.418.358-1.0416.875-1.9368 1.55-2.6855.684-.7487 1.518-1.3306 2.503-1.74562.993-.41504 2.12-.62256 3.381-.62256 1.262 0 2.385.20752 3.369.62256.993.41502 1.827.99692 2.503 1.74562.683.7487 1.2 1.6439 1.55 2.6855.358 1.0336.537 2.1729.537 3.418ZM952.115 26h-2.991V9.66699h10.4v2.50241h-7.409v4.2237h6.335v2.5024h-6.335V26Zm29.096-4.3823c.358-1.2858.802-2.6652 1.331-4.1382l2.819-7.81251h4.2V26h-2.991v-8.2764c0-1.2125.049-2.6204.146-4.2236h-.11c-.138.4639-.301.9847-.488 1.5625s-.382 1.1475-.586 1.709L982.151 26h-1.929l-3.381-9.2285c-.204-.5615-.399-1.1312-.586-1.709-.187-.5778-.35-1.0986-.488-1.5625h-.11c.097 1.5055.146 2.9093.146 4.2114V26h-2.991V9.66699h4.175l2.82 7.77591c.472 1.2939.916 2.6855 1.331 4.1748h.073Zm24.359.2197h-6.155L997.816 26h-3.186l6.48-16.33301h2.74L1010.33 26h-3.16l-1.6-4.1626Zm-3.1-8.2397c-.57 1.7089-1.08 3.1372-1.53 4.2846l-.56 1.4527h4.22l-.56-1.4527c-.45-1.1556-.95-2.5838-1.52-4.2846h-.05Zm25.01.9765c0 1.1393-.31 2.1078-.95 2.9053-.63.7894-1.6 1.3753-2.92 1.7578v.0488L1028.47 26h-3.59l-4.44-6.3232h-2.05V26h-2.99V9.66699h4.97c.82 0 1.58.04883 2.29.14649.71.08951 1.31.22782 1.82.41502.96.3662 1.7.9115 2.22 1.6358.52.7161.78 1.6194.78 2.7099Zm-7.61 2.6001c.68 0 1.26-.0285 1.73-.0854.48-.0651.88-.1587 1.21-.2808.6-.2279 1.01-.5371 1.24-.9277.24-.3988.36-.8545.36-1.3672 0-.4395-.1-.826-.28-1.1597-.18-.3418-.49-.6103-.93-.8056-.29-.1303-.65-.2238-1.08-.2808-.43-.0651-.96-.0977-1.6-.0977h-2.13v5.0049h1.48ZM1033.85 26V9.66699h2.99v7.43411h.05l6.16-7.43411h3.71l-6.81 8.09331L1047.32 26h-3.83l-6.6-7.373h-.05V26h-2.99Zm21.53-2.5024h8.03V26h-11.02V9.66699h10.59v2.50241h-7.6v4.2237h6.52v2.5024h-6.52v4.6021ZM1076.03 26h-2.99V12.1694h-5.28V9.66699h13.53v2.50241h-5.26V26Zm14.85-6.3232c-.27 0-.54-.0041-.8-.0122-.26-.0082-.5-.0245-.73-.0489V26h-2.99V9.66699h4.71c.79 0 1.48.03662 2.06.10987.6.0651 1.13.16682 1.59.30514 1.12.3418 1.97.8871 2.58 1.6358.6.7487.9 1.7008.9 2.8564 0 .7894-.16 1.5015-.49 2.1362-.32.6267-.8 1.1597-1.43 1.5992-.62.4394-1.39.7772-2.29 1.0132-.91.236-1.94.354-3.11.354Zm-1.53-2.5757c.17.0244.39.0447.65.061.26.0081.54.0122.83.0122.8 0 1.48-.0651 2.02-.1953.55-.1302.99-.3092 1.32-.5371.33-.236.57-.5168.72-.8423.15-.3336.22-.6958.22-1.0864 0-.4802-.11-.8952-.33-1.2451-.22-.35-.6-.6226-1.15-.8179-.28-.0977-.64-.1668-1.06-.2075-.41-.0489-.93-.0733-1.54-.0733h-1.68v4.9317Zm17.76-7.43411V23.4976h7.65V26h-10.64V9.66699h2.99Zm22.57 12.17041h-6.16L1121.92 26h-3.18l6.48-16.33301h2.73L1134.44 26h-3.17l-1.59-4.1626Zm-3.1-8.2397c-.57 1.7089-1.08 3.1372-1.53 4.2846l-.56 1.4527h4.22l-.56-1.4527c-.45-1.1556-.96-2.5838-1.53-4.2846h-.04Zm20.63-1.709c-.82 0-1.57.1342-2.26.4028-.68.2686-1.27.6592-1.77 1.1719-.49.5127-.87 1.1474-1.15 1.9043-.27.7487-.41 1.6072-.41 2.5757 0 .9602.12 1.8066.38 2.539.25.7243.61 1.3306 1.08 1.8189.47.4883 1.05.8585 1.72 1.1108.69.2441 1.46.3662 2.32.3662.62 0 1.25-.0488 1.9-.1465.64-.0976 1.24-.24 1.8-.4272v2.5757c-.57.1627-1.18.2889-1.84.3784-.66.0976-1.34.1465-2.05.1465-1.39 0-2.6-.1953-3.65-.586-1.05-.3987-1.93-.9562-2.64-1.6723-.7-.7243-1.23-1.5869-1.59-2.5879-.35-1.0091-.52-2.12-.52-3.3325 0-1.2452.19-2.4008.56-3.4668.38-1.0661.93-1.9898 1.64-2.771.71-.7813 1.6-1.3957 2.67-1.8433 1.07-.44758 2.29-.67545 3.64-.68358.69 0 1.34.04882 1.96.14648.62.08952 1.18.21973 1.68.39063V12.438c-.66-.2035-1.26-.3459-1.82-.4273-.57-.0813-1.11-.122-1.65-.122Zm12.42 11.6089h8.03V26h-11.02V9.66699h10.58v2.50241h-7.59v4.2237h6.52v2.5024h-6.52v4.6021ZM741.304 51.8374h-6.153L733.552 56h-3.186l6.482-16.333h2.735L746.064 56h-3.161l-1.599-4.1626Zm-3.101-8.2397c-.57 1.7089-1.078 3.1372-1.526 4.2846l-.561 1.4527h4.223l-.561-1.4527c-.448-1.1556-.956-2.5838-1.526-4.2846h-.049Zm21.439 3.6621c1.172 1.6683 2.124 3.1494 2.857 4.4433h.073c-.098-2.124-.147-3.6702-.147-4.6386V39.667h2.991V56h-3.137l-5.322-7.5195c-.936-1.3021-1.905-2.8117-2.906-4.5288h-.073c.098 2.0019.147 3.5522.147 4.6508V56h-2.991V39.667h3.137l5.371 7.5928ZM772.072 56V39.667h4.322c.382 0 .769.0122 1.159.0366.399.0244.786.061 1.16.1099.374.0488.736.1098 1.086.1831.35.0651.672.1465.965.2441.87.2767 1.639.6511 2.307 1.1231.667.472 1.225 1.0294 1.672 1.6723.456.6429.798 1.3632 1.026 2.1607.236.7894.354 1.6479.354 2.5757 0 .8789-.098 1.7049-.293 2.478-.196.765-.493 1.4648-.892 2.0996-.398.6348-.903 1.1963-1.513 1.6846-.602.4801-1.319.8748-2.149 1.1841-.691.2604-1.477.4557-2.356.5859-.878.1302-1.867.1953-2.966.1953h-3.882Zm4.224-2.5024c1.75 0 3.117-.2401 4.101-.7203.871-.4313 1.53-1.0579 1.978-1.8798.448-.822.671-1.8718.671-3.1495 0-.6673-.073-1.2695-.219-1.8066-.147-.5371-.358-1.0132-.635-1.4282-.277-.4232-.615-.7853-1.013-1.0864-.391-.3011-.834-.5494-1.331-.7447-.464-.179-.98-.3092-1.55-.3906-.57-.0814-1.209-.1221-1.917-.1221h-1.318v11.3282h1.233ZM804.928 56h-2.99V42.1694h-5.274V39.667h13.525v2.5024h-5.261V56Zm21.818-8.1665c0-.9928-.122-1.8595-.367-2.6001-.244-.7487-.581-1.3713-1.013-1.8677-.431-.4964-.944-.8667-1.538-1.1108-.594-.2442-1.245-.3662-1.953-.3662s-1.359.122-1.953.3662c-.594.2441-1.107.6144-1.538 1.1108-.432.4964-.769 1.119-1.013 1.8677-.245.7406-.367 1.6073-.367 2.6001 0 .9928.122 1.8636.367 2.6123.244.7406.581 1.3591 1.013 1.8555.431.4883.944.8585 1.538 1.1108.594.2441 1.245.3662 1.953.3662s1.359-.1221 1.953-.3662c.594-.2523 1.107-.6225 1.538-1.1108.432-.4964.769-1.1149 1.013-1.8555.245-.7487.367-1.6195.367-2.6123Zm3.088 0c0 1.2451-.179 2.3885-.537 3.4302-.35 1.0335-.867 1.9246-1.55 2.6733-.676.7487-1.51 1.3306-2.503 1.7456-.985.4151-2.108.6226-3.369.6226-1.261 0-2.389-.2075-3.381-.6226-.985-.415-1.819-.9969-2.503-1.7456-.675-.7487-1.192-1.6398-1.55-2.6733-.35-1.0417-.525-2.1851-.525-3.4302 0-1.2451.175-2.3844.525-3.418.358-1.0416.875-1.9368 1.55-2.6855.684-.7487 1.518-1.3306 2.503-1.7456.992-.4151 2.12-.6226 3.381-.6226 1.261 0 2.384.2075 3.369.6226.993.415 1.827.9969 2.503 1.7456.683.7487 1.2 1.6439 1.55 2.6855.358 1.0336.537 2.1729.537 3.418ZM835.758 56V39.667h2.991v7.4341h.048l6.165-7.4341h3.711l-6.812 8.0933L849.234 56h-3.833l-6.604-7.373h-.048V56h-2.991Zm21.536-2.5024h8.033V56h-11.023V39.667h10.583v2.5024h-7.593v4.2237h6.519v2.5024h-6.519v4.6021Zm22.477-6.2378c1.172 1.6683 2.124 3.1494 2.856 4.4433h.074c-.098-2.124-.147-3.6702-.147-4.6386V39.667h2.991V56h-3.137l-5.323-7.5195c-.935-1.3021-1.904-2.8117-2.905-4.5288h-.073c.098 2.0019.146 3.5522.146 4.6508V56h-2.99V39.667h3.137l5.371 7.5928ZM1192.94 50.667v13.8306h7.65V67h-10.64V50.667h2.99ZM1206.16 67V50.667h2.99V67h-2.99Zm17.69-4.6875c0-.415-.11-.7487-.31-1.001-.2-.2604-.48-.472-.83-.6347-.35-.1628-.74-.293-1.18-.3907-.43-.1058-.89-.2075-1.37-.3051-.63-.1384-1.24-.3011-1.82-.4883-.58-.1953-1.09-.4598-1.52-.7935-.44-.3418-.79-.7731-1.05-1.2939-.26-.5209-.39-1.1719-.39-1.9532 0-.8626.15-1.6113.45-2.246.3-.6429.7-1.1719 1.22-1.587.52-.4231 1.12-.7365 1.82-.9399.7-.2116 1.48-.3174 2.35-.3174.87 0 1.75.0855 2.63.2564.88.1709 1.63.3906 2.27.6591v2.5635c-.85-.3336-1.66-.5737-2.44-.7202-.78-.1546-1.51-.2319-2.19-.2319-.98 0-1.74.179-2.28.5371-.53.3581-.8.8952-.8 1.6113 0 .415.09.7568.26 1.0254.18.2686.42.4924.72.6714.3.1709.65.3092 1.04.415s.8.2035 1.24.293c.7.1465 1.35.3174 1.98.5127.64.1872 1.2.4516 1.69.7934.48.3418.87.7894 1.16 1.3428.28.5453.42 1.2451.42 2.0996 0 .8789-.16 1.6398-.49 2.2827-.32.6429-.78 1.176-1.39 1.5992-.59.415-1.32.7242-2.17.9277-.85.2035-1.79.3052-2.81.3052-.88 0-1.76-.0895-2.62-.2686-.86-.1709-1.57-.415-2.14-.7324v-2.5269c.81.35 1.59.6063 2.36.7691.76.1546 1.55.2319 2.37.2319.47 0 .93-.0366 1.39-.1098.45-.0814.86-.2157 1.22-.4029.36-.1871.66-.4394.88-.7568.22-.3255.33-.7243.33-1.1963ZM1239.67 67h-2.99V53.1694h-5.27V50.667h13.52v2.5024h-5.26V67Zm10.33 0V50.667h2.99V67H1250Zm18.17-8.7402c1.17 1.6683 2.12 3.1494 2.85 4.4433h.08c-.1-2.124-.15-3.6702-.15-4.6386V50.667h2.99V67h-3.13l-5.33-7.5195c-.93-1.3021-1.9-2.8117-2.9-4.5288h-.08c.1 2.0019.15 3.5522.15 4.6508V67h-2.99V50.667h3.14l5.37 7.5928Zm22.58 2.5024h-3.66v-2.5024h6.66v8.2397c-.25.0895-.56.1831-.94.2808-.38.0976-.8.1831-1.27.2563-.47.0814-.95.1465-1.44.1953-.5.0489-.99.0733-1.48.0733-1.47 0-2.75-.1953-3.85-.586-1.09-.3987-2-.9562-2.73-1.6723-.73-.7162-1.27-1.5666-1.64-2.5513-.35-.9928-.53-2.0874-.53-3.2837 0-.8463.09-1.652.28-2.417.19-.7731.47-1.4852.84-2.1362.37-.6592.83-1.2533 1.35-1.7822.53-.529 1.14-.9807 1.81-1.355.68-.3744 1.43-.6592 2.23-.8545.82-.2035 1.69-.3052 2.62-.3052.82 0 1.6.0611 2.34.1831.74.114 1.35.2564 1.82.4273v2.539c-.64-.2034-1.28-.358-1.93-.4638-.64-.1058-1.29-.1587-1.95-.1587-.89 0-1.72.1342-2.49.4028-.78.2604-1.45.651-2.02 1.1719-.56.5127-1 1.1474-1.33 1.9043-.32.7568-.49 1.6316-.49 2.6245.01 1.9287.52 3.3773 1.52 4.3457 1 .9603 2.42 1.4404 4.26 1.4404.34 0 .69-.0163 1.06-.0488.37-.0407.69-.0895.96-.1465v-3.8208Zm28.44-1.9287c0-.9928-.12-1.8595-.36-2.6001-.25-.7487-.59-1.3713-1.02-1.8677-.43-.4964-.94-.8667-1.54-1.1108-.59-.2442-1.24-.3662-1.95-.3662s-1.36.122-1.95.3662c-.6.2441-1.11.6144-1.54 1.1108-.43.4964-.77 1.119-1.01 1.8677-.25.7406-.37 1.6073-.37 2.6001 0 .9928.12 1.8636.37 2.6123.24.7406.58 1.3591 1.01 1.8555.43.4883.94.8585 1.54 1.1108.59.2441 1.24.3662 1.95.3662s1.36-.1221 1.95-.3662c.6-.2523 1.11-.6225 1.54-1.1108.43-.4964.77-1.1149 1.02-1.8555.24-.7487.36-1.6195.36-2.6123Zm3.09 0c0 1.2451-.18 2.3885-.54 3.4302-.35 1.0335-.86 1.9246-1.55 2.6733-.67.7487-1.51 1.3306-2.5 1.7456-.98.4151-2.11.6226-3.37.6226-1.26 0-2.39-.2075-3.38-.6226-.98-.415-1.82-.9969-2.5-1.7456-.68-.7487-1.19-1.6398-1.55-2.6733-.35-1.0417-.53-2.1851-.53-3.4302 0-1.2451.18-2.3844.53-3.418.36-1.0416.87-1.9368 1.55-2.6855.68-.7487 1.52-1.3306 2.5-1.7456.99-.4151 2.12-.6226 3.38-.6226 1.26 0 2.39.2075 3.37.6226.99.415 1.83.9969 2.5 1.7456.69.7487 1.2 1.6439 1.55 2.6855.36 1.0336.54 2.1729.54 3.418Zm14.43-.5737c1.17 1.6683 2.13 3.1494 2.86 4.4433h.07c-.1-2.124-.14-3.6702-.14-4.6386V50.667h2.99V67h-3.14l-5.32-7.5195c-.94-1.3021-1.91-2.8117-2.91-4.5288h-.07c.1 2.0019.14 3.5522.14 4.6508V67h-2.99V50.667h3.14l5.37 7.5928Zm23.32 6.2378h8.04V67h-11.03V50.667h10.59v2.5024h-7.6v4.2237h6.52v2.5024h-6.52v4.6021Zm18.28-10.4737c.79 1.1475 1.34 1.9694 1.66 2.4658h.06c.44-.6835.99-1.5014 1.65-2.4536l2.33-3.3691h3.45l-5.69 8.0322L1387.7 67h-3.39l-2.56-3.6499c-.62-.8952-1.2-1.7415-1.73-2.5391h-.05c-.55.8301-1.13 1.6765-1.73 2.5391L1375.69 67h-3.4l5.94-8.3008-5.69-8.0322h3.44l2.33 3.3569Zm21.67-1.1352c-.81 0-1.56.1342-2.26.4028-.68.2686-1.27.6592-1.77 1.1719-.48.5127-.87 1.1474-1.14 1.9043-.28.7487-.42 1.6072-.42 2.5757 0 .9602.13 1.8066.38 2.539.25.7243.61 1.3306 1.09 1.8189.47.4883 1.04.8585 1.72 1.1108.68.2441 1.45.3662 2.32.3662.62 0 1.25-.0488 1.89-.1465.64-.0976 1.24-.24 1.81-.4272v2.5757c-.57.1627-1.19.2889-1.85.3784-.66.0976-1.34.1465-2.05.1465-1.38 0-2.6-.1953-3.65-.586-1.05-.3987-1.93-.9562-2.63-1.6723-.7-.7243-1.23-1.5869-1.59-2.5879-.35-1.0091-.53-2.12-.53-3.3325 0-1.2452.19-2.4008.57-3.4668.38-1.0661.92-1.9898 1.63-2.771.72-.7813 1.61-1.3957 2.67-1.8433 1.08-.4476 2.29-.6754 3.64-.6836.69 0 1.35.0488 1.97.1465.62.0895 1.17.2197 1.67.3906v2.5391c-.65-.2035-1.26-.3459-1.82-.4273-.56-.0813-1.11-.122-1.65-.122Zm12.42 4.5044h7.57V50.667h2.99V67h-2.99v-7.1045h-7.57V67h-2.99V50.667h2.99v6.7261Zm26.57 5.4443h-6.16L1431.22 67h-3.19l6.48-16.333h2.74L1443.73 67h-3.16l-1.6-4.1626Zm-3.1-8.2397c-.57 1.7089-1.08 3.1372-1.53 4.2846l-.56 1.4527h4.22l-.56-1.4527c-.45-1.1556-.96-2.5838-1.52-4.2846h-.05Zm21.44 3.6621c1.17 1.6683 2.12 3.1494 2.85 4.4433h.07c-.09-2.124-.14-3.6702-.14-4.6386V50.667h2.99V67h-3.14l-5.32-7.5195c-.94-1.3021-1.9-2.8117-2.91-4.5288h-.07c.1 2.0019.15 3.5522.15 4.6508V67h-2.99V50.667h3.13l5.38 7.5928Zm22.58 2.5024h-3.66v-2.5024h6.65v8.2397c-.24.0895-.56.1831-.94.2808-.37.0976-.8.1831-1.27.2563-.46.0814-.94.1465-1.44.1953-.49.0489-.99.0733-1.47.0733-1.47 0-2.75-.1953-3.85-.586-1.09-.3987-2-.9562-2.73-1.6723-.73-.7162-1.27-1.5666-1.64-2.5513-.36-.9928-.54-2.0874-.54-3.2837 0-.8463.1-1.652.28-2.417.2-.7731.48-1.4852.85-2.1362.37-.6592.82-1.2533 1.35-1.7822.53-.529 1.13-.9807 1.81-1.355.68-.3744 1.43-.6592 2.23-.8545.82-.2035 1.69-.3052 2.61-.3052.83 0 1.61.0611 2.35.1831.74.114 1.34.2564 1.82.4273v2.539c-.64-.2034-1.28-.358-1.93-.4638-.65-.1058-1.3-.1587-1.96-.1587-.88 0-1.71.1342-2.49.4028-.77.2604-1.44.651-2.01 1.1719-.56.5127-1 1.1474-1.33 1.9043-.33.7568-.49 1.6316-.49 2.6245.01 1.9287.51 3.3773 1.51 4.3457 1.01.9603 2.43 1.4404 4.27 1.4404.34 0 .69-.0163 1.06-.0488.36-.0407.68-.0895.96-.1465v-3.8208Zm12.41 3.7354h8.03V67h-11.02V50.667h10.58v2.5024h-7.59v4.2237h6.52v2.5024h-6.52v4.6021ZM1011.94 336.667v13.831h7.65V353h-10.64v-16.333h2.99Zm22.57 12.17h-6.16l-1.6 4.163h-3.18l6.48-16.333h2.73l6.49 16.333h-3.17l-1.59-4.163Zm-3.1-8.239c-.57 1.709-1.08 3.137-1.53 4.284l-.56 1.453h4.22l-.56-1.453c-.45-1.155-.96-2.583-1.53-4.284h-.04Zm19.69 12.707c-.86 0-1.62-.085-2.31-.256-.68-.163-1.28-.399-1.81-.708-.52-.318-.96-.7-1.33-1.148-.36-.455-.65-.968-.87-1.538-.18-.455-.31-.96-.4-1.513-.07-.554-.11-1.172-.11-1.856v-9.619h3v9.351c0 1.155.13 2.058.41 2.71.31.724.76 1.249 1.36 1.574.59.318 1.29.476 2.1.476.8 0 1.5-.158 2.09-.476.6-.325 1.05-.85 1.36-1.574.28-.652.41-1.555.41-2.71v-9.351h3v9.619c0 .684-.05 1.302-.13 1.856-.07.553-.2 1.058-.37 1.513-.22.57-.52 1.083-.9 1.538-.36.448-.81.83-1.35 1.148-.53.309-1.14.545-1.83.708-.69.171-1.47.256-2.32.256Zm22-9.045c1.17 1.668 2.12 3.149 2.86 4.443h.07c-.1-2.124-.15-3.67-.15-4.639v-7.397h2.99V353h-3.13l-5.33-7.52c-.93-1.302-1.9-2.811-2.9-4.528h-.07c.09 2.002.14 3.552.14 4.651V353h-2.99v-16.333h3.14l5.37 7.593Zm20.38-5.371c-.82 0-1.57.134-2.26.403-.69.268-1.28.659-1.77 1.171-.49.513-.87 1.148-1.15 1.905-.28.748-.41 1.607-.41 2.575 0 .961.12 1.807.37 2.539.26.725.62 1.331 1.09 1.819.47.489 1.05.859 1.72 1.111.68.244 1.46.366 2.32.366.62 0 1.25-.049 1.89-.146.65-.098 1.25-.24 1.81-.427v2.575c-.57.163-1.18.289-1.84.379-.66.097-1.35.146-2.05.146-1.39 0-2.6-.195-3.65-.586-1.05-.399-1.93-.956-2.64-1.672-.7-.724-1.23-1.587-1.59-2.588-.35-1.009-.52-2.12-.52-3.333 0-1.245.18-2.4.56-3.466.38-1.066.93-1.99 1.63-2.771.72-.782 1.61-1.396 2.68-1.844 1.07-.447 2.28-.675 3.64-.683.69 0 1.34.049 1.96.146.62.09 1.18.22 1.67.391v2.539c-.65-.203-1.25-.346-1.82-.427-.56-.082-1.11-.122-1.64-.122Zm12.41 4.504h7.57v-6.726h2.99V353h-2.99v-7.104h-7.57V353h-2.99v-16.333h2.99v6.726Zm36.24 1.44c0-.992-.12-1.859-.36-2.6-.25-.748-.59-1.371-1.02-1.867-.43-.497-.94-.867-1.54-1.111-.59-.244-1.24-.366-1.95-.366s-1.36.122-1.95.366c-.6.244-1.11.614-1.54 1.111-.43.496-.77 1.119-1.01 1.867-.25.741-.37 1.608-.37 2.6 0 .993.12 1.864.37 2.613.24.74.58 1.359 1.01 1.855.43.489.94.859 1.54 1.111.59.244 1.24.366 1.95.366s1.36-.122 1.95-.366c.6-.252 1.11-.622 1.54-1.111.43-.496.77-1.115 1.02-1.855.24-.749.36-1.62.36-2.613Zm3.09 0c0 1.246-.18 2.389-.54 3.431-.35 1.033-.86 1.924-1.55 2.673-.67.749-1.51 1.331-2.5 1.746-.98.415-2.11.622-3.37.622-1.26 0-2.39-.207-3.38-.622-.99-.415-1.82-.997-2.5-1.746-.68-.749-1.2-1.64-1.55-2.673-.35-1.042-.53-2.185-.53-3.431 0-1.245.18-2.384.53-3.417.35-1.042.87-1.937 1.55-2.686.68-.749 1.51-1.331 2.5-1.746.99-.415 2.12-.622 3.38-.622 1.26 0 2.39.207 3.37.622.99.415 1.83.997 2.5 1.746.69.749 1.2 1.644 1.55 2.686.36 1.033.54 2.172.54 3.417Zm14.43-.573c1.17 1.668 2.13 3.149 2.86 4.443h.07c-.1-2.124-.14-3.67-.14-4.639v-7.397h2.99V353h-3.14l-5.32-7.52c-.94-1.302-1.91-2.811-2.91-4.528h-.07c.1 2.002.14 3.552.14 4.651V353h-2.99v-16.333h3.14l5.37 7.593Zm20.33 8.74v-16.333h4.32c.39 0 .77.012 1.16.037.4.024.79.061 1.16.109.38.049.74.11 1.09.184.35.065.67.146.96.244.88.276 1.64.651 2.31 1.123.67.472 1.23 1.029 1.67 1.672.46.643.8 1.363 1.03 2.161.24.789.35 1.648.35 2.575 0 .879-.09 1.705-.29 2.478-.19.765-.49 1.465-.89 2.1s-.9 1.196-1.51 1.685c-.61.48-1.32.875-2.15 1.184-.69.26-1.48.455-2.36.586-.88.13-1.87.195-2.96.195h-3.89Zm4.23-2.502c1.75 0 3.11-.241 4.1-.721.87-.431 1.53-1.058 1.98-1.88.44-.821.67-1.871.67-3.149 0-.667-.08-1.269-.22-1.807-.15-.537-.36-1.013-.64-1.428-.27-.423-.61-.785-1.01-1.086-.39-.301-.83-.55-1.33-.745-.46-.179-.98-.309-1.55-.39-.57-.082-1.21-.123-1.92-.123h-1.32v11.329h1.24Zm18.75 0h8.03V353h-11.02v-16.333h10.58v2.502h-7.59v4.224h6.52v2.503h-6.52v4.602Zm18.28-10.474c.79 1.147 1.34 1.969 1.66 2.466h.06c.44-.684.99-1.502 1.65-2.454l2.33-3.369h3.44l-5.69 8.032 5.93 8.301h-3.39l-2.55-3.65c-.63-.895-1.2-1.741-1.73-2.539h-.05c-.56.83-1.13 1.676-1.74 2.539l-2.55 3.65h-3.39l5.93-8.301-5.69-8.032h3.45l2.33 3.357ZM1539.99 340.312c0-.415-.11-.748-.31-1-.2-.261-.48-.472-.83-.635-.35-.163-.74-.293-1.18-.391-.44-.106-.89-.207-1.37-.305-.64-.138-1.24-.301-1.82-.488-.58-.196-1.09-.46-1.53-.794-.44-.342-.79-.773-1.05-1.294s-.39-1.172-.39-1.953c0-.862.15-1.611.46-2.246.3-.643.7-1.172 1.22-1.587.52-.423 1.12-.736 1.81-.94.7-.211 1.49-.317 2.36-.317.87 0 1.75.085 2.63.256.87.171 1.63.391 2.27.659v2.564c-.85-.334-1.66-.574-2.45-.72-.77-.155-1.5-.232-2.18-.232-.99 0-1.75.179-2.28.537-.53.358-.8.895-.8 1.611 0 .415.09.757.26 1.025.18.269.42.493.72.672.3.171.65.309 1.04.415.39.106.8.203 1.24.293.69.146 1.35.317 1.98.513.63.187 1.2.451 1.68.793.49.342.88.789 1.16 1.343.29.545.43 1.245.43 2.099 0 .879-.16 1.64-.49 2.283-.32.643-.79 1.176-1.39 1.599-.59.415-1.32.725-2.17.928-.86.203-1.79.305-2.81.305-.89 0-1.76-.089-2.62-.268-.86-.171-1.57-.415-2.14-.733v-2.527c.81.35 1.59.607 2.36.769.76.155 1.55.232 2.36.232.48 0 .94-.036 1.4-.11.45-.081.86-.215 1.22-.402.36-.188.66-.44.88-.757.22-.326.33-.724.33-1.197Zm17.09-9.423c-.82 0-1.57.134-2.26.403-.68.268-1.27.659-1.77 1.171-.49.513-.87 1.148-1.15 1.905-.27.748-.41 1.607-.41 2.575 0 .961.12 1.807.38 2.539.25.725.61 1.331 1.08 1.819.47.489 1.05.859 1.72 1.111.69.244 1.46.366 2.32.366.62 0 1.25-.049 1.9-.146.64-.098 1.24-.24 1.8-.427v2.575c-.57.163-1.18.289-1.84.379-.66.097-1.34.146-2.05.146-1.39 0-2.6-.195-3.65-.586-1.05-.399-1.93-.956-2.64-1.672-.7-.724-1.23-1.587-1.59-2.588-.35-1.009-.52-2.12-.52-3.333 0-1.245.19-2.4.56-3.466.38-1.066.93-1.99 1.64-2.771.71-.782 1.6-1.396 2.67-1.844 1.07-.447 2.29-.675 3.64-.683.69 0 1.34.049 1.96.146.62.09 1.18.22 1.68.391v2.539c-.66-.203-1.26-.346-1.82-.427-.56-.082-1.11-.122-1.65-.122Zm18.78 9.948h-6.16l-1.6 4.163h-3.18l6.48-16.333h2.74l6.48 16.333h-3.16l-1.6-4.163Zm-3.1-8.239c-.57 1.709-1.08 3.137-1.53 4.284l-.56 1.453h4.22l-.56-1.453c-.45-1.155-.96-2.583-1.53-4.284h-.04Zm15.92-3.931v13.831h7.64V345h-10.63v-16.333h2.99ZM1601.89 345v-16.333h2.99V345h-2.99Zm18.17-8.74c1.17 1.668 2.12 3.149 2.85 4.443h.08c-.1-2.124-.15-3.67-.15-4.639v-7.397h2.99V345h-3.14l-5.32-7.52c-.94-1.302-1.9-2.811-2.9-4.528h-.08c.1 2.002.15 3.552.15 4.651V345h-2.99v-16.333h3.14l5.37 7.593Zm22.58 2.502h-3.66v-2.502h6.65v8.24c-.24.089-.55.183-.94.28-.37.098-.79.183-1.27.257-.46.081-.94.146-1.44.195-.49.049-.99.073-1.47.073-1.47 0-2.75-.195-3.85-.586-1.09-.399-2-.956-2.73-1.672s-1.27-1.567-1.64-2.551c-.36-.993-.54-2.088-.54-3.284 0-.846.1-1.652.28-2.417.2-.773.48-1.485.85-2.136.37-.659.82-1.254 1.35-1.783.53-.529 1.13-.98 1.81-1.355.68-.374 1.43-.659 2.23-.854.82-.203 1.69-.305 2.61-.305.83 0 1.61.061 2.35.183.74.114 1.35.256 1.82.427v2.539c-.64-.203-1.28-.358-1.93-.464-.64-.105-1.3-.158-1.95-.158-.89 0-1.72.134-2.49.403-.78.26-1.45.651-2.02 1.171-.56.513-1 1.148-1.33 1.905-.32.757-.49 1.631-.49 2.624.01 1.929.51 3.377 1.52 4.346 1 .96 2.42 1.44 4.26 1.44.34 0 .69-.016 1.06-.049.36-.04.69-.089.96-.146v-3.821Zm28.44-1.929c0-.992-.12-1.859-.37-2.6-.24-.748-.58-1.371-1.01-1.867-.43-.497-.94-.867-1.54-1.111-.59-.244-1.24-.366-1.95-.366s-1.36.122-1.95.366c-.6.244-1.11.614-1.54 1.111-.43.496-.77 1.119-1.02 1.867-.24.741-.36 1.608-.36 2.6 0 .993.12 1.864.36 2.613.25.74.59 1.359 1.02 1.855.43.489.94.859 1.54 1.111.59.244 1.24.366 1.95.366s1.36-.122 1.95-.366c.6-.252 1.11-.622 1.54-1.111.43-.496.77-1.115 1.01-1.855.25-.749.37-1.62.37-2.613Zm3.09 0c0 1.246-.18 2.389-.54 3.431-.35 1.033-.87 1.924-1.55 2.673-.67.749-1.51 1.331-2.5 1.746-.99.415-2.11.622-3.37.622-1.26 0-2.39-.207-3.38-.622-.99-.415-1.82-.997-2.5-1.746-.68-.749-1.2-1.64-1.56-2.673-.35-1.042-.52-2.185-.52-3.431 0-1.245.17-2.384.52-3.417.36-1.042.88-1.937 1.56-2.686.68-.749 1.51-1.331 2.5-1.746.99-.415 2.12-.622 3.38-.622 1.26 0 2.38.207 3.37.622.99.415 1.83.997 2.5 1.746.68.749 1.2 1.644 1.55 2.686.36 1.033.54 2.172.54 3.417Zm8.91 8.167h-2.99v-16.333h10.4v2.502h-7.41v4.224h6.34v2.503h-6.34V345Zm31.82-8.167c0-.992-.12-1.859-.37-2.6-.24-.748-.58-1.371-1.01-1.867-.43-.497-.94-.867-1.54-1.111-.59-.244-1.24-.366-1.95-.366s-1.36.122-1.95.366c-.6.244-1.11.614-1.54 1.111-.43.496-.77 1.119-1.01 1.867-.25.741-.37 1.608-.37 2.6 0 .993.12 1.864.37 2.613.24.74.58 1.359 1.01 1.855.43.489.94.859 1.54 1.111.59.244 1.24.366 1.95.366s1.36-.122 1.95-.366c.6-.252 1.11-.622 1.54-1.111.43-.496.77-1.115 1.01-1.855.25-.749.37-1.62.37-2.613Zm3.09 0c0 1.246-.18 2.389-.54 3.431-.35 1.033-.86 1.924-1.55 2.673-.67.749-1.51 1.331-2.5 1.746-.99.415-2.11.622-3.37.622-1.26 0-2.39-.207-3.38-.622-.99-.415-1.82-.997-2.5-1.746-.68-.749-1.2-1.64-1.55-2.673-.35-1.042-.53-2.185-.53-3.431 0-1.245.18-2.384.53-3.417.35-1.042.87-1.937 1.55-2.686.68-.749 1.51-1.331 2.5-1.746.99-.415 2.12-.622 3.38-.622 1.26 0 2.38.207 3.37.622.99.415 1.83.997 2.5 1.746.69.749 1.2 1.644 1.55 2.686.36 1.033.54 2.172.54 3.417Zm18.01-3.259c0 1.14-.32 2.108-.95 2.905-.63.79-1.6 1.376-2.92 1.758v.049l4.86 6.714h-3.59l-4.45-6.323h-2.05V345h-2.99v-16.333h4.97c.82 0 1.59.049 2.3.146.7.09 1.31.228 1.82.416.96.366 1.7.911 2.22 1.635.52.716.78 1.62.78 2.71Zm-7.62 2.6c.68 0 1.26-.028 1.73-.085.48-.065.89-.159 1.21-.281.6-.228 1.02-.537 1.25-.928.23-.398.35-.854.35-1.367 0-.439-.09-.826-.28-1.159-.18-.342-.49-.611-.93-.806-.28-.13-.64-.224-1.07-.281-.43-.065-.97-.098-1.6-.098h-2.14v5.005h1.48Zm25.81-3.161c0 .708-.16 1.359-.48 1.953-.31.586-.84 1.074-1.57 1.465v.048c.41.139.78.318 1.11.538.34.211.63.468.87.769.24.293.43.626.56 1.001.14.374.21.793.21 1.257 0 .399-.07.826-.2 1.282-.12.455-.34.899-.66 1.33-.32.423-.74.814-1.27 1.172s-1.19.643-2 .855c-.2.048-.43.093-.67.134-.24.041-.5.077-.8.11-.29.024-.61.045-.97.061-.36.008-.76.012-1.21.012h-4.75v-16.333h5.68c1.21 0 2.19.122 2.93.366.55.179 1.03.415 1.44.708.4.285.74.606 1 .965.27.35.46.724.58 1.123.13.39.2.785.2 1.184Zm-8.84 4.883v4.602h1.96c.52 0 .96-.013 1.34-.037.37-.033.69-.081.96-.147.42-.089.76-.207 1.04-.354.28-.154.5-.325.67-.512.17-.196.29-.407.37-.635.07-.236.11-.484.11-.745 0-.455-.13-.854-.38-1.196-.25-.342-.65-.598-1.19-.769-.23-.073-.51-.126-.83-.159-.31-.032-.72-.048-1.22-.048h-2.83Zm2.7-2.503c.81 0 1.42-.081 1.82-.244.45-.187.76-.444.95-.769.2-.334.29-.708.29-1.123 0-.431-.11-.814-.33-1.148-.22-.341-.59-.594-1.12-.756-.22-.066-.47-.11-.77-.135-.29-.032-.65-.049-1.08-.049h-2.46v4.224h2.7Zm15.63 7.105h8.03V345h-11.02v-16.333h10.58v2.502h-7.59v4.224h6.52v2.503h-6.52v4.602Zm16.96 0h8.03V345h-11.02v-16.333h10.58v2.502h-7.59v4.224h6.52v2.503h-6.52v4.602Zm22.36-1.88c.36-1.286.81-2.666 1.33-4.139l2.82-7.812h4.2V345h-2.99v-8.276c0-1.213.05-2.621.15-4.224h-.11c-.14.464-.3.985-.49 1.562-.19.578-.38 1.148-.58 1.709l-3.39 9.229h-1.92l-3.39-9.229c-.2-.561-.39-1.131-.58-1.709-.19-.577-.35-1.098-.49-1.562h-.11c.1 1.506.15 2.909.15 4.211V345h-2.99v-16.333h4.17l2.82 7.776c.47 1.294.92 2.685 1.33 4.175h.07Zm-268.06 31.88h8.04V375h-11.03v-16.333h10.59v2.502h-7.6v4.224h6.52v2.503h-6.52v4.602Zm21.92-11.609c-.81 0-1.57.134-2.26.403-.68.268-1.27.659-1.77 1.171-.49.513-.87 1.148-1.15 1.905-.27.748-.41 1.607-.41 2.575 0 .961.12 1.807.38 2.539.25.725.61 1.331 1.08 1.819.47.489 1.05.859 1.72 1.111.69.244 1.46.366 2.32.366.62 0 1.25-.049 1.9-.146.64-.098 1.24-.24 1.8-.427v2.575c-.57.163-1.18.289-1.84.379-.66.097-1.34.146-2.05.146-1.39 0-2.6-.195-3.65-.586-1.05-.399-1.93-.956-2.64-1.672-.7-.724-1.23-1.587-1.59-2.588-.35-1.009-.52-2.12-.52-3.333 0-1.245.19-2.4.56-3.466.38-1.066.93-1.99 1.64-2.771.71-.782 1.6-1.396 2.67-1.844 1.07-.447 2.29-.675 3.64-.683.69 0 1.34.049 1.96.146.62.09 1.18.22 1.68.391v2.539c-.66-.203-1.26-.346-1.82-.427-.56-.082-1.11-.122-1.65-.122Zm21.52 5.944c0-.992-.12-1.859-.36-2.6-.25-.748-.58-1.371-1.02-1.867-.43-.497-.94-.867-1.53-1.111-.6-.244-1.25-.366-1.96-.366s-1.36.122-1.95.366c-.59.244-1.11.614-1.54 1.111-.43.496-.77 1.119-1.01 1.867-.25.741-.37 1.608-.37 2.6 0 .993.12 1.864.37 2.613.24.74.58 1.359 1.01 1.855.43.489.95.859 1.54 1.111.59.244 1.24.366 1.95.366s1.36-.122 1.96-.366c.59-.252 1.1-.622 1.53-1.111.44-.496.77-1.115 1.02-1.855.24-.749.36-1.62.36-2.613Zm3.09 0c0 1.246-.18 2.389-.54 3.431-.35 1.033-.86 1.924-1.55 2.673-.67.749-1.51 1.331-2.5 1.746-.98.415-2.11.622-3.37.622-1.26 0-2.39-.207-3.38-.622-.98-.415-1.82-.997-2.5-1.746-.68-.749-1.19-1.64-1.55-2.673-.35-1.042-.53-2.185-.53-3.431 0-1.245.18-2.384.53-3.417.36-1.042.87-1.937 1.55-2.686.68-.749 1.52-1.331 2.5-1.746.99-.415 2.12-.622 3.38-.622 1.26 0 2.39.207 3.37.622.99.415 1.83.997 2.5 1.746.69.749 1.2 1.644 1.55 2.686.36 1.033.54 2.172.54 3.417Zm13.96 3.479c0-.415-.1-.748-.31-1-.2-.261-.48-.472-.83-.635-.35-.163-.74-.293-1.18-.391-.43-.106-.89-.207-1.37-.305-.63-.138-1.24-.301-1.82-.488-.58-.196-1.08-.46-1.52-.794-.44-.342-.79-.773-1.05-1.294s-.39-1.172-.39-1.953c0-.862.15-1.611.45-2.246.3-.643.71-1.172 1.22-1.587.52-.423 1.13-.736 1.82-.94.7-.211 1.48-.317 2.35-.317.87 0 1.75.085 2.63.256.88.171 1.63.391 2.27.659v2.564c-.85-.334-1.66-.574-2.44-.72-.78-.155-1.5-.232-2.19-.232-.98 0-1.74.179-2.28.537-.53.358-.79.895-.79 1.611 0 .415.08.757.25 1.025.18.269.42.493.72.672.3.171.65.309 1.04.415.39.106.81.203 1.24.293.7.146 1.36.317 1.98.513.64.187 1.2.451 1.69.793s.87.789 1.16 1.343c.28.545.42 1.245.42 2.099 0 .879-.16 1.64-.48 2.283-.33.643-.79 1.176-1.4 1.599-.59.415-1.31.725-2.17.928-.85.203-1.79.305-2.81.305-.88 0-1.76-.089-2.62-.268-.86-.171-1.57-.415-2.14-.733v-2.527c.81.35 1.59.607 2.36.769.76.155 1.55.232 2.37.232.47 0 .93-.036 1.39-.11.45-.081.86-.215 1.22-.402.37-.188.66-.44.88-.757.22-.326.33-.724.33-1.197Zm15.14-4.614 4.34-7.031h3.32l-6.19 9.753V375h-2.99v-6.58l-6.18-9.753h3.32l4.34 7.031h.04Zm20.66 4.614c0-.415-.11-.748-.31-1-.2-.261-.48-.472-.83-.635-.35-.163-.74-.293-1.18-.391-.44-.106-.89-.207-1.37-.305-.64-.138-1.24-.301-1.82-.488-.58-.196-1.09-.46-1.53-.794-.44-.342-.79-.773-1.05-1.294s-.39-1.172-.39-1.953c0-.862.15-1.611.46-2.246.3-.643.7-1.172 1.22-1.587.52-.423 1.12-.736 1.82-.94.69-.211 1.48-.317 2.35-.317.87 0 1.75.085 2.63.256.87.171 1.63.391 2.27.659v2.564c-.85-.334-1.66-.574-2.45-.72-.77-.155-1.5-.232-2.18-.232-.99 0-1.75.179-2.28.537-.53.358-.8.895-.8 1.611 0 .415.09.757.26 1.025.18.269.42.493.72.672.3.171.65.309 1.04.415.39.106.8.203 1.24.293.69.146 1.35.317 1.98.513.64.187 1.2.451 1.68.793.49.342.88.789 1.16 1.343.29.545.43 1.245.43 2.099 0 .879-.16 1.64-.49 2.283-.32.643-.79 1.176-1.39 1.599-.59.415-1.32.725-2.17.928-.86.203-1.79.305-2.81.305-.89 0-1.76-.089-2.62-.268-.86-.171-1.57-.415-2.14-.733v-2.527c.81.35 1.59.607 2.36.769.76.155 1.55.232 2.36.232.48 0 .94-.036 1.4-.11.45-.081.86-.215 1.22-.402.36-.188.66-.44.88-.757.22-.326.33-.724.33-1.197Zm15.82 4.688h-2.99v-13.831h-5.27v-2.502h13.52v2.502h-5.26V375Zm13.32-2.502h8.03V375h-11.02v-16.333h10.58v2.502h-7.59v4.224h6.52v2.503h-6.52v4.602Zm22.37-1.88c.36-1.286.8-2.666 1.33-4.139l2.82-7.812h4.2V375h-2.99v-8.276c0-1.213.05-2.621.14-4.224h-.11c-.14.464-.3.985-.49 1.562-.18.578-.38 1.148-.58 1.709l-3.38 9.229h-1.93l-3.38-9.229c-.21-.561-.4-1.131-.59-1.709-.19-.577-.35-1.098-.49-1.562h-.11c.1 1.506.15 2.909.15 4.211V375h-2.99v-16.333h4.17l2.82 7.776c.48 1.294.92 2.685 1.33 4.175h.08Z" fill="#fff"/>
  <path fill-rule="evenodd" clip-rule="evenodd" d="m121.308 17.8098-.489-.282-.494.2735-16.631 9.202-.52.2876.004.5941.131 19.4876.004.5682.49.2875 8.354 4.9034 1.012-1.7249-7.864-4.6157-.123-18.3254 15.617-8.641 1.727.9955.102 28.0099.007 1.7124 1.488-.8469 8.25-4.6947.505-.2876v-8.0624h-.001V31.3446c0-.3319-.167-.5551-.189-.5851l-.002-.0025c-.047-.0657-.093-.1109-.111-.1291-.042-.0404-.078-.0685-.089-.0774-.029-.0226-.055-.0402-.066-.0472-.025-.0174-.053-.0351-.077-.0497-.049-.0311-.117-.0723-.198-.1207-.163-.0976-.396-.2352-.681-.4023-.57-.3348-1.359-.7934-2.232-1.2992-1.535-.8895-3.338-1.9274-4.687-2.6981l-.021-5.6958-.002-.5754-.499-.2874-2.715-1.5649Zm3.245 10.4328.031 8.5132 6.293-.0796V31.9057c-.121-.0718-.264-.1557-.425-.25-.566-.3321-1.35-.7886-2.222-1.2936-1.178-.6823-2.512-1.4515-3.677-2.1195Zm.069 18.8678-.03-8.3546 6.286-.0795v4.874l-6.256 3.5601Zm11.689-18.3601-7.855-4.5125.996-1.7343 8.354 4.799.499.2865.003.5751.105 18.9874.003.5775-.499.2914-16.604 9.7023-.518.3024-.51-.3139-2.716-1.6692-.476-.2928v-6.2369c-1.377-.7847-3.195-1.8309-4.735-2.7214-.869-.5025-1.65-.9562-2.215-1.286-.282-.1647-.511-.2995-.671-.3942-.079-.0471-.145-.0861-.191-.1147-.023-.0136-.047-.0286-.068-.0423-.009-.0056-.029-.0184-.051-.0343-.008-.0059-.037-.0261-.07-.0545-.014-.0118-.055-.0468-.1-.098-.024-.0281-.081-.1034-.111-.1516-.046-.0847-.127-.3408-.142-.5134v-1.4411l-.001-3.4669c0-2.7128-.001-5.955-.001-8.0839v-.5904l.517-.2852 8.356-4.6096 1.483-.8181V54.631l1.728 1.0625 15.589-9.1085-.099-17.8347Zm-19.218 18.4588v-19.015l-6.356 3.5063c0 2.1082.001 5.0205.001 7.4932l.001 4.3423c.119.0698.257.151.413.242.561.3279 1.34.78 2.207 1.2817 1.191.6886 2.546 1.4695 3.734 2.1495Z" fill="url(#b)"/>
  <ellipse cx="128.638" cy="23.1604" rx="1.0443" ry="1.04326" fill="#F5F8FF"/>
  <ellipse cx="112.767" cy="52.3733" rx="1.0443" ry="1.04326" fill="#BACDFE"/>
  <circle cx="121" cy="38" r="26" stroke="url(#c)" stroke-width="2"/>
  <path d="M456.25 347c0 14.497-11.753 26.25-26.25 26.25M456.25 347c0-14.497-11.753-26.25-26.25-26.25M456.25 347c0-6.443-11.753-11.667-26.25-11.667s-26.25 5.224-26.25 11.667m52.5 0c0 6.443-11.753 11.667-26.25 11.667s-26.25-5.224-26.25-11.667M430 373.25c-14.497 0-26.25-11.753-26.25-26.25M430 373.25c6.443 0 11.667-11.753 11.667-26.25s-5.224-26.25-11.667-26.25m0 52.5c-6.443 0-11.667-11.753-11.667-26.25s5.224-26.25 11.667-26.25M403.75 347c0-14.497 11.753-26.25 26.25-26.25" stroke="#fff" stroke-width="2" stroke-linecap="round" stroke-linejoin="round"/>
  <path d="M456.25 347c0 14.497-11.753 26.25-26.25 26.25M456.25 347c0-14.497-11.753-26.25-26.25-26.25M456.25 347c0-6.443-11.753-11.667-26.25-11.667s-26.25 5.224-26.25 11.667m52.5 0c0 6.443-11.753 11.667-26.25 11.667s-26.25-5.224-26.25-11.667M430 373.25c-14.497 0-26.25-11.753-26.25-26.25M430 373.25c6.443 0 11.667-11.753 11.667-26.25s-5.224-26.25-11.667-26.25m0 52.5c-6.443 0-11.667-11.753-11.667-26.25s5.224-26.25 11.667-26.25M403.75 347c0-14.497 11.753-26.25 26.25-26.25" stroke="url(#d)" stroke-width="2" stroke-linecap="round" stroke-linejoin="round"/>
  <path d="M664.583 46.6667c-3.221 0-5.833 2.6116-5.833 5.8333 0 3.2217 2.612 5.8333 5.833 5.8333 3.222 0 5.834-2.6116 5.834-5.8333 0-3.2217-2.612-5.8333-5.834-5.8333Zm0 0V32.0833c0-3.8677 1.537-7.577 4.272-10.3119 2.735-2.7349 6.444-4.2714 10.312-4.2714h8.75m17.5 5.8333c3.221 0 5.833-2.6116 5.833-5.8333 0-3.2217-2.612-5.8333-5.833-5.8333-3.222 0-5.834 2.6116-5.834 5.8333 0 3.2217 2.612 5.8333 5.834 5.8333Zm0 0v14.5834c0 3.8677-1.537 7.577-4.272 10.3119-2.735 2.7349-6.444 4.2714-10.312 4.2714h-8.75m0 0 8.75-8.75m-8.75 8.75 8.75 8.75m-2.916-43.75-8.75-8.75m8.75 8.75-8.75 8.75" stroke="url(#e)" stroke-width="2" stroke-linecap="round" stroke-linejoin="round"/>
  <path d="M1256.67 363.5v8.75h46.66v-40.833L1280 319.75l-23.33 11.667v8.75m0 11.666h26.25m0 0-8.75-8.75m8.75 8.75-8.75 8.75" stroke="#fff" stroke-width="2" stroke-linecap="round" stroke-linejoin="round"/>
  <path d="M1256.67 363.5v8.75h46.66v-40.833L1280 319.75l-23.33 11.667v8.75m0 11.666h26.25m0 0-8.75-8.75m8.75 8.75-8.75 8.75" stroke="url(#f)" stroke-width="2" stroke-linecap="round" stroke-linejoin="round"/>
  <path d="M1528.25 66.416v-17.5c0-1.6108-1.31-2.9167-2.92-2.9167h-11.66c-1.61 0-2.92 1.3059-2.92 2.9167v17.5c0 1.6108 1.31 2.9167 2.92 2.9167m14.58-2.9167c0 1.6108-1.31 2.9167-2.92 2.9167h-11.66m14.58-2.9167c0 1.6108 1.31 2.9167 2.92 2.9167h11.66c1.61 0 2.92-1.3059 2.92-2.9167m-17.5 0V37.2493c0-1.6108 1.31-2.9166 2.92-2.9166h11.66c1.61 0 2.92 1.3058 2.92 2.9166V66.416m-32.08 2.9167h40.83m-8.75-2.9167c0 1.6108 1.31 2.9167 2.92 2.9167h11.66c1.61 0 2.92-1.3059 2.92-2.9167V25.5827c0-1.6108-1.31-2.9167-2.92-2.9167h-11.66c-1.61 0-2.92 1.3059-2.92 2.9167V66.416Z" stroke="#fff" stroke-width="2" stroke-linecap="round" stroke-linejoin="round"/>
  <path d="M1528.25 66.416v-17.5c0-1.6108-1.31-2.9167-2.92-2.9167h-11.66c-1.61 0-2.92 1.3059-2.92 2.9167v17.5c0 1.6108 1.31 2.9167 2.92 2.9167m14.58-2.9167c0 1.6108-1.31 2.9167-2.92 2.9167h-11.66m14.58-2.9167c0 1.6108 1.31 2.9167 2.92 2.9167h11.66c1.61 0 2.92-1.3059 2.92-2.9167m-17.5 0V37.2493c0-1.6108 1.31-2.9166 2.92-2.9166h11.66c1.61 0 2.92 1.3058 2.92 2.9166V66.416m-32.08 2.9167h40.83m-8.75-2.9167c0 1.6108 1.31 2.9167 2.92 2.9167h11.66c1.61 0 2.92-1.3059 2.92-2.9167V25.5827c0-1.6108-1.31-2.9167-2.92-2.9167h-11.66c-1.61 0-2.92 1.3059-2.92 2.9167V66.416Z" stroke="url(#g)" stroke-width="2" stroke-linecap="round" stroke-linejoin="round"/>
  <path d="M1863.25 327.166h-33.5c-3.08 0-5.58 2.5-5.58 5.583v33.5c0 3.084 2.5 5.584 5.58 5.584h33.5c3.08 0 5.58-2.5 5.58-5.584v-33.5c0-3.083-2.5-5.583-5.58-5.583Z" stroke="#D4E0FF" stroke-width="2" stroke-linecap="round" stroke-linejoin="round"/>
  <defs>
    <linearGradient id="a" x1="-31.5692" y1="103.314" x2="2262.29" y2="388.769" gradientUnits="userSpaceOnUse">
      <stop stop-color="#416CCA"/>
      <stop offset="1" stop-color="#7852CB"/>
    </linearGradient>
    <linearGradient id="b" x1="120.795" y1="18.3516" x2="120.885" y2="60.4119" gradientUnits="userSpaceOnUse">
      <stop stop-color="#FDFEFF"/>
      <stop offset="1" stop-color="#A7BFFE"/>
    </linearGradient>
    <linearGradient id="c" x1="121" y1="11" x2="121.108" y2="69.4814" gradientUnits="userSpaceOnUse">
      <stop stop-color="#FDFEFF"/>
      <stop offset="1" stop-color="#A7BFFE"/>
    </linearGradient>
    <linearGradient id="d" x1="430" y1="320.75" x2="430.105" y2="377.607" gradientUnits="userSpaceOnUse">
      <stop stop-color="#FDFEFF"/>
      <stop offset="1" stop-color="#A7BFFE"/>
    </linearGradient>
    <linearGradient id="e" x1="685" y1="8.75" x2="685.105" y2="65.6069" gradientUnits="userSpaceOnUse">
      <stop stop-color="#FDFEFF"/>
      <stop offset="1" stop-color="#A7BFFE"/>
    </linearGradient>
    <linearGradient id="f" x1="1280" y1="319.75" x2="1280.12" y2="376.607" gradientUnits="userSpaceOnUse">
      <stop stop-color="#FDFEFF"/>
      <stop offset="1" stop-color="#A7BFFE"/>
    </linearGradient>
    <linearGradient id="g" x1="1537" y1="22.666" x2="1537.08" y2="73.2055" gradientUnits="userSpaceOnUse">
      <stop stop-color="#FDFEFF"/>
      <stop offset="1" stop-color="#A7BFFE"/>
    </linearGradient>
  </defs>
</svg>
