<svg width="64" height="64" viewBox="0 0 64 64" fill="none" xmlns="http://www.w3.org/2000/svg">
<path d="M58.6693 10.6953C56.0026 12.002 53.3893 12.5327 50.6693 13.3353C47.6799 9.96199 43.2479 9.77532 38.9893 11.37C34.7306 12.9647 31.9413 16.8633 32.0026 21.3353V24.002C23.3493 24.2233 15.6426 20.282 10.6693 13.3353C10.6693 13.3353 -0.48273 33.1567 21.3359 42.6687C16.3439 45.994 11.3653 48.2367 5.33594 48.002C14.1573 52.81 23.7706 54.4633 32.0933 52.0473C41.6399 49.274 49.4853 42.1193 52.4959 31.402C53.394 28.1424 53.84 24.7749 53.8213 21.394C53.8159 20.73 57.8479 14.002 58.6693 10.6927V10.6953Z" stroke="white" stroke-width="3" stroke-linecap="round" stroke-linejoin="round"/>
</svg>
