<svg width="1920" height="995" viewBox="0 0 1920 995" fill="none" xmlns="http://www.w3.org/2000/svg">
<g opacity="0.4">
<path d="M-408 313.904C-220.71 153.77 203.026 -142.715 399.656 -47.5812C645.443 71.3363 793.788 478.377 1234.46 313.904C1675.13 149.431 1773.06 371.884 1934.49 174.28C2095.93 -23.3244 2308.26 407.974 2338.32 420.398" stroke="url(#paint0_linear_367_1965)"/>
<path d="M-394.914 864.121C-256.75 879.109 47.794 880.332 160.653 765.319C301.726 621.553 547.998 815.016 702.645 864.121C857.292 913.226 1527.27 539.316 1570.9 765.319C1614.53 991.321 1917.04 1077.11 2014.97 896.661C2093.31 752.303 2271.9 748.95 2351.41 765.319" stroke="url(#paint1_linear_367_1965)"/>
<path d="M-407.379 335.008C-311.614 259.467 -151.63 150.806 0.339016 66.9996C153.651 -18.1763 313.085 -56.9045 414.082 -9.26426C655.529 106.329 828.714 476.182 1250.48 330.303C1672.24 184.424 1779.91 400.369 1938.32 203.582C2095.8 8.51285 2306.53 419.113 2338.94 431.725" stroke="url(#paint2_linear_367_1965)"/>
<path d="M-406.75 356.546C-308.865 285.532 -141.653 182.365 8.36037 96.9983C161.061 8.89293 324.836 -18.2258 428.516 29.4877C665.623 141.756 863.648 474.421 1266.51 347.136C1669.36 219.852 1786.78 429.288 1942.16 233.318C2095.68 40.7851 2304.81 430.688 2339.57 443.488" stroke="url(#paint3_linear_367_1965)"/>
<path d="M-406.137 378.576C-306.132 312.088 -131.692 214.415 16.3661 127.488C168.454 36.4533 336.572 20.9441 442.934 68.7309C675.701 177.675 898.565 473.152 1282.52 364.461C1666.47 255.77 1793.62 458.699 1945.98 263.546C2095.55 73.5485 2303.06 442.754 2340.19 455.741" stroke="url(#paint4_linear_367_1965)"/>
<path d="M-405.508 401.169C-303.383 339.207 -121.715 247.029 24.3874 158.541C175.864 64.577 348.323 60.6774 457.368 108.537C685.795 214.157 933.499 472.446 1298.54 382.349C1663.59 292.253 1800.48 488.674 1949.82 294.337C2095.43 106.875 2301.34 455.383 2340.81 468.558" stroke="url(#paint5_linear_367_1965)"/>
<path d="M-404.887 424.344C-300.642 366.909 -111.746 280.225 32.4009 190.177C183.265 93.2829 360.067 100.993 471.794 148.926C695.881 251.222 968.424 472.322 1314.56 400.819C1660.7 329.317 1807.34 519.23 1953.65 325.711C2095.3 140.784 2299.6 468.594 2341.44 481.957" stroke="url(#paint6_linear_367_1965)"/>
<path d="M-404.258 448.102C-297.893 395.194 -101.769 314.004 40.4223 222.396C190.675 122.572 371.818 141.892 486.228 189.898C705.975 288.869 1003.36 472.782 1330.59 419.873C1657.82 366.965 1814.2 550.37 1957.49 357.668C2095.18 175.277 2297.88 482.389 2342.06 495.94" stroke="url(#paint7_linear_367_1965)"/>
<path d="M-403.641 472.414C-295.156 424.032 -91.8037 348.336 48.4319 255.167C198.072 152.414 383.558 183.344 500.65 231.423C716.057 327.07 1038.28 473.794 1346.6 439.48C1654.93 405.165 1821.05 582.062 1961.32 390.177C2095.05 210.322 2296.14 496.736 2342.68 510.475" stroke="url(#paint8_linear_367_1965)"/>
<path d="M-403.016 497.221C-292.411 453.365 -81.8307 383.164 56.4494 288.435C205.478 182.752 395.305 225.291 515.08 273.444C726.147 365.766 1073.21 475.302 1362.63 459.582C1652.05 443.862 1827.91 614.251 1965.15 423.183C2094.93 245.863 2294.41 511.58 2343.31 525.506" stroke="url(#paint9_linear_367_1965)"/>
<path d="M-402.395 522.462C-289.67 483.133 -71.8617 418.426 64.4629 322.136C212.879 213.525 407.048 267.673 529.506 315.899C736.233 404.897 1108.13 477.245 1378.65 480.118C1649.16 482.992 1834.76 646.873 1968.98 456.622C2094.8 281.838 2292.68 526.857 2343.93 540.972" stroke="url(#paint10_linear_367_1965)"/>
<path d="M-401.77 548.084C-286.925 513.281 -61.8888 454.068 72.4803 356.218C220.285 244.677 418.796 310.434 543.936 358.734C746.323 444.408 1143.06 479.567 1394.67 501.035C1646.27 522.503 1841.62 679.876 1972.81 490.442C2094.68 318.193 2290.95 542.515 2344.55 556.817" stroke="url(#paint11_linear_367_1965)"/>
<path d="M-401.145 574.017C-284.18 543.741 -51.9158 490.022 80.4977 390.612C227.69 276.141 430.543 353.508 558.366 401.881C756.413 484.23 1177.99 482.202 1410.69 522.264C1643.39 562.325 1848.48 713.191 1976.65 524.574C2094.56 354.861 2289.22 558.484 2345.18 572.975" stroke="url(#paint12_linear_367_1965)"/>
<path d="M-400.52 600.225C-281.435 574.475 -41.9429 526.25 88.5152 425.28C235.096 307.88 442.291 396.856 572.795 445.302C766.503 524.327 1212.92 485.111 1426.71 543.767C1640.51 602.422 1855.34 746.78 1980.48 558.98C2094.43 391.802 2287.49 574.728 2345.8 589.407" stroke="url(#paint13_linear_367_1965)"/>
<path d="M-399.898 626.654C-278.694 605.43 -31.9739 562.699 96.5287 460.169C242.497 339.839 454.034 440.426 587.221 488.945C776.589 564.645 1247.85 488.241 1442.73 565.49C1637.62 642.74 1862.19 780.59 1984.31 593.607C2094.31 428.965 2285.76 591.194 2346.42 606.059" stroke="url(#paint14_linear_367_1965)"/>
<path d="M-399.273 653.275C-275.949 636.577 -22.001 599.341 104.546 495.25C249.903 371.991 465.782 484.187 601.651 532.779C786.679 605.155 1282.78 491.562 1458.76 587.406C1634.73 683.25 1869.05 814.592 1988.14 628.426C2094.18 466.32 2284.03 607.851 2347.05 622.904" stroke="url(#paint15_linear_367_1965)"/>
<path d="M-398.652 680.064C-273.208 667.894 -12.0319 636.151 112.56 530.5C257.305 404.311 477.525 528.117 616.077 576.783C796.765 645.834 1317.7 495.053 1474.77 609.491C1631.85 723.929 1875.9 848.763 1991.97 663.414C2094.06 503.843 2282.29 624.677 2347.67 639.918" stroke="url(#paint16_linear_367_1965)"/>
<path d="M-398.02 706.986C-270.455 699.341 -2.05115 673.093 120.585 565.882C264.718 436.763 489.28 572.179 630.515 620.918C806.862 686.645 1352.64 498.676 1490.81 631.708C1628.97 764.74 1882.77 883.066 1995.82 698.534C2093.94 541.498 2280.57 641.634 2348.3 657.063" stroke="url(#paint17_linear_367_1965)"/>
<path d="M-397.402 734.034C-267.718 730.916 7.91396 710.162 128.595 601.391C272.116 469.343 501.02 616.367 644.937 665.18C816.944 727.583 1387.56 502.425 1506.82 654.051C1626.08 805.678 1889.62 917.496 1999.64 733.781C2093.81 579.281 2278.83 658.719 2348.92 674.336" stroke="url(#paint18_linear_367_1965)"/>
<path d="M-396.781 761.182C-264.977 762.59 17.883 747.331 136.608 636.999C279.517 502.021 512.763 660.655 659.363 709.541C827.031 768.619 1422.49 506.274 1522.84 676.494C1623.19 846.714 1896.47 952.025 2003.47 769.127C2093.68 617.162 2277.1 675.903 2349.54 691.708" stroke="url(#paint19_linear_367_1965)"/>
<path d="M-396.152 788.419C-262.228 794.354 27.8599 784.588 144.629 672.696C286.927 534.789 524.515 705.033 673.797 753.992C837.124 809.746 1457.42 510.212 1538.87 699.026C1620.31 887.841 1903.33 986.643 2007.31 804.562C2093.56 655.133 2275.37 693.176 2350.17 709.169" stroke="url(#paint20_linear_367_1965)"/>
<path d="M-395.535 818.309C-259.491 828.771 37.825 824.499 152.639 711.047C294.324 570.21 536.254 752.064 688.219 801.096C847.206 853.525 1492.34 516.804 1554.88 724.212C1617.42 931.62 1910.18 1023.91 2011.14 842.651C2093.43 695.757 2273.64 713.103 2350.79 729.283" stroke="url(#paint21_linear_367_1965)"/>
</g>
<defs>
<linearGradient id="paint0_linear_367_1965" x1="-450.251" y1="-10.4119" x2="2852.96" y2="278.195" gradientUnits="userSpaceOnUse">
<stop stop-color="#416CCA"/>
<stop offset="1" stop-color="#7852CB"/>
</linearGradient>
<linearGradient id="paint1_linear_367_1965" x1="-437.165" y1="726.604" x2="2826.59" y2="1186.03" gradientUnits="userSpaceOnUse">
<stop stop-color="#416CCA"/>
<stop offset="1" stop-color="#7852CB"/>
</linearGradient>
<linearGradient id="paint2_linear_367_1965" x1="-449.63" y1="22.8549" x2="2850.83" y2="326.695" gradientUnits="userSpaceOnUse">
<stop stop-color="#416CCA"/>
<stop offset="1" stop-color="#7852CB"/>
</linearGradient>
<linearGradient id="paint3_linear_367_1965" x1="-449.001" y1="56.1766" x2="2848.29" y2="376.621" gradientUnits="userSpaceOnUse">
<stop stop-color="#416CCA"/>
<stop offset="1" stop-color="#7852CB"/>
</linearGradient>
<linearGradient id="paint4_linear_367_1965" x1="-448.388" y1="89.5475" x2="2845.24" y2="428.095" gradientUnits="userSpaceOnUse">
<stop stop-color="#416CCA"/>
<stop offset="1" stop-color="#7852CB"/>
</linearGradient>
<linearGradient id="paint5_linear_367_1965" x1="-447.759" y1="122.99" x2="2841.65" y2="481.283" gradientUnits="userSpaceOnUse">
<stop stop-color="#416CCA"/>
<stop offset="1" stop-color="#7852CB"/>
</linearGradient>
<linearGradient id="paint6_linear_367_1965" x1="-447.138" y1="156.495" x2="2837.36" y2="536.356" gradientUnits="userSpaceOnUse">
<stop stop-color="#416CCA"/>
<stop offset="1" stop-color="#7852CB"/>
</linearGradient>
<linearGradient id="paint7_linear_367_1965" x1="-446.509" y1="190.067" x2="2832.27" y2="593.551" gradientUnits="userSpaceOnUse">
<stop stop-color="#416CCA"/>
<stop offset="1" stop-color="#7852CB"/>
</linearGradient>
<linearGradient id="paint8_linear_367_1965" x1="-445.892" y1="223.704" x2="2826.17" y2="653.182" gradientUnits="userSpaceOnUse">
<stop stop-color="#416CCA"/>
<stop offset="1" stop-color="#7852CB"/>
</linearGradient>
<linearGradient id="paint9_linear_367_1965" x1="-445.267" y1="257.396" x2="2818.83" y2="715.647" gradientUnits="userSpaceOnUse">
<stop stop-color="#416CCA"/>
<stop offset="1" stop-color="#7852CB"/>
</linearGradient>
<linearGradient id="paint10_linear_367_1965" x1="-444.646" y1="291.991" x2="2813.6" y2="770.186" gradientUnits="userSpaceOnUse">
<stop stop-color="#416CCA"/>
<stop offset="1" stop-color="#7852CB"/>
</linearGradient>
<linearGradient id="paint11_linear_367_1965" x1="-444.021" y1="327.886" x2="2813.35" y2="808.988" gradientUnits="userSpaceOnUse">
<stop stop-color="#416CCA"/>
<stop offset="1" stop-color="#7852CB"/>
</linearGradient>
<linearGradient id="paint12_linear_367_1965" x1="-443.396" y1="363.811" x2="2813.24" y2="847.34" gradientUnits="userSpaceOnUse">
<stop stop-color="#416CCA"/>
<stop offset="1" stop-color="#7852CB"/>
</linearGradient>
<linearGradient id="paint13_linear_367_1965" x1="-442.771" y1="399.773" x2="2813.26" y2="885.314" gradientUnits="userSpaceOnUse">
<stop stop-color="#416CCA"/>
<stop offset="1" stop-color="#7852CB"/>
</linearGradient>
<linearGradient id="paint14_linear_367_1965" x1="-442.15" y1="435.755" x2="2813.37" y2="922.951" gradientUnits="userSpaceOnUse">
<stop stop-color="#416CCA"/>
<stop offset="1" stop-color="#7852CB"/>
</linearGradient>
<linearGradient id="paint15_linear_367_1965" x1="-441.525" y1="471.759" x2="2813.58" y2="960.305" gradientUnits="userSpaceOnUse">
<stop stop-color="#416CCA"/>
<stop offset="1" stop-color="#7852CB"/>
</linearGradient>
<linearGradient id="paint16_linear_367_1965" x1="-440.903" y1="507.787" x2="2813.87" y2="997.419" gradientUnits="userSpaceOnUse">
<stop stop-color="#416CCA"/>
<stop offset="1" stop-color="#7852CB"/>
</linearGradient>
<linearGradient id="paint17_linear_367_1965" x1="-440.271" y1="543.824" x2="2814.24" y2="1034.31" gradientUnits="userSpaceOnUse">
<stop stop-color="#416CCA"/>
<stop offset="1" stop-color="#7852CB"/>
</linearGradient>
<linearGradient id="paint18_linear_367_1965" x1="-439.653" y1="579.882" x2="2814.65" y2="1071.03" gradientUnits="userSpaceOnUse">
<stop stop-color="#416CCA"/>
<stop offset="1" stop-color="#7852CB"/>
</linearGradient>
<linearGradient id="paint19_linear_367_1965" x1="-439.032" y1="615.948" x2="2815.12" y2="1107.59" gradientUnits="userSpaceOnUse">
<stop stop-color="#416CCA"/>
<stop offset="1" stop-color="#7852CB"/>
</linearGradient>
<linearGradient id="paint20_linear_367_1965" x1="-438.403" y1="652.024" x2="2815.64" y2="1144.01" gradientUnits="userSpaceOnUse">
<stop stop-color="#416CCA"/>
<stop offset="1" stop-color="#7852CB"/>
</linearGradient>
<linearGradient id="paint21_linear_367_1965" x1="-437.786" y1="688.405" x2="2817.51" y2="1176.33" gradientUnits="userSpaceOnUse">
<stop stop-color="#416CCA"/>
<stop offset="1" stop-color="#7852CB"/>
</linearGradient>
</defs>
</svg>
