<svg width="1920" height="1008" viewBox="0 0 1920 1008" fill="none" xmlns="http://www.w3.org/2000/svg">
<path opacity="0.0344828" d="M2111.3 388.091C1910.43 129.525 1663.14 826.265 1359.41 395.463C1055.67 -35.3386 1579.06 -726.803 1156.45 -646.345C733.838 -565.886 1044.92 799.872 761.818 127.247C478.713 -545.378 612.655 -933.527 739.986 -937.157C841.85 -940.061 718.86 -1109 644.632 -1193.11" stroke="#0E21FE"/>
<path opacity="0.0689655" d="M2051.2 461.3C1874.1 187.459 1570.25 855.381 1305.82 401.874C1041.39 -51.6321 1618.27 -689.829 1192.87 -647.668C767.468 -605.507 960.136 774.387 736.584 83.2728C513.031 -607.841 678.516 -980.276 804.944 -972.57C906.087 -966.405 798.547 -1144.59 732.135 -1234.46" stroke="#1620FC"/>
<path opacity="0.103448" d="M1984.38 529.302C1832.17 242.35 1474.89 876.935 1251.41 404.28C1027.93 -68.3756 1653.02 -649.282 1228.27 -645.284C803.524 -641.285 877.665 742.556 714.735 38.1871C551.805 -666.182 747.126 -1020.38 871.65 -1001.52C971.27 -986.438 879.855 -1172.47 821.694 -1267.37" stroke="#1F1EFB"/>
<path opacity="0.137931" d="M1911.33 591.546C1784.95 293.731 1377.7 890.778 1196.49 402.644C1015.27 -85.4904 1683.04 -605.593 1262.33 -639.316C841.626 -673.038 798.001 704.649 696.305 -7.69463C594.609 -720.039 817.861 -1053.65 939.507 -1023.92C1036.82 -1000.13 962.08 -1192.57 912.544 -1291.76" stroke="#271DF9"/>
<path opacity="0.172414" d="M1832.59 647.527C1732.78 341.157 1279.36 896.818 1141.41 396.958C1003.46 -102.901 1708.09 -559.215 1294.75 -629.918C881.41 -700.621 721.631 660.972 681.326 -54.0606C641.021 -769.093 890.119 -1079.96 1007.94 -1039.71C1102.2 -1007.52 1044.55 -1204.86 1003.94 -1307.56" stroke="#301CF8"/>
<path opacity="0.206897" d="M1748.77 696.807C1676.06 384.235 1180.54 895.033 1086.52 387.257C992.498 -120.518 1728 -510.603 1325.25 -617.256C922.501 -723.908 649.013 611.883 669.802 -100.585C690.59 -813.054 963.287 -1099.22 1076.39 -1048.9C1166.87 -1008.65 1126.6 -1209.4 1095.15 -1314.81" stroke="#391BF6"/>
<path opacity="0.241379" d="M1660.52 738.985C1615.21 422.594 1081.94 885.444 1032.18 373.589C982.417 -138.266 1742.66 -460.236 1353.6 -601.53C964.535 -742.823 580.586 557.759 661.725 -146.963C742.864 -851.685 1036.77 -1111.42 1144.3 -1051.54C1230.32 -1003.64 1207.58 -1206.28 1185.45 -1313.59" stroke="#411AF5"/>
<path opacity="0.275862" d="M1568.46 773.711C1550.69 455.89 984.211 868.12 978.705 356.019C973.2 -156.081 1751.96 -408.613 1379.53 -582.973C1007.11 -757.333 516.718 498.999 657.028 -192.903C797.338 -884.806 1109.94 -1116.61 1211.09 -1047.76C1292.01 -992.68 1286.83 -1195.69 1274.12 -1304.07" stroke="#4A19F3"/>
<path opacity="0.310345" d="M1473.29 800.726C1482.95 483.854 887.996 843.218 926.416 334.674C964.837 -173.869 1755.84 -356.2 1402.84 -561.804C1049.83 -767.408 457.75 436.062 655.628 -238.093C853.507 -912.249 1182.2 -1114.84 1276.23 -1037.68C1351.46 -975.945 1363.73 -1177.8 1360.46 -1286.45" stroke="#5317F2"/>
<path opacity="0.344828" d="M1375.73 819.803C1412.53 506.235 793.952 810.918 875.641 309.675C957.331 -191.568 1754.32 -303.496 1423.33 -538.29C1092.34 -773.084 403.999 369.401 657.437 -282.26C910.875 -933.922 1252.96 -1106.28 1339.21 -1021.51C1408.2 -953.695 1437.68 -1152.92 1443.8 -1261" stroke="#5B16F0"/>
<path opacity="0.37931" d="M1276.5 830.805C1339.93 522.85 702.702 771.482 826.688 281.197C950.674 -209.089 1747.45 -250.964 1440.85 -512.682C1134.25 -774.4 355.733 299.517 662.335 -325.117C968.936 -949.751 1321.67 -1091.08 1399.53 -999.477C1461.81 -926.196 1508.13 -1121.32 1523.51 -1228.04" stroke="#6415EF"/>
<path opacity="0.413793" d="M1176.29 833.644C1265.66 533.549 614.797 725.205 779.799 249.42C944.801 -226.365 1735.28 -199.076 1455.22 -485.262C1175.16 -771.447 313.129 226.91 670.132 -366.408C1027.13 -959.726 1387.74 -1069.49 1456.67 -971.866C1511.81 -893.77 1574.5 -1083.39 1598.95 -1187.96" stroke="#6C14ED"/>
<path opacity="0.448276" d="M1075.86 828.283C1190.3 538.219 530.839 672.417 735.283 214.538C939.727 -243.342 1717.96 -148.305 1466.36 -456.332C1214.76 -764.358 276.4 152.081 680.7 -405.906C1085 -963.893 1450.68 -1041.79 1510.23 -939.008C1557.88 -856.782 1636.32 -1039.53 1669.59 -1141.18" stroke="#7513EC"/>
<path opacity="0.482759" d="M975.916 814.795C1114.35 536.836 451.314 613.539 693.345 176.805C935.376 -259.929 1695.62 -99.0614 1474.14 -426.158C1252.65 -753.255 245.629 75.5823 693.809 -443.359C1141.99 -962.301 1509.96 -1008.29 1559.77 -901.23C1599.61 -815.584 1693.1 -990.157 1734.86 -1088.15" stroke="#7E12EA"/>
<path opacity="0.517241" d="M877.194 793.261C1038.4 529.376 376.742 548.976 654.241 136.443C931.741 -276.089 1668.5 -51.7912 1478.52 -395.066C1288.54 -738.341 220.927 -2.08144 709.282 -478.588C1197.64 -955.095 1565.14 -969.365 1604.91 -858.943C1636.73 -770.606 1744.43 -935.784 1794.31 -1029.41" stroke="#8610E9"/>
<path opacity="0.551724" d="M780.365 763.864C962.94 515.898 307.535 479.213 618.14 93.7291C928.744 -291.754 1636.8 -6.878 1479.44 -363.343C1322.09 -719.808 202.292 -80.3673 726.861 -511.397C1251.43 -942.427 1615.76 -925.405 1645.3 -812.55C1668.93 -722.267 1789.93 -876.903 1847.47 -965.506" stroke="#8F0FE7"/>
<path opacity="0.586207" d="M686.127 726.828C888.535 496.493 244.113 404.75 585.234 48.9362C926.354 -306.877 1600.8 35.3015 1476.9 -331.295C1353.01 -697.891 189.728 -158.754 746.327 -541.629C1302.93 -924.504 1661.45 -876.847 1680.63 -762.498C1695.98 -671.019 1829.26 -814.057 1893.98 -897.011" stroke="#980EE6"/>
<path opacity="0.62069" d="M595.102 682.447C815.667 471.306 186.798 326.126 555.64 2.35889C924.483 -321.408 1560.76 74.4083 1470.89 -299.216C1381.01 -672.841 183.14 -236.72 767.395 -569.143C1351.65 -901.566 1701.82 -824.148 1710.62 -709.247C1717.65 -617.326 1862.12 -747.805 1933.48 -824.535" stroke="#A00DE4"/>
<path opacity="0.655172" d="M507.955 631.064C744.881 440.524 135.936 243.901 529.525 -45.7015C923.115 -335.304 1517.06 110.13 1461.47 -267.402C1405.88 -644.933 182.466 -313.757 789.845 -593.825C1397.22 -873.893 1736.61 -767.797 1735.07 -653.279C1733.83 -561.664 1888.33 -678.726 1965.73 -748.708" stroke="#A90CE3"/>
<path opacity="0.689655" d="M425.252 573.074C676.635 404.375 91.7571 158.657 506.962 -94.9385C922.166 -348.534 1470.01 142.184 1448.69 -236.14C1427.38 -614.464 187.535 -389.375 813.386 -615.589C1439.24 -841.802 1765.52 -708.308 1753.78 -595.094C1744.39 -504.522 1907.67 -607.416 1990.48 -670.184" stroke="#B10BE1"/>
<path opacity="0.724138" d="M347.548 508.92C611.394 363.128 54.4723 70.9894 488.027 -145.039C921.582 -361.068 1419.98 170.324 1432.65 -205.712C1445.32 -581.748 198.167 -463.102 837.754 -634.372C1477.34 -805.641 1788.34 -646.212 1766.62 -535.202C1749.25 -446.394 1920.02 -534.481 2007.58 -589.625" stroke="#BA09E0"/>
<path opacity="0.758621" d="M275.337 439.091C549.576 317.093 24.2176 -18.4922 472.75 -195.689C921.283 -372.886 1367.36 194.338 1413.44 -176.387C1459.52 -547.111 214.124 -534.488 862.66 -650.137C1511.2 -765.787 1804.9 -582.054 1773.5 -474.121C1748.37 -387.776 1925.32 -460.532 2016.93 -507.704" stroke="#C308DE"/>
<path opacity="0.793103" d="M209.08 364.114C491.582 266.61 1.09124 -109.172 461.15 -246.572C921.208 -383.971 1312.54 214.049 1391.2 -148.423C1469.86 -510.894 235.148 -603.109 887.831 -662.876C1540.51 -722.643 1815.08 -516.391 1774.35 -412.374C1741.78 -329.16 1923.52 -386.183 2018.47 -425.097" stroke="#CB07DD"/>
<path opacity="0.827586" d="M149.174 284.564C437.767 212.065 -14.8743 -200.425 453.203 -297.367C921.281 -394.309 1255.93 229.328 1366.07 -122.055C1476.21 -473.438 260.933 -668.561 912.985 -672.594C1565.04 -676.628 1818.78 -449.778 1769.19 -350.472C1729.51 -271.027 1914.67 -312.034 2012.21 -342.468" stroke="#D406DB"/>
<path opacity="0.862069" d="M95.988 201.035C388.473 153.86 -23.6783 -291.634 448.884 -347.765C921.447 -403.897 1197.94 240.074 1338.23 -97.513C1478.52 -435.1 291.167 -730.477 937.866 -679.332C1584.57 -628.186 1815.99 -382.779 1758.04 -288.933C1711.68 -213.856 1898.85 -238.686 1998.23 -260.485" stroke="#DD05DA"/>
<path opacity="0.896552" d="M49.8068 114.155C343.977 92.4317 -25.3984 -382.185 448.115 -397.459C921.627 -412.732 1138.99 246.23 1307.86 -75.0007C1476.74 -396.232 325.484 -788.52 962.198 -683.146C1598.91 -577.772 1806.74 -315.95 1741 -228.26C1688.42 -158.108 1876.19 -166.721 1976.65 -179.796" stroke="#E504D8"/>
<path opacity="0.931035" d="M10.8782 24.5597C304.532 28.2247 -20.1449 -471.487 450.809 -446.161C921.763 -420.835 1079.5 247.764 1275.18 -54.7192C1470.86 -357.203 363.511 -842.398 985.733 -684.133C1607.96 -525.868 1791.09 -249.855 1718.2 -168.958C1659.89 -104.239 1846.87 -96.7182 1947.65 -101.047" stroke="#EE02D7"/>
<path opacity="0.965517" d="M-20.619 -67.0836C270.342 -38.2832 -8.0881 -558.952 456.849 -493.582C921.787 -428.213 1019.88 244.696 1240.38 -36.8339C1460.89 -318.364 404.847 -891.844 1008.23 -682.394C1611.6 -472.945 1769.17 -185.031 1689.8 -111.5C1626.31 -52.6756 1811.12 -29.2212 1911.47 -24.847" stroke="#F601D5"/>
<path d="M-44.5586 -160.1C241.573 -106.602 10.5602 -644.011 466.101 -539.447C921.642 -434.883 960.549 237.08 1203.72 -21.4922C1446.89 -280.064 449.079 -936.626 1029.45 -678.054C1609.82 -419.482 1741.13 -122.001 1656.02 -56.3452C1587.93 -3.82018 1769.23 35.2493 1868.39 48.2184" stroke="#FF00D4"/>
</svg>
