<svg width="1920" height="1080" viewBox="0 0 1920 1080" fill="none" xmlns="http://www.w3.org/2000/svg">
<g opacity="0.4">
<path d="M1919.03 536.319C1732.89 860.791 2079.49 1309.89 1682.16 1053.86C1284.83 797.842 1317.17 441.134 1056.26 694.226C795.348 947.317 779.572 856.255 610.28 813.726C440.988 771.196 675.486 1184.28 388.491 1133.13C101.495 1081.98 41.2694 889.397 -99.2965 937.982" stroke="url(#paint0_linear_367_2066)"/>
<path d="M2114.73 -35.9931C1460.79 216.201 1039.91 715.364 1103.23 267.976C1160.85 -139.19 1081.2 105.316 524.337 353.516C-32.5295 601.716 268.574 228.123 66.6693 47.787C-135.236 -132.549 -93.5877 134.762 -404.674 280.293" stroke="url(#paint1_linear_367_2066)"/>
<path d="M1938.44 490.366C1739.5 796.803 2030.17 1222.15 1652.68 998.527C1275.2 774.906 1296.47 451.803 1062.15 661.551C830.201 854.619 808.618 794.063 604.092 777.963C399.566 761.863 640.118 1103.43 360.859 1040.54C81.5993 977.643 30.6344 826.868 -125.433 884.267" stroke="url(#paint2_linear_367_2066)"/>
<path d="M1957.83 444.279C1746.08 732.682 1980.81 1134.28 1623.17 943.056C1265.53 751.837 1275.73 462.338 1068.02 628.741C865.021 761.786 837.631 731.737 597.871 742.067C358.111 752.397 604.719 1022.45 333.195 947.81C61.6704 873.172 19.9671 764.206 -151.603 830.418" stroke="url(#paint3_linear_367_2066)"/>
<path d="M1977.16 398.01C1752.61 668.38 1931.4 1046.22 1593.6 887.405C1255.81 728.586 1254.95 472.693 1073.83 595.752C899.789 668.773 866.593 669.23 591.599 705.99C316.605 742.75 569.268 941.286 305.479 854.903C41.6903 768.521 9.24812 701.363 -177.823 776.388" stroke="url(#paint4_linear_367_2066)"/>
<path d="M1996.43 351.501C1759.08 603.836 1881.94 957.929 1563.98 831.512C1246.03 705.095 1234.1 482.806 1079.58 562.521C934.5 575.519 895.496 606.482 585.268 669.672C275.041 732.862 533.758 859.881 277.705 761.754C21.652 663.628 -1.52907 638.279 -204.102 722.117" stroke="url(#paint5_linear_367_2066)"/>
<path d="M2015.61 304.637C1765.45 538.939 1832.37 869.281 1534.26 775.265C1236.15 681.249 1213.16 492.565 1085.23 528.936C969.112 481.91 924.302 543.379 578.84 632.999C233.379 722.619 498.152 778.123 249.834 668.252C1.5161 558.381 -12.4038 574.841 -230.479 667.492" stroke="url(#paint6_linear_367_2066)"/>
<path d="M2034.64 257.253C1771.68 473.52 1782.67 780.112 1504.4 718.497C1226.13 656.883 1192.07 501.803 1090.75 494.83C1003.58 387.781 952.964 479.756 572.268 595.806C191.572 711.856 462.4 695.843 221.818 574.228C-18.764 452.613 -23.4224 510.881 -256.999 612.346" stroke="url(#paint7_linear_367_2066)"/>
<path d="M2053.46 209.035C1777.69 407.268 1732.74 690.11 1474.32 660.897C1215.89 631.683 1170.77 510.208 1096.04 459.89C1037.83 292.818 981.407 415.3 565.477 557.78C149.547 700.26 426.43 612.731 193.584 479.372C-39.2633 346.013 -34.6604 446.089 -283.739 556.367" stroke="url(#paint8_linear_367_2066)"/>
<path d="M2071.88 159.372C1783.32 339.572 1682.42 598.663 1443.85 601.85C1205.27 605.038 1149.07 517.168 1100.94 423.506C1071.69 196.411 1009.46 349.398 558.298 518.308C107.135 687.218 390.073 528.173 164.962 383.07C-60.1497 237.967 -46.2857 379.851 -310.867 498.943" stroke="url(#paint9_linear_367_2066)"/>
<path d="M2089.55 106.865C1788.18 269.031 1631.35 504.371 1412.62 539.96C1193.88 575.549 1126.62 521.283 1105.09 384.278C1104.8 97.1586 1036.76 280.652 550.362 475.992C63.9644 671.332 352.958 440.771 135.582 283.924C-81.7938 127.076 -58.6686 310.77 -338.751 438.674" stroke="url(#paint10_linear_367_2066)"/>
<path d="M2104.98 46.0355C1790.81 190.167 1578.04 401.757 1379.15 469.747C1180.26 537.737 1101.93 517.076 1106.99 336.726C1135.66 -10.4162 1061.82 203.584 540.184 425.353C18.5521 647.123 313.601 345.046 103.96 176.455C-105.68 7.86317 -73.2934 233.365 -368.878 370.083" stroke="url(#paint11_linear_367_2066)"/>
</g>
<defs>
<linearGradient id="paint0_linear_367_2066" x1="2072.88" y1="988.429" x2="-355.599" y2="1520.77" gradientUnits="userSpaceOnUse">
<stop stop-color="#416CCA"/>
<stop offset="1" stop-color="#7852CB"/>
</linearGradient>
<linearGradient id="paint1_linear_367_2066" x1="2187.78" y1="87.1173" x2="-789.417" y2="724.353" gradientUnits="userSpaceOnUse">
<stop stop-color="#416CCA"/>
<stop offset="1" stop-color="#7852CB"/>
</linearGradient>
<linearGradient id="paint2_linear_367_2066" x1="2084" y1="909.041" x2="-395.015" y2="1447.05" gradientUnits="userSpaceOnUse">
<stop stop-color="#416CCA"/>
<stop offset="1" stop-color="#7852CB"/>
</linearGradient>
<linearGradient id="paint3_linear_367_2066" x1="2095.11" y1="829.576" x2="-434.483" y2="1372.91" gradientUnits="userSpaceOnUse">
<stop stop-color="#416CCA"/>
<stop offset="1" stop-color="#7852CB"/>
</linearGradient>
<linearGradient id="paint4_linear_367_2066" x1="2106.18" y1="749.958" x2="-474.003" y2="1298.42" gradientUnits="userSpaceOnUse">
<stop stop-color="#416CCA"/>
<stop offset="1" stop-color="#7852CB"/>
</linearGradient>
<linearGradient id="paint5_linear_367_2066" x1="2117.16" y1="670.019" x2="-513.549" y2="1223.81" gradientUnits="userSpaceOnUse">
<stop stop-color="#416CCA"/>
<stop offset="1" stop-color="#7852CB"/>
</linearGradient>
<linearGradient id="paint6_linear_367_2066" x1="2127.97" y1="589.417" x2="-553.096" y2="1149.6" gradientUnits="userSpaceOnUse">
<stop stop-color="#416CCA"/>
<stop offset="1" stop-color="#7852CB"/>
</linearGradient>
<linearGradient id="paint7_linear_367_2066" x1="2138.53" y1="507.919" x2="-592.604" y2="1076.3" gradientUnits="userSpaceOnUse">
<stop stop-color="#416CCA"/>
<stop offset="1" stop-color="#7852CB"/>
</linearGradient>
<linearGradient id="paint8_linear_367_2066" x1="2148.88" y1="425.62" x2="-632.056" y2="1003.98" gradientUnits="userSpaceOnUse">
<stop stop-color="#416CCA"/>
<stop offset="1" stop-color="#7852CB"/>
</linearGradient>
<linearGradient id="paint9_linear_367_2066" x1="2159.06" y1="342.684" x2="-671.465" y2="932.442" gradientUnits="userSpaceOnUse">
<stop stop-color="#416CCA"/>
<stop offset="1" stop-color="#7852CB"/>
</linearGradient>
<linearGradient id="paint10_linear_367_2066" x1="2169.07" y1="259.116" x2="-710.832" y2="861.637" gradientUnits="userSpaceOnUse">
<stop stop-color="#416CCA"/>
<stop offset="1" stop-color="#7852CB"/>
</linearGradient>
<linearGradient id="paint11_linear_367_2066" x1="2178.76" y1="174.396" x2="-750.158" y2="792" gradientUnits="userSpaceOnUse">
<stop stop-color="#416CCA"/>
<stop offset="1" stop-color="#7852CB"/>
</linearGradient>
</defs>
</svg>
